<svg width="1020" height="597.0"  xmlns="http://www.w3.org/2000/svg"><text x="49.44444444444444" y="515"  transform="rotate(60, 49.44444444444444, 515)" font-size="12">china</text><text x="216.11111111111111" y="515"  transform="rotate(60, 216.11111111111111, 515)" font-size="12">coronavirus</text><text x="71.66666666666666" y="515"  transform="rotate(60, 71.66666666666666, 515)" font-size="12">novel</text><text x="293.88888888888886" y="515"  transform="rotate(60, 293.88888888888886, 515)" font-size="12">outbreak</text><text x="927.2222222222222" y="515"  transform="rotate(60, 927.2222222222222, 515)" font-size="12">medical</text><text x="560.5555555555555" y="515"  transform="rotate(60, 560.5555555555555, 515)" font-size="12">people</text><text x="382.77777777777777" y="515"  transform="rotate(60, 382.77777777777777, 515)" font-size="12">world</text><text x="427.22222222222223" y="515"  transform="rotate(60, 427.22222222222223, 515)" font-size="12">disease</text><text x="460.55555555555554" y="515"  transform="rotate(60, 460.55555555555554, 515)" font-size="12">take</text><text x="371.66666666666663" y="515"  transform="rotate(60, 371.66666666666663, 515)" font-size="12">health</text><text x="393.88888888888886" y="515"  transform="rotate(60, 393.88888888888886, 515)" font-size="12">organization</text><text x="482.77777777777777" y="515"  transform="rotate(60, 482.77777777777777, 515)" font-size="12">expert</text><text x="971.6666666666666" y="515"  transform="rotate(60, 971.6666666666666, 515)" font-size="12">outside</text><text x="871.6666666666666" y="515"  transform="rotate(60, 871.6666666666666, 515)" font-size="12">confirm</text><text x="849.4444444444445" y="515"  transform="rotate(60, 849.4444444444445, 515)" font-size="12">case</text><text x="138.33333333333331" y="515"  transform="rotate(60, 138.33333333333331, 515)" font-size="12">covid</text><text x="605.0" y="515"  transform="rotate(60, 605.0, 515)" font-size="12">cruise</text><text x="593.8888888888889" y="515"  transform="rotate(60, 593.8888888888889, 515)" font-size="12">ship</text><text x="616.1111111111111" y="515"  transform="rotate(60, 616.1111111111111, 515)" font-size="12">japan</text><text x="160.55555555555554" y="515"  transform="rotate(60, 160.55555555555554, 515)" font-size="12">country</text><text x="16.11111111111111" y="515"  transform="rotate(60, 16.11111111111111, 515)" font-size="12">live</text><text x="238.33333333333331" y="515"  transform="rotate(60, 238.33333333333331, 515)" font-size="12">state</text><text x="760.5555555555555" y="515"  transform="rotate(60, 760.5555555555555, 515)" font-size="12">central</text><text x="771.6666666666666" y="515"  transform="rotate(60, 771.6666666666666, 515)" font-size="12">epicenter</text><text x="27.22222222222222" y="515"  transform="rotate(60, 27.22222222222222, 515)" font-size="12">late</text><text x="749.4444444444445" y="515"  transform="rotate(60, 749.4444444444445, 515)" font-size="12">hubei</text><text x="738.3333333333333" y="515"  transform="rotate(60, 738.3333333333333, 515)" font-size="12">province</text><text x="127.22222222222223" y="515"  transform="rotate(60, 127.22222222222223, 515)" font-size="12">support</text><text x="893.8888888888889" y="515"  transform="rotate(60, 893.8888888888889, 515)" font-size="12">hospital</text><text x="949.4444444444445" y="515"  transform="rotate(60, 949.4444444444445, 515)" font-size="12">help</text><text x="105.0" y="515"  transform="rotate(60, 105.0, 515)" font-size="12">fight</text><text x="182.77777777777777" y="515"  transform="rotate(60, 182.77777777777777, 515)" font-size="12">contain</text><text x="82.77777777777777" y="515"  transform="rotate(60, 82.77777777777777, 515)" font-size="12">epidemic</text><text x="493.88888888888886" y="515"  transform="rotate(60, 493.88888888888886, 515)" font-size="12">say</text><text x="193.88888888888889" y="515"  transform="rotate(60, 193.88888888888889, 515)" font-size="12">effort</text><text x="282.77777777777777" y="515"  transform="rotate(60, 282.77777777777777, 515)" font-size="12">amid</text><text x="838.3333333333333" y="515"  transform="rotate(60, 838.3333333333333, 515)" font-size="12">number</text><text x="338.3333333333333" y="515"  transform="rotate(60, 338.3333333333333, 515)" font-size="12">day</text><text x="149.44444444444443" y="515"  transform="rotate(60, 149.44444444444443, 515)" font-size="12">virus</text><text x="793.8888888888889" y="515"  transform="rotate(60, 793.8888888888889, 515)" font-size="12">include</text><text x="116.11111111111111" y="515"  transform="rotate(60, 116.11111111111111, 515)" font-size="12">show</text><text x="449.44444444444446" y="515"  transform="rotate(60, 449.44444444444446, 515)" font-size="12">official</text><text x="438.3333333333333" y="515"  transform="rotate(60, 438.3333333333333, 515)" font-size="12">control</text><text x="816.1111111111111" y="515"  transform="rotate(60, 816.1111111111111, 515)" font-size="12">total</text><text x="649.4444444444445" y="515"  transform="rotate(60, 649.4444444444445, 515)" font-size="12">work</text><text x="782.7777777777777" y="515"  transform="rotate(60, 782.7777777777777, 515)" font-size="12">one</text><text x="316.1111111111111" y="515"  transform="rotate(60, 316.1111111111111, 515)" font-size="12">national</text><text x="305.0" y="515"  transform="rotate(60, 305.0, 515)" font-size="12">commission</text><text x="5.0" y="515"  transform="rotate(60, 5.0, 515)" font-size="12">update</text><text x="693.8888888888889" y="515"  transform="rotate(60, 693.8888888888889, 515)" font-size="12">new</text><text x="516.1111111111111" y="515"  transform="rotate(60, 516.1111111111111, 515)" font-size="12">die</text><text x="471.66666666666663" y="515"  transform="rotate(60, 471.66666666666663, 515)" font-size="12">measure</text><text x="505.0" y="515"  transform="rotate(60, 505.0, 515)" font-size="12">city</text><text x="93.88888888888889" y="515"  transform="rotate(60, 93.88888888888889, 515)" font-size="12">battle</text><text x="249.44444444444443" y="515"  transform="rotate(60, 249.44444444444443, 515)" font-size="12">due</text><text x="171.66666666666666" y="515"  transform="rotate(60, 171.66666666666666, 515)" font-size="12">authority</text><text x="60.55555555555556" y="515"  transform="rotate(60, 60.55555555555556, 515)" font-size="12">pneumonia</text><text x="405.0" y="515"  transform="rotate(60, 405.0, 515)" font-size="12">global</text><text x="327.22222222222223" y="515"  transform="rotate(60, 327.22222222222223, 515)" font-size="12">accord</text><text x="727.2222222222222" y="515"  transform="rotate(60, 727.2222222222222, 515)" font-size="12">death</text><text x="860.5555555555555" y="515"  transform="rotate(60, 860.5555555555555, 515)" font-size="12">confirmed</text><text x="538.3333333333333" y="515"  transform="rotate(60, 538.3333333333333, 515)" font-size="12">infect</text><text x="905.0" y="515"  transform="rotate(60, 905.0, 515)" font-size="12">patient</text><text x="205.0" y="515"  transform="rotate(60, 205.0, 515)" font-size="12">spread</text><text x="982.7777777777777" y="515"  transform="rotate(60, 982.7777777777777, 515)" font-size="12">year</text><text x="993.8888888888888" y="515"  transform="rotate(60, 993.8888888888888, 515)" font-size="12">old</text><text x="882.7777777777777" y="515"  transform="rotate(60, 882.7777777777777, 515)" font-size="12">discharge</text><text x="960.5555555555555" y="515"  transform="rotate(60, 960.5555555555555, 515)" font-size="12">first</text><text x="938.3333333333333" y="515"  transform="rotate(60, 938.3333333333333, 515)" font-size="12">million</text><text x="682.7777777777777" y="515"  transform="rotate(60, 682.7777777777777, 515)" font-size="12">report</text><text x="638.3333333333333" y="515"  transform="rotate(60, 638.3333333333333, 515)" font-size="12">test</text><text x="716.1111111111111" y="515"  transform="rotate(60, 716.1111111111111, 515)" font-size="12">toll</text><text x="805.0" y="515"  transform="rotate(60, 805.0, 515)" font-size="12">taiwan</text><text x="916.1111111111111" y="515"  transform="rotate(60, 916.1111111111111, 515)" font-size="12">infection</text><text x="827.2222222222222" y="515"  transform="rotate(60, 827.2222222222222, 515)" font-size="12">bring</text><text x="660.5555555555555" y="515"  transform="rotate(60, 660.5555555555555, 515)" font-size="12">government</text><text x="571.6666666666666" y="515"  transform="rotate(60, 571.6666666666666, 515)" font-size="12">quarantine</text><text x="671.6666666666666" y="515"  transform="rotate(60, 671.6666666666666, 515)" font-size="12">hong</text><text x="527.2222222222222" y="515"  transform="rotate(60, 527.2222222222222, 515)" font-size="12">two</text><text x="349.44444444444446" y="515"  transform="rotate(60, 349.44444444444446, 515)" font-size="12">public</text><text x="360.55555555555554" y="515"  transform="rotate(60, 360.55555555555554, 515)" font-size="12">emergency</text><text x="705.0" y="515"  transform="rotate(60, 705.0, 515)" font-size="12">rise</text><text x="260.55555555555554" y="515"  transform="rotate(60, 260.55555555555554, 515)" font-size="12">flight</text><text x="227.22222222222223" y="515"  transform="rotate(60, 227.22222222222223, 515)" font-size="12">travel</text><text x="38.33333333333333" y="515"  transform="rotate(60, 38.33333333333333, 515)" font-size="12">beyond</text><text x="549.4444444444445" y="515"  transform="rotate(60, 549.4444444444445, 515)" font-size="12">least</text><text x="627.2222222222222" y="515"  transform="rotate(60, 627.2222222222222, 515)" font-size="12">positive</text><text x="416.1111111111111" y="515"  transform="rotate(60, 416.1111111111111, 515)" font-size="12">center</text><text x="582.7777777777777" y="515"  transform="rotate(60, 582.7777777777777, 515)" font-size="12">passenger</text><text x="271.66666666666663" y="515"  transform="rotate(60, 271.66666666666663, 515)" font-size="12">fear</text><path stroke-width="2" stroke="red" d="M 987.7777777777777 510 987.7777777777777 497.8979709240193" /><path stroke-width="2" stroke="red" d="M 998.8888888888888 510 998.8888888888888 497.8979709240193" /><path stroke-width="2" stroke="red" d="M 987.7777777777777 497.8979709240193 998.8888888888888 497.8979709240193" /><path stroke-width="2" stroke="blue" d="M 32.22222222222222 510 32.22222222222222 495.5544140034164" /><path stroke-width="2" stroke="blue" d="M 43.33333333333333 510 43.33333333333333 495.5544140034164" /><path stroke-width="2" stroke="blue" d="M 32.22222222222222 495.5544140034164 43.33333333333333 495.5544140034164" /><path stroke-width="2" stroke="blue" d="M 354.44444444444446 510 354.44444444444446 494.86178996832007" /><path stroke-width="2" stroke="blue" d="M 365.55555555555554 510 365.55555555555554 494.86178996832007" /><path stroke-width="2" stroke="blue" d="M 354.44444444444446 494.86178996832007 365.55555555555554 494.86178996832007" /><path stroke-width="2" stroke="red" d="M 943.3333333333333 510 943.3333333333333 494.3744483755265" /><path stroke-width="2" stroke="red" d="M 954.4444444444445 510 954.4444444444445 494.3744483755265" /><path stroke-width="2" stroke="red" d="M 943.3333333333333 494.3744483755265 954.4444444444445 494.3744483755265" /><path stroke-width="2" stroke="blue" d="M 310.0 510 310.0 494.3615329446857" /><path stroke-width="2" stroke="blue" d="M 321.1111111111111 510 321.1111111111111 494.3615329446857" /><path stroke-width="2" stroke="blue" d="M 310.0 494.3615329446857 321.1111111111111 494.3615329446857" /><path stroke-width="2" stroke="blue" d="M 632.2222222222222 510 632.2222222222222 494.1806348676364" /><path stroke-width="2" stroke="blue" d="M 643.3333333333333 510 643.3333333333333 494.1806348676364" /><path stroke-width="2" stroke="blue" d="M 632.2222222222222 494.1806348676364 643.3333333333333 494.1806348676364" /><path stroke-width="2" stroke="red" d="M 798.8888888888889 510 798.8888888888889 493.35376867943944" /><path stroke-width="2" stroke="red" d="M 810.0 510 810.0 493.35376867943944" /><path stroke-width="2" stroke="red" d="M 798.8888888888889 493.35376867943944 810.0 493.35376867943944" /><path stroke-width="2" stroke="blue" d="M 465.55555555555554 510 465.55555555555554 493.2364483201515" /><path stroke-width="2" stroke="blue" d="M 476.66666666666663 510 476.66666666666663 493.2364483201515" /><path stroke-width="2" stroke="blue" d="M 465.55555555555554 493.2364483201515 476.66666666666663 493.2364483201515" /><path stroke-width="2" stroke="blue" d="M 421.1111111111111 510 421.1111111111111 492.11790521077813" /><path stroke-width="2" stroke="blue" d="M 432.22222222222223 510 432.22222222222223 492.11790521077813" /><path stroke-width="2" stroke="blue" d="M 421.1111111111111 492.11790521077813 432.22222222222223 492.11790521077813" /><path stroke-width="2" stroke="blue" d="M 387.77777777777777 510 387.77777777777777 491.3418193593227" /><path stroke-width="2" stroke="blue" d="M 398.88888888888886 510 398.88888888888886 491.3418193593227" /><path stroke-width="2" stroke="blue" d="M 387.77777777777777 491.3418193593227 398.88888888888886 491.3418193593227" /><path stroke-width="2" stroke="blue" d="M 10.0 510 10.0 489.3415984421724" /><path stroke-width="2" stroke="blue" d="M 21.11111111111111 510 21.11111111111111 489.3415984421724" /><path stroke-width="2" stroke="blue" d="M 10.0 489.3415984421724 21.11111111111111 489.3415984421724" /><path stroke-width="2" stroke="blue" d="M 654.4444444444445 510 654.4444444444445 489.03488348086717" /><path stroke-width="2" stroke="blue" d="M 665.5555555555555 510 665.5555555555555 489.03488348086717" /><path stroke-width="2" stroke="blue" d="M 654.4444444444445 489.03488348086717 665.5555555555555 489.03488348086717" /><path stroke-width="2" stroke="blue" d="M 254.44444444444443 510 254.44444444444443 488.663900073107" /><path stroke-width="2" stroke="blue" d="M 265.55555555555554 510 265.55555555555554 488.663900073107" /><path stroke-width="2" stroke="blue" d="M 254.44444444444443 488.663900073107 265.55555555555554 488.663900073107" /><path stroke-width="2" stroke="blue" d="M 598.8888888888889 510 598.8888888888889 486.5486689786652" /><path stroke-width="2" stroke="blue" d="M 610.0 510 610.0 486.5486689786652" /><path stroke-width="2" stroke="blue" d="M 598.8888888888889 486.5486689786652 610.0 486.5486689786652" /><path stroke-width="2" stroke="blue" d="M 121.11111111111111 510 121.11111111111111 485.6872392888608" /><path stroke-width="2" stroke="blue" d="M 132.22222222222223 510 132.22222222222223 485.6872392888608" /><path stroke-width="2" stroke="blue" d="M 121.11111111111111 485.6872392888608 132.22222222222223 485.6872392888608" /><path stroke-width="2" stroke="red" d="M 787.7777777777777 510 787.7777777777777 483.87992785096117" /><path stroke-width="2" stroke="red" d="M 804.4444444444445 493.35376867943944 804.4444444444445 483.87992785096117" /><path stroke-width="2" stroke="red" d="M 787.7777777777777 483.87992785096117 804.4444444444445 483.87992785096117" /><path stroke-width="2" stroke="red" d="M 710.0 510 710.0 482.6582756672368" /><path stroke-width="2" stroke="red" d="M 721.1111111111111 510 721.1111111111111 482.6582756672368" /><path stroke-width="2" stroke="red" d="M 710.0 482.6582756672368 721.1111111111111 482.6582756672368" /><path stroke-width="2" stroke="blue" d="M 587.7777777777777 510 587.7777777777777 481.61611358928513" /><path stroke-width="2" stroke="blue" d="M 604.4444444444445 486.5486689786652 604.4444444444445 481.61611358928513" /><path stroke-width="2" stroke="blue" d="M 587.7777777777777 481.61611358928513 604.4444444444445 481.61611358928513" /><path stroke-width="2" stroke="blue" d="M 426.66666666666663 492.11790521077813 426.66666666666663 480.09295244048326" /><path stroke-width="2" stroke="blue" d="M 443.3333333333333 510 443.3333333333333 480.09295244048326" /><path stroke-width="2" stroke="blue" d="M 426.66666666666663 480.09295244048326 443.3333333333333 480.09295244048326" /><path stroke-width="2" stroke="blue" d="M 187.77777777777777 510 187.77777777777777 478.6219922155286" /><path stroke-width="2" stroke="blue" d="M 198.88888888888889 510 198.88888888888889 478.6219922155286" /><path stroke-width="2" stroke="blue" d="M 187.77777777777777 478.6219922155286 198.88888888888889 478.6219922155286" /><path stroke-width="2" stroke="blue" d="M 596.1111111111111 481.61611358928513 596.1111111111111 474.21989495466187" /><path stroke-width="2" stroke="blue" d="M 621.1111111111111 510 621.1111111111111 474.21989495466187" /><path stroke-width="2" stroke="blue" d="M 596.1111111111111 474.21989495466187 621.1111111111111 474.21989495466187" /><path stroke-width="2" stroke="blue" d="M 110.0 510 110.0 473.99921613454484" /><path stroke-width="2" stroke="blue" d="M 126.66666666666667 485.6872392888608 126.66666666666667 473.99921613454484" /><path stroke-width="2" stroke="blue" d="M 110.0 473.99921613454484 126.66666666666667 473.99921613454484" /><path stroke-width="2" stroke="blue" d="M 232.22222222222223 510 232.22222222222223 471.2852848304058" /><path stroke-width="2" stroke="blue" d="M 243.33333333333331 510 243.33333333333331 471.2852848304058" /><path stroke-width="2" stroke="blue" d="M 232.22222222222223 471.2852848304058 243.33333333333331 471.2852848304058" /><path stroke-width="2" stroke="red" d="M 821.1111111111111 510 821.1111111111111 470.88127983483884" /><path stroke-width="2" stroke="red" d="M 832.2222222222222 510 832.2222222222222 470.88127983483884" /><path stroke-width="2" stroke="red" d="M 821.1111111111111 470.88127983483884 832.2222222222222 470.88127983483884" /><path stroke-width="2" stroke="blue" d="M 315.55555555555554 494.3615329446857 315.55555555555554 469.70132381910395" /><path stroke-width="2" stroke="blue" d="M 332.22222222222223 510 332.22222222222223 469.70132381910395" /><path stroke-width="2" stroke="blue" d="M 315.55555555555554 469.70132381910395 332.22222222222223 469.70132381910395" /><path stroke-width="2" stroke="red" d="M 887.7777777777777 510 887.7777777777777 468.84596387423386" /><path stroke-width="2" stroke="red" d="M 898.8888888888889 510 898.8888888888889 468.84596387423386" /><path stroke-width="2" stroke="red" d="M 887.7777777777777 468.84596387423386 898.8888888888889 468.84596387423386" /><path stroke-width="2" stroke="blue" d="M 360.0 494.86178996832007 360.0 466.5236084252114" /><path stroke-width="2" stroke="blue" d="M 376.66666666666663 510 376.66666666666663 466.5236084252114" /><path stroke-width="2" stroke="blue" d="M 360.0 466.5236084252114 376.66666666666663 466.5236084252114" /><path stroke-width="2" stroke="blue" d="M 471.1111111111111 493.2364483201515 471.1111111111111 466.4510604301488" /><path stroke-width="2" stroke="blue" d="M 487.77777777777777 510 487.77777777777777 466.4510604301488" /><path stroke-width="2" stroke="blue" d="M 471.1111111111111 466.4510604301488 487.77777777777777 466.4510604301488" /><path stroke-width="2" stroke="red" d="M 893.3333333333333 468.84596387423386 893.3333333333333 464.8879311893552" /><path stroke-width="2" stroke="red" d="M 910.0 510 910.0 464.8879311893552" /><path stroke-width="2" stroke="red" d="M 893.3333333333333 464.8879311893552 910.0 464.8879311893552" /><path stroke-width="2" stroke="blue" d="M 576.6666666666666 510 576.6666666666666 462.88739027405313" /><path stroke-width="2" stroke="blue" d="M 608.6111111111111 474.21989495466187 608.6111111111111 462.88739027405313" /><path stroke-width="2" stroke="blue" d="M 576.6666666666666 462.88739027405313 608.6111111111111 462.88739027405313" /><path stroke-width="2" stroke="red" d="M 765.5555555555555 510 765.5555555555555 458.62562605461653" /><path stroke-width="2" stroke="red" d="M 776.6666666666666 510 776.6666666666666 458.62562605461653" /><path stroke-width="2" stroke="red" d="M 765.5555555555555 458.62562605461653 776.6666666666666 458.62562605461653" /><path stroke-width="2" stroke="blue" d="M 592.6388888888889 462.88739027405313 592.6388888888889 458.3928504645295" /><path stroke-width="2" stroke="blue" d="M 637.7777777777777 494.1806348676364 637.7777777777777 458.3928504645295" /><path stroke-width="2" stroke="blue" d="M 592.6388888888889 458.3928504645295 637.7777777777777 458.3928504645295" /><path stroke-width="2" stroke="red" d="M 743.3333333333333 510 743.3333333333333 457.3510551111315" /><path stroke-width="2" stroke="red" d="M 754.4444444444445 510 754.4444444444445 457.3510551111315" /><path stroke-width="2" stroke="red" d="M 743.3333333333333 457.3510551111315 754.4444444444445 457.3510551111315" /><path stroke-width="2" stroke="blue" d="M 87.77777777777777 510 87.77777777777777 457.1095106334765" /><path stroke-width="2" stroke="blue" d="M 98.88888888888889 510 98.88888888888889 457.1095106334765" /><path stroke-width="2" stroke="blue" d="M 87.77777777777777 457.1095106334765 98.88888888888889 457.1095106334765" /><path stroke-width="2" stroke="blue" d="M 15.555555555555555 489.3415984421724 15.555555555555555 456.87343280031246" /><path stroke-width="2" stroke="blue" d="M 37.77777777777777 495.5544140034164 37.77777777777777 456.87343280031246" /><path stroke-width="2" stroke="blue" d="M 15.555555555555555 456.87343280031246 37.77777777777777 456.87343280031246" /><path stroke-width="2" stroke="blue" d="M 276.66666666666663 510 276.66666666666663 456.22169775104464" /><path stroke-width="2" stroke="blue" d="M 287.77777777777777 510 287.77777777777777 456.22169775104464" /><path stroke-width="2" stroke="blue" d="M 276.66666666666663 456.22169775104464 287.77777777777777 456.22169775104464" /><path stroke-width="2" stroke="blue" d="M 368.3333333333333 466.5236084252114 368.3333333333333 452.900661355548" /><path stroke-width="2" stroke="blue" d="M 393.3333333333333 491.3418193593227 393.3333333333333 452.900661355548" /><path stroke-width="2" stroke="blue" d="M 368.3333333333333 452.900661355548 393.3333333333333 452.900661355548" /><path stroke-width="2" stroke="blue" d="M 660.0 489.03488348086717 660.0 451.5453823304566" /><path stroke-width="2" stroke="blue" d="M 676.6666666666666 510 676.6666666666666 451.5453823304566" /><path stroke-width="2" stroke="blue" d="M 660.0 451.5453823304566 676.6666666666666 451.5453823304566" /><path stroke-width="2" stroke="red" d="M 932.2222222222222 510 932.2222222222222 450.86228414954826" /><path stroke-width="2" stroke="red" d="M 948.8888888888889 494.3744483755265 948.8888888888889 450.86228414954826" /><path stroke-width="2" stroke="red" d="M 932.2222222222222 450.86228414954826 948.8888888888889 450.86228414954826" /><path stroke-width="2" stroke="red" d="M 965.5555555555555 510 965.5555555555555 449.7265140532326" /><path stroke-width="2" stroke="red" d="M 976.6666666666666 510 976.6666666666666 449.7265140532326" /><path stroke-width="2" stroke="red" d="M 965.5555555555555 449.7265140532326 976.6666666666666 449.7265140532326" /><path stroke-width="2" stroke="red" d="M 715.5555555555555 482.6582756672368 715.5555555555555 449.40773897851807" /><path stroke-width="2" stroke="red" d="M 732.2222222222222 510 732.2222222222222 449.40773897851807" /><path stroke-width="2" stroke="red" d="M 715.5555555555555 449.40773897851807 732.2222222222222 449.40773897851807" /><path stroke-width="2" stroke="blue" d="M 176.66666666666666 510 176.66666666666666 446.5859058261602" /><path stroke-width="2" stroke="blue" d="M 193.33333333333331 478.6219922155286 193.33333333333331 446.5859058261602" /><path stroke-width="2" stroke="blue" d="M 176.66666666666666 446.5859058261602 193.33333333333331 446.5859058261602" /><path stroke-width="2" stroke="blue" d="M 237.77777777777777 471.2852848304058 237.77777777777777 445.1118071657804" /><path stroke-width="2" stroke="blue" d="M 260.0 488.663900073107 260.0 445.1118071657804" /><path stroke-width="2" stroke="blue" d="M 237.77777777777777 445.1118071657804 260.0 445.1118071657804" /><path stroke-width="2" stroke="blue" d="M 543.3333333333333 510 543.3333333333333 445.0121380589493" /><path stroke-width="2" stroke="blue" d="M 554.4444444444445 510 554.4444444444445 445.0121380589493" /><path stroke-width="2" stroke="blue" d="M 543.3333333333333 445.0121380589493 554.4444444444445 445.0121380589493" /><path stroke-width="2" stroke="blue" d="M 143.33333333333331 510 143.33333333333331 440.6921910966406" /><path stroke-width="2" stroke="blue" d="M 154.44444444444443 510 154.44444444444443 440.6921910966406" /><path stroke-width="2" stroke="blue" d="M 143.33333333333331 440.6921910966406 154.44444444444443 440.6921910966406" /><path stroke-width="2" stroke="blue" d="M 380.8333333333333 452.900661355548 380.8333333333333 440.02062510160295" /><path stroke-width="2" stroke="blue" d="M 410.0 510 410.0 440.02062510160295" /><path stroke-width="2" stroke="blue" d="M 380.8333333333333 440.02062510160295 410.0 440.02062510160295" /><path stroke-width="2" stroke="red" d="M 826.6666666666666 470.88127983483884 826.6666666666666 437.5119740253492" /><path stroke-width="2" stroke="red" d="M 843.3333333333333 510 843.3333333333333 437.5119740253492" /><path stroke-width="2" stroke="red" d="M 826.6666666666666 437.5119740253492 843.3333333333333 437.5119740253492" /><path stroke-width="2" stroke="blue" d="M 93.33333333333333 457.1095106334765 93.33333333333333 436.9699933089075" /><path stroke-width="2" stroke="blue" d="M 118.33333333333334 473.99921613454484 118.33333333333334 436.9699933089075" /><path stroke-width="2" stroke="blue" d="M 93.33333333333333 436.9699933089075 118.33333333333334 436.9699933089075" /><path stroke-width="2" stroke="blue" d="M 510.0 510 510.0 435.7118445552497" /><path stroke-width="2" stroke="blue" d="M 521.1111111111111 510 521.1111111111111 435.7118445552497" /><path stroke-width="2" stroke="blue" d="M 510.0 435.7118445552497 521.1111111111111 435.7118445552497" /><path stroke-width="2" stroke="red" d="M 748.8888888888889 457.3510551111315 748.8888888888889 429.4648789198357" /><path stroke-width="2" stroke="red" d="M 771.1111111111111 458.62562605461653 771.1111111111111 429.4648789198357" /><path stroke-width="2" stroke="red" d="M 748.8888888888889 429.4648789198357 771.1111111111111 429.4648789198357" /><path stroke-width="2" stroke="blue" d="M 65.55555555555556 510 65.55555555555556 429.3555982972272" /><path stroke-width="2" stroke="blue" d="M 76.66666666666666 510 76.66666666666666 429.3555982972272" /><path stroke-width="2" stroke="blue" d="M 65.55555555555556 429.3555982972272 76.66666666666666 429.3555982972272" /><path stroke-width="2" stroke="red" d="M 854.4444444444445 510 854.4444444444445 424.72705921502575" /><path stroke-width="2" stroke="red" d="M 865.5555555555555 510 865.5555555555555 424.72705921502575" /><path stroke-width="2" stroke="red" d="M 854.4444444444445 424.72705921502575 865.5555555555555 424.72705921502575" /><path stroke-width="2" stroke="blue" d="M 548.8888888888889 445.0121380589493 548.8888888888889 424.06172516656665" /><path stroke-width="2" stroke="blue" d="M 565.5555555555555 510 565.5555555555555 424.06172516656665" /><path stroke-width="2" stroke="blue" d="M 548.8888888888889 424.06172516656665 565.5555555555555 424.06172516656665" /><path stroke-width="2" stroke="blue" d="M 282.2222222222222 456.22169775104464 282.2222222222222 422.0183059040624" /><path stroke-width="2" stroke="blue" d="M 298.88888888888886 510 298.88888888888886 422.0183059040624" /><path stroke-width="2" stroke="blue" d="M 282.2222222222222 422.0183059040624 298.88888888888886 422.0183059040624" /><path stroke-width="2" stroke="red" d="M 971.1111111111111 449.7265140532326 971.1111111111111 404.86704929969284" /><path stroke-width="2" stroke="red" d="M 993.3333333333333 497.8979709240193 993.3333333333333 404.86704929969284" /><path stroke-width="2" stroke="red" d="M 971.1111111111111 404.86704929969284 993.3333333333333 404.86704929969284" /><path stroke-width="2" stroke="blue" d="M 323.8888888888889 469.70132381910395 323.8888888888889 402.58361477859717" /><path stroke-width="2" stroke="blue" d="M 343.3333333333333 510 343.3333333333333 402.58361477859717" /><path stroke-width="2" stroke="blue" d="M 323.8888888888889 402.58361477859717 343.3333333333333 402.58361477859717" /><path stroke-width="2" stroke="blue" d="M 185.0 446.5859058261602 185.0 390.0523324728439" /><path stroke-width="2" stroke="blue" d="M 210.0 510 210.0 390.0523324728439" /><path stroke-width="2" stroke="blue" d="M 185.0 390.0523324728439 210.0 390.0523324728439" /><path stroke-width="2" stroke="red" d="M 796.1111111111111 483.87992785096117 796.1111111111111 384.51619327928705" /><path stroke-width="2" stroke="red" d="M 835.0 437.5119740253492 835.0 384.51619327928705" /><path stroke-width="2" stroke="red" d="M 796.1111111111111 384.51619327928705 835.0 384.51619327928705" /><path stroke-width="2" stroke="blue" d="M 479.44444444444446 466.4510604301488 479.44444444444446 384.33273194097296" /><path stroke-width="2" stroke="blue" d="M 498.88888888888886 510 498.88888888888886 384.33273194097296" /><path stroke-width="2" stroke="blue" d="M 479.44444444444446 384.33273194097296 498.88888888888886 384.33273194097296" /><path stroke-width="2" stroke="blue" d="M 435.0 480.09295244048326 435.0 383.21515558397584" /><path stroke-width="2" stroke="blue" d="M 454.44444444444446 510 454.44444444444446 383.21515558397584" /><path stroke-width="2" stroke="blue" d="M 435.0 383.21515558397584 454.44444444444446 383.21515558397584" /><path stroke-width="2" stroke="red" d="M 860.0 424.72705921502575 860.0 382.793509063445" /><path stroke-width="2" stroke="red" d="M 876.6666666666666 510 876.6666666666666 382.793509063445" /><path stroke-width="2" stroke="red" d="M 860.0 382.793509063445 876.6666666666666 382.793509063445" /><path stroke-width="2" stroke="red" d="M 901.6666666666666 464.8879311893552 901.6666666666666 377.1009708145381" /><path stroke-width="2" stroke="red" d="M 921.1111111111111 510 921.1111111111111 377.1009708145381" /><path stroke-width="2" stroke="red" d="M 901.6666666666666 377.1009708145381 921.1111111111111 377.1009708145381" /><path stroke-width="2" stroke="blue" d="M 71.11111111111111 429.3555982972272 71.11111111111111 368.9870527277966" /><path stroke-width="2" stroke="blue" d="M 105.83333333333334 436.9699933089075 105.83333333333334 368.9870527277966" /><path stroke-width="2" stroke="blue" d="M 71.11111111111111 368.9870527277966 105.83333333333334 368.9870527277966" /><path stroke-width="2" stroke="blue" d="M 515.5555555555555 435.7118445552497 515.5555555555555 368.5183603246044" /><path stroke-width="2" stroke="blue" d="M 532.2222222222222 510 532.2222222222222 368.5183603246044" /><path stroke-width="2" stroke="blue" d="M 515.5555555555555 368.5183603246044 532.2222222222222 368.5183603246044" /><path stroke-width="2" stroke="red" d="M 815.5555555555555 384.51619327928705 815.5555555555555 361.64586749303373" /><path stroke-width="2" stroke="red" d="M 868.3333333333333 382.793509063445 868.3333333333333 361.64586749303373" /><path stroke-width="2" stroke="red" d="M 815.5555555555555 361.64586749303373 868.3333333333333 361.64586749303373" /><path stroke-width="2" stroke="red" d="M 687.7777777777777 510 687.7777777777777 360.94400740981905" /><path stroke-width="2" stroke="red" d="M 698.8888888888889 510 698.8888888888889 360.94400740981905" /><path stroke-width="2" stroke="red" d="M 687.7777777777777 360.94400740981905 698.8888888888889 360.94400740981905" /><path stroke-width="2" stroke="blue" d="M 221.11111111111111 510 221.11111111111111 349.9761646586672" /><path stroke-width="2" stroke="blue" d="M 248.88888888888889 445.1118071657804 248.88888888888889 349.9761646586672" /><path stroke-width="2" stroke="blue" d="M 221.11111111111111 349.9761646586672 248.88888888888889 349.9761646586672" /><path stroke-width="2" stroke="blue" d="M 444.72222222222223 383.21515558397584 444.72222222222223 347.6269334183771" /><path stroke-width="2" stroke="blue" d="M 489.16666666666663 384.33273194097296 489.16666666666663 347.6269334183771" /><path stroke-width="2" stroke="blue" d="M 444.72222222222223 347.6269334183771 489.16666666666663 347.6269334183771" /><path stroke-width="2" stroke="blue" d="M 165.55555555555554 510 165.55555555555554 343.593567299245" /><path stroke-width="2" stroke="blue" d="M 197.5 390.0523324728439 197.5 343.593567299245" /><path stroke-width="2" stroke="blue" d="M 165.55555555555554 343.593567299245 197.5 343.593567299245" /><path stroke-width="2" stroke="red" d="M 911.3888888888889 377.1009708145381 911.3888888888889 339.9248042657855" /><path stroke-width="2" stroke="red" d="M 940.5555555555555 450.86228414954826 940.5555555555555 339.9248042657855" /><path stroke-width="2" stroke="red" d="M 911.3888888888889 339.9248042657855 940.5555555555555 339.9248042657855" /><path stroke-width="2" stroke="red" d="M 693.3333333333333 360.94400740981905 693.3333333333333 329.8075291978374" /><path stroke-width="2" stroke="red" d="M 723.8888888888889 449.40773897851807 723.8888888888889 329.8075291978374" /><path stroke-width="2" stroke="red" d="M 693.3333333333333 329.8075291978374 723.8888888888889 329.8075291978374" /><path stroke-width="2" stroke="blue" d="M 615.2083333333333 458.3928504645295 615.2083333333333 320.1497268768529" /><path stroke-width="2" stroke="blue" d="M 668.3333333333333 451.5453823304566 668.3333333333333 320.1497268768529" /><path stroke-width="2" stroke="blue" d="M 615.2083333333333 320.1497268768529 668.3333333333333 320.1497268768529" /><path stroke-width="2" stroke="blue" d="M 148.88888888888886 440.6921910966406 148.88888888888886 320.05634572864324" /><path stroke-width="2" stroke="blue" d="M 181.52777777777777 343.593567299245 181.52777777777777 320.05634572864324" /><path stroke-width="2" stroke="blue" d="M 148.88888888888886 320.05634572864324 181.52777777777777 320.05634572864324" /><path stroke-width="2" stroke="red" d="M 925.9722222222222 339.9248042657855 925.9722222222222 317.32926517126214" /><path stroke-width="2" stroke="red" d="M 982.2222222222222 404.86704929969284 982.2222222222222 317.32926517126214" /><path stroke-width="2" stroke="red" d="M 925.9722222222222 317.32926517126214 982.2222222222222 317.32926517126214" /><path stroke-width="2" stroke="blue" d="M 26.666666666666664 456.87343280031246 26.666666666666664 307.1969896182817" /><path stroke-width="2" stroke="blue" d="M 54.44444444444444 510 54.44444444444444 307.1969896182817" /><path stroke-width="2" stroke="blue" d="M 26.666666666666664 307.1969896182817 54.44444444444444 307.1969896182817" /><path stroke-width="2" stroke="red" d="M 708.6111111111111 329.8075291978374 708.6111111111111 307.0102137942417" /><path stroke-width="2" stroke="red" d="M 760.0 429.4648789198357 760.0 307.0102137942417" /><path stroke-width="2" stroke="red" d="M 708.6111111111111 307.0102137942417 760.0 307.0102137942417" /><path stroke-width="2" stroke="red" d="M 734.3055555555555 307.0102137942417 734.3055555555555 288.9252365449535" /><path stroke-width="2" stroke="red" d="M 841.9444444444443 361.64586749303373 841.9444444444443 288.9252365449535" /><path stroke-width="2" stroke="red" d="M 734.3055555555555 288.9252365449535 841.9444444444443 288.9252365449535" /><path stroke-width="2" stroke="blue" d="M 235.0 349.9761646586672 235.0 288.5332066293264" /><path stroke-width="2" stroke="blue" d="M 290.55555555555554 422.0183059040624 290.55555555555554 288.5332066293264" /><path stroke-width="2" stroke="blue" d="M 235.0 288.5332066293264 290.55555555555554 288.5332066293264" /><path stroke-width="2" stroke="blue" d="M 523.8888888888889 368.5183603246044 523.8888888888889 284.7062781309098" /><path stroke-width="2" stroke="blue" d="M 557.2222222222222 424.06172516656665 557.2222222222222 284.7062781309098" /><path stroke-width="2" stroke="blue" d="M 523.8888888888889 284.7062781309098 557.2222222222222 284.7062781309098" /><path stroke-width="2" stroke="blue" d="M 333.6111111111111 402.58361477859717 333.6111111111111 276.80097650399784" /><path stroke-width="2" stroke="blue" d="M 395.41666666666663 440.02062510160295 395.41666666666663 276.80097650399784" /><path stroke-width="2" stroke="blue" d="M 333.6111111111111 276.80097650399784 395.41666666666663 276.80097650399784" /><path stroke-width="2" stroke="blue" d="M 40.55555555555556 307.1969896182817 40.55555555555556 260.65377774655474" /><path stroke-width="2" stroke="blue" d="M 88.47222222222223 368.9870527277966 88.47222222222223 260.65377774655474" /><path stroke-width="2" stroke="blue" d="M 40.55555555555556 260.65377774655474 88.47222222222223 260.65377774655474" /><path stroke-width="2" stroke="blue" d="M 540.5555555555555 284.7062781309098 540.5555555555555 241.40606348466002" /><path stroke-width="2" stroke="blue" d="M 641.7708333333333 320.1497268768529 641.7708333333333 241.40606348466002" /><path stroke-width="2" stroke="blue" d="M 540.5555555555555 241.40606348466002 641.7708333333333 241.40606348466002" /><path stroke-width="2" stroke="blue" d="M 64.51388888888889 260.65377774655474 64.51388888888889 233.36015048004435" /><path stroke-width="2" stroke="blue" d="M 165.20833333333331 320.05634572864324 165.20833333333331 233.36015048004435" /><path stroke-width="2" stroke="blue" d="M 64.51388888888889 233.36015048004435 165.20833333333331 233.36015048004435" /><path stroke-width="2" stroke="blue" d="M 364.51388888888886 276.80097650399784 364.51388888888886 229.1188726595223" /><path stroke-width="2" stroke="blue" d="M 466.94444444444446 347.6269334183771 466.94444444444446 229.1188726595223" /><path stroke-width="2" stroke="blue" d="M 364.51388888888886 229.1188726595223 466.94444444444446 229.1188726595223" /><path stroke-width="2" stroke="blue" d="M 114.8611111111111 233.36015048004435 114.8611111111111 211.78174242305658" /><path stroke-width="2" stroke="blue" d="M 262.77777777777777 288.5332066293264 262.77777777777777 211.78174242305658" /><path stroke-width="2" stroke="blue" d="M 114.8611111111111 211.78174242305658 262.77777777777777 211.78174242305658" /><path stroke-width="2" stroke="blue" d="M 188.81944444444443 211.78174242305658 188.81944444444443 173.53625470807998" /><path stroke-width="2" stroke="blue" d="M 415.72916666666663 229.1188726595223 415.72916666666663 173.53625470807998" /><path stroke-width="2" stroke="blue" d="M 188.81944444444443 173.53625470807998 415.72916666666663 173.53625470807998" /><path stroke-width="2" stroke="red" d="M 788.125 288.9252365449535 788.125 147.7183198620031" /><path stroke-width="2" stroke="red" d="M 954.0972222222222 317.32926517126214 954.0972222222222 147.7183198620031" /><path stroke-width="2" stroke="red" d="M 788.125 147.7183198620031 954.0972222222222 147.7183198620031" /><path stroke-width="2" stroke="blue" d="M 302.27430555555554 173.53625470807998 302.27430555555554 74.56878854265852" /><path stroke-width="2" stroke="blue" d="M 591.1631944444443 241.40606348466002 591.1631944444443 74.56878854265852" /><path stroke-width="2" stroke="blue" d="M 302.27430555555554 74.56878854265852 591.1631944444443 74.56878854265852" /><path stroke-width="2" stroke="black" d="M 446.71874999999994 74.56878854265852 446.71874999999994 10.000000000000057" /><path stroke-width="2" stroke="black" d="M 871.1111111111111 147.7183198620031 871.1111111111111 10.000000000000057" /><path stroke-width="2" stroke="black" d="M 446.71874999999994 10.000000000000057 871.1111111111111 10.000000000000057" /></svg>