<svg width="1020" height="591.0"  xmlns="http://www.w3.org/2000/svg"><text x="827.9166666666666" y="515"  transform="rotate(60, 827.9166666666666, 515)" font-size="12">china</text><text x="994.5833333333333" y="515"  transform="rotate(60, 994.5833333333333, 515)" font-size="12">coronavirus</text><text x="859.1666666666666" y="515"  transform="rotate(60, 859.1666666666666, 515)" font-size="12">novel</text><text x="869.5833333333333" y="515"  transform="rotate(60, 869.5833333333333, 515)" font-size="12">outbreak</text><text x="473.75" y="515"  transform="rotate(60, 473.75, 515)" font-size="12">president</text><text x="265.41666666666663" y="515"  transform="rotate(60, 265.41666666666663, 515)" font-size="12">global</text><text x="463.3333333333333" y="515"  transform="rotate(60, 463.3333333333333, 515)" font-size="12">trump</text><text x="557.0833333333333" y="515"  transform="rotate(60, 557.0833333333333, 515)" font-size="12">say</text><text x="244.58333333333331" y="515"  transform="rotate(60, 244.58333333333331, 515)" font-size="12">covid</text><text x="234.16666666666666" y="515"  transform="rotate(60, 234.16666666666666, 515)" font-size="12">vaccine</text><text x="494.5833333333333" y="515"  transform="rotate(60, 494.5833333333333, 515)" font-size="12">house</text><text x="88.33333333333333" y="515"  transform="rotate(60, 88.33333333333333, 515)" font-size="12">people</text><text x="255.0" y="515"  transform="rotate(60, 255.0, 515)" font-size="12">world</text><text x="952.9166666666666" y="515"  transform="rotate(60, 952.9166666666666, 515)" font-size="12">medical</text><text x="359.16666666666663" y="515"  transform="rotate(60, 359.16666666666663, 515)" font-size="12">first</text><text x="963.3333333333333" y="515"  transform="rotate(60, 963.3333333333333, 515)" font-size="12">virus</text><text x="775.8333333333333" y="515"  transform="rotate(60, 775.8333333333333, 515)" font-size="12">case</text><text x="421.66666666666663" y="515"  transform="rotate(60, 421.66666666666663, 515)" font-size="12">test</text><text x="432.0833333333333" y="515"  transform="rotate(60, 432.0833333333333, 515)" font-size="12">positive</text><text x="161.25" y="515"  transform="rotate(60, 161.25, 515)" font-size="12">data</text><text x="98.75" y="515"  transform="rotate(60, 98.75, 515)" font-size="12">million</text><text x="786.25" y="515"  transform="rotate(60, 786.25, 515)" font-size="12">death</text><text x="630.0" y="515"  transform="rotate(60, 630.0, 515)" font-size="12">accord</text><text x="734.1666666666666" y="515"  transform="rotate(60, 734.1666666666666, 515)" font-size="12">new</text><text x="130.0" y="515"  transform="rotate(60, 130.0, 515)" font-size="12">show</text><text x="150.83333333333331" y="515"  transform="rotate(60, 150.83333333333331, 515)" font-size="12">trial</text><text x="619.5833333333333" y="515"  transform="rotate(60, 619.5833333333333, 515)" font-size="12">state</text><text x="57.08333333333333" y="515"  transform="rotate(60, 57.08333333333333, 515)" font-size="12">make</text><text x="577.9166666666666" y="515"  transform="rotate(60, 577.9166666666666, 515)" font-size="12">expert</text><text x="327.91666666666663" y="515"  transform="rotate(60, 327.91666666666663, 515)" font-size="12">pandemic</text><text x="525.8333333333333" y="515"  transform="rotate(60, 525.8333333333333, 515)" font-size="12">disease</text><text x="411.25" y="515"  transform="rotate(60, 411.25, 515)" font-size="12">take</text><text x="286.25" y="515"  transform="rotate(60, 286.25, 515)" font-size="12">health</text><text x="765.4166666666666" y="515"  transform="rotate(60, 765.4166666666666, 515)" font-size="12">confirm</text><text x="442.5" y="515"  transform="rotate(60, 442.5, 515)" font-size="12">ship</text><text x="296.66666666666663" y="515"  transform="rotate(60, 296.66666666666663, 515)" font-size="12">country</text><text x="380.0" y="515"  transform="rotate(60, 380.0, 515)" font-size="12">since</text><text x="973.75" y="515"  transform="rotate(60, 973.75, 515)" font-size="12">late</text><text x="848.75" y="515"  transform="rotate(60, 848.75, 515)" font-size="12">hubei</text><text x="838.3333333333333" y="515"  transform="rotate(60, 838.3333333333333, 515)" font-size="12">province</text><text x="900.8333333333333" y="515"  transform="rotate(60, 900.8333333333333, 515)" font-size="12">hospital</text><text x="932.0833333333333" y="515"  transform="rotate(60, 932.0833333333333, 515)" font-size="12">help</text><text x="942.5" y="515"  transform="rotate(60, 942.5, 515)" font-size="12">fight</text><text x="671.6666666666666" y="515"  transform="rotate(60, 671.6666666666666, 515)" font-size="12">risk</text><text x="880.0" y="515"  transform="rotate(60, 880.0, 515)" font-size="12">amid</text><text x="744.5833333333333" y="515"  transform="rotate(60, 744.5833333333333, 515)" font-size="12">number</text><text x="390.41666666666663" y="515"  transform="rotate(60, 390.41666666666663, 515)" font-size="12">day</text><text x="317.5" y="515"  transform="rotate(60, 317.5, 515)" font-size="12">minister</text><text x="15.416666666666664" y="515"  transform="rotate(60, 15.416666666666664, 515)" font-size="12">mask</text><text x="515.4166666666666" y="515"  transform="rotate(60, 515.4166666666666, 515)" font-size="12">official</text><text x="640.4166666666666" y="515"  transform="rotate(60, 640.4166666666666, 515)" font-size="12">daily</text><text x="536.25" y="515"  transform="rotate(60, 536.25, 515)" font-size="12">control</text><text x="609.1666666666666" y="515"  transform="rotate(60, 609.1666666666666, 515)" font-size="12">week</text><text x="755.0" y="515"  transform="rotate(60, 755.0, 515)" font-size="12">total</text><text x="46.666666666666664" y="515"  transform="rotate(60, 46.666666666666664, 515)" font-size="12">back</text><text x="36.25" y="515"  transform="rotate(60, 36.25, 515)" font-size="12">work</text><text x="400.8333333333333" y="515"  transform="rotate(60, 400.8333333333333, 515)" font-size="12">one</text><text x="67.5" y="515"  transform="rotate(60, 67.5, 515)" font-size="12">get</text><text x="275.8333333333333" y="515"  transform="rotate(60, 275.8333333333333, 515)" font-size="12">national</text><text x="682.0833333333333" y="515"  transform="rotate(60, 682.0833333333333, 515)" font-size="12">high</text><text x="171.66666666666666" y="515"  transform="rotate(60, 171.66666666666666, 515)" font-size="12">use</text><text x="890.4166666666666" y="515"  transform="rotate(60, 890.4166666666666, 515)" font-size="12">city</text><text x="307.0833333333333" y="515"  transform="rotate(60, 307.0833333333333, 515)" font-size="12">second</text><text x="338.3333333333333" y="515"  transform="rotate(60, 338.3333333333333, 515)" font-size="12">due</text><text x="546.6666666666666" y="515"  transform="rotate(60, 546.6666666666666, 515)" font-size="12">may</text><text x="921.6666666666666" y="515"  transform="rotate(60, 921.6666666666666, 515)" font-size="12">infect</text><text x="5.0" y="515"  transform="rotate(60, 5.0, 515)" font-size="12">see</text><text x="911.25" y="515"  transform="rotate(60, 911.25, 515)" font-size="12">patient</text><text x="984.1666666666666" y="515"  transform="rotate(60, 984.1666666666666, 515)" font-size="12">spread</text><text x="348.75" y="515"  transform="rotate(60, 348.75, 515)" font-size="12">year</text><text x="723.75" y="515"  transform="rotate(60, 723.75, 515)" font-size="12">report</text><text x="796.6666666666666" y="515"  transform="rotate(60, 796.6666666666666, 515)" font-size="12">toll</text><text x="692.5" y="515"  transform="rotate(60, 692.5, 515)" font-size="12">infection</text><text x="567.5" y="515"  transform="rotate(60, 567.5, 515)" font-size="12">could</text><text x="119.58333333333333" y="515"  transform="rotate(60, 119.58333333333333, 515)" font-size="12">receive</text><text x="77.91666666666666" y="515"  transform="rotate(60, 77.91666666666666, 515)" font-size="12">government</text><text x="452.91666666666663" y="515"  transform="rotate(60, 452.91666666666663, 515)" font-size="12">quarantine</text><text x="505.0" y="515"  transform="rotate(60, 505.0, 515)" font-size="12">top</text><text x="598.75" y="515"  transform="rotate(60, 598.75, 515)" font-size="12">month</text><text x="588.3333333333333" y="515"  transform="rotate(60, 588.3333333333333, 515)" font-size="12">two</text><text x="25.833333333333332" y="515"  transform="rotate(60, 25.833333333333332, 515)" font-size="12">public</text><text x="182.08333333333331" y="515"  transform="rotate(60, 182.08333333333331, 515)" font-size="12">emergency</text><text x="369.5833333333333" y="515"  transform="rotate(60, 369.5833333333333, 515)" font-size="12">time</text><text x="807.0833333333333" y="515"  transform="rotate(60, 807.0833333333333, 515)" font-size="12">rise</text><text x="817.5" y="515"  transform="rotate(60, 817.5, 515)" font-size="12">travel</text><text x="140.41666666666666" y="515"  transform="rotate(60, 140.41666666666666, 515)" font-size="12">study</text><text x="661.25" y="515"  transform="rotate(60, 661.25, 515)" font-size="12">hit</text><text x="650.8333333333333" y="515"  transform="rotate(60, 650.8333333333333, 515)" font-size="12">record</text><text x="109.16666666666666" y="515"  transform="rotate(60, 109.16666666666666, 515)" font-size="12">dos</text><text x="223.75" y="515"  transform="rotate(60, 223.75, 515)" font-size="12">shot</text><text x="484.16666666666663" y="515"  transform="rotate(60, 484.16666666666663, 515)" font-size="12">white</text><text x="702.9166666666666" y="515"  transform="rotate(60, 702.9166666666666, 515)" font-size="12">surge</text><text x="713.3333333333333" y="515"  transform="rotate(60, 713.3333333333333, 515)" font-size="12">india</text><text x="202.91666666666666" y="515"  transform="rotate(60, 202.91666666666666, 515)" font-size="12">blood</text><text x="213.33333333333331" y="515"  transform="rotate(60, 213.33333333333331, 515)" font-size="12">clot</text><text x="192.5" y="515"  transform="rotate(60, 192.5, 515)" font-size="12">johnson</text><path stroke-width="2" stroke="orange" d="M 207.91666666666666 510 207.91666666666666 502.40298289288654" /><path stroke-width="2" stroke="orange" d="M 218.33333333333331 510 218.33333333333331 502.40298289288654" /><path stroke-width="2" stroke="orange" d="M 207.91666666666666 502.40298289288654 218.33333333333331 502.40298289288654" /><path stroke-width="2" stroke="blue" d="M 843.3333333333333 510 843.3333333333333 494.0447132705093" /><path stroke-width="2" stroke="blue" d="M 853.75 510 853.75 494.0447132705093" /><path stroke-width="2" stroke="blue" d="M 843.3333333333333 494.0447132705093 853.75 494.0447132705093" /><path stroke-width="2" stroke="green" d="M 489.16666666666663 510 489.16666666666663 493.1940295886094" /><path stroke-width="2" stroke="green" d="M 499.5833333333333 510 499.5833333333333 493.1940295886094" /><path stroke-width="2" stroke="green" d="M 489.16666666666663 493.1940295886094 499.5833333333333 493.1940295886094" /><path stroke-width="2" stroke="green" d="M 447.5 510 447.5 491.78858058257396" /><path stroke-width="2" stroke="green" d="M 457.91666666666663 510 457.91666666666663 491.78858058257396" /><path stroke-width="2" stroke="green" d="M 447.5 491.78858058257396 457.91666666666663 491.78858058257396" /><path stroke-width="2" stroke="green" d="M 530.8333333333333 510 530.8333333333333 484.7041959102317" /><path stroke-width="2" stroke="green" d="M 541.25 510 541.25 484.7041959102317" /><path stroke-width="2" stroke="green" d="M 530.8333333333333 484.7041959102317 541.25 484.7041959102317" /><path stroke-width="2" stroke="orange" d="M 176.66666666666666 510 176.66666666666666 480.49218065079975" /><path stroke-width="2" stroke="orange" d="M 187.08333333333331 510 187.08333333333331 480.49218065079975" /><path stroke-width="2" stroke="orange" d="M 176.66666666666666 480.49218065079975 187.08333333333331 480.49218065079975" /><path stroke-width="2" stroke="blue" d="M 905.8333333333333 510 905.8333333333333 480.04238502922937" /><path stroke-width="2" stroke="blue" d="M 916.25 510 916.25 480.04238502922937" /><path stroke-width="2" stroke="blue" d="M 905.8333333333333 480.04238502922937 916.25 480.04238502922937" /><path stroke-width="2" stroke="orange" d="M 103.75 510 103.75 475.1144504269097" /><path stroke-width="2" stroke="orange" d="M 114.16666666666666 510 114.16666666666666 475.1144504269097" /><path stroke-width="2" stroke="orange" d="M 103.75 475.1144504269097 114.16666666666666 475.1144504269097" /><path stroke-width="2" stroke="green" d="M 426.66666666666663 510 426.66666666666663 472.67377980679584" /><path stroke-width="2" stroke="green" d="M 437.0833333333333 510 437.0833333333333 472.67377980679584" /><path stroke-width="2" stroke="green" d="M 426.66666666666663 472.67377980679584 437.0833333333333 472.67377980679584" /><path stroke-width="2" stroke="red" d="M 791.25 510 791.25 471.8552614716292" /><path stroke-width="2" stroke="red" d="M 801.6666666666666 510 801.6666666666666 471.8552614716292" /><path stroke-width="2" stroke="red" d="M 791.25 471.8552614716292 801.6666666666666 471.8552614716292" /><path stroke-width="2" stroke="orange" d="M 197.5 510 197.5 470.57265050232485" /><path stroke-width="2" stroke="orange" d="M 213.125 502.40298289288654 213.125 470.57265050232485" /><path stroke-width="2" stroke="orange" d="M 197.5 470.57265050232485 213.125 470.57265050232485" /><path stroke-width="2" stroke="orange" d="M 155.83333333333331 510 155.83333333333331 469.8046185359684" /><path stroke-width="2" stroke="orange" d="M 166.25 510 166.25 469.8046185359684" /><path stroke-width="2" stroke="orange" d="M 155.83333333333331 469.8046185359684 166.25 469.8046185359684" /><path stroke-width="2" stroke="red" d="M 645.4166666666666 510 645.4166666666666 468.136395822037" /><path stroke-width="2" stroke="red" d="M 655.8333333333333 510 655.8333333333333 468.136395822037" /><path stroke-width="2" stroke="red" d="M 645.4166666666666 468.136395822037 655.8333333333333 468.136395822037" /><path stroke-width="2" stroke="green" d="M 468.3333333333333 510 468.3333333333333 461.7694375967267" /><path stroke-width="2" stroke="green" d="M 478.75 510 478.75 461.7694375967267" /><path stroke-width="2" stroke="green" d="M 468.3333333333333 461.7694375967267 478.75 461.7694375967267" /><path stroke-width="2" stroke="red" d="M 749.5833333333333 510 749.5833333333333 456.5882579075775" /><path stroke-width="2" stroke="red" d="M 760.0 510 760.0 456.5882579075775" /><path stroke-width="2" stroke="red" d="M 749.5833333333333 456.5882579075775 760.0 456.5882579075775" /><path stroke-width="2" stroke="orange" d="M 205.3125 470.57265050232485 205.3125 455.22200127095846" /><path stroke-width="2" stroke="orange" d="M 228.75 510 228.75 455.22200127095846" /><path stroke-width="2" stroke="orange" d="M 205.3125 455.22200127095846 228.75 455.22200127095846" /><path stroke-width="2" stroke="red" d="M 707.9166666666666 510 707.9166666666666 452.15729939587453" /><path stroke-width="2" stroke="red" d="M 718.3333333333333 510 718.3333333333333 452.15729939587453" /><path stroke-width="2" stroke="red" d="M 707.9166666666666 452.15729939587453 718.3333333333333 452.15729939587453" /><path stroke-width="2" stroke="orange" d="M 135.0 510 135.0 449.83521665566155" /><path stroke-width="2" stroke="orange" d="M 145.41666666666666 510 145.41666666666666 449.83521665566155" /><path stroke-width="2" stroke="orange" d="M 135.0 449.83521665566155 145.41666666666666 449.83521665566155" /><path stroke-width="2" stroke="red" d="M 676.6666666666666 510 676.6666666666666 444.9936016046104" /><path stroke-width="2" stroke="red" d="M 687.0833333333333 510 687.0833333333333 444.9936016046104" /><path stroke-width="2" stroke="red" d="M 676.6666666666666 444.9936016046104 687.0833333333333 444.9936016046104" /><path stroke-width="2" stroke="blue" d="M 937.0833333333333 510 937.0833333333333 444.4184990598267" /><path stroke-width="2" stroke="blue" d="M 947.5 510 947.5 444.4184990598267" /><path stroke-width="2" stroke="blue" d="M 937.0833333333333 444.4184990598267 947.5 444.4184990598267" /><path stroke-width="2" stroke="blue" d="M 911.0416666666666 480.04238502922937 911.0416666666666 441.40901295763683" /><path stroke-width="2" stroke="blue" d="M 926.6666666666666 510 926.6666666666666 441.40901295763683" /><path stroke-width="2" stroke="blue" d="M 911.0416666666666 441.40901295763683 926.6666666666666 441.40901295763683" /><path stroke-width="2" stroke="purple" d="M 20.416666666666664 510 20.416666666666664 439.53388741184517" /><path stroke-width="2" stroke="purple" d="M 30.833333333333332 510 30.833333333333332 439.53388741184517" /><path stroke-width="2" stroke="purple" d="M 20.416666666666664 439.53388741184517 30.833333333333332 439.53388741184517" /><path stroke-width="2" stroke="blue" d="M 942.2916666666666 444.4184990598267 942.2916666666666 436.67413812865937" /><path stroke-width="2" stroke="blue" d="M 957.9166666666666 510 957.9166666666666 436.67413812865937" /><path stroke-width="2" stroke="blue" d="M 942.2916666666666 436.67413812865937 957.9166666666666 436.67413812865937" /><path stroke-width="2" stroke="blue" d="M 978.75 510 978.75 436.38246421926584" /><path stroke-width="2" stroke="blue" d="M 989.1666666666666 510 989.1666666666666 436.38246421926584" /><path stroke-width="2" stroke="blue" d="M 978.75 436.38246421926584 989.1666666666666 436.38246421926584" /><path stroke-width="2" stroke="blue" d="M 874.5833333333333 510 874.5833333333333 434.25256261192794" /><path stroke-width="2" stroke="blue" d="M 885.0 510 885.0 434.25256261192794" /><path stroke-width="2" stroke="blue" d="M 874.5833333333333 434.25256261192794 885.0 434.25256261192794" /><path stroke-width="2" stroke="green" d="M 473.54166666666663 461.7694375967267 473.54166666666663 434.08529416218585" /><path stroke-width="2" stroke="green" d="M 494.375 493.1940295886094 494.375 434.08529416218585" /><path stroke-width="2" stroke="green" d="M 473.54166666666663 434.08529416218585 494.375 434.08529416218585" /><path stroke-width="2" stroke="purple" d="M 41.25 510 41.25 433.1336606241715" /><path stroke-width="2" stroke="purple" d="M 51.666666666666664 510 51.666666666666664 433.1336606241715" /><path stroke-width="2" stroke="purple" d="M 41.25 433.1336606241715 51.666666666666664 433.1336606241715" /><path stroke-width="2" stroke="blue" d="M 848.5416666666666 494.0447132705093 848.5416666666666 429.03444368656847" /><path stroke-width="2" stroke="blue" d="M 864.1666666666666 510 864.1666666666666 429.03444368656847" /><path stroke-width="2" stroke="blue" d="M 848.5416666666666 429.03444368656847 864.1666666666666 429.03444368656847" /><path stroke-width="2" stroke="yellow" d="M 332.91666666666663 510 332.91666666666663 428.6427543601506" /><path stroke-width="2" stroke="yellow" d="M 343.3333333333333 510 343.3333333333333 428.6427543601506" /><path stroke-width="2" stroke="yellow" d="M 332.91666666666663 428.6427543601506 343.3333333333333 428.6427543601506" /><path stroke-width="2" stroke="green" d="M 431.875 472.67377980679584 431.875 428.48322144150546" /><path stroke-width="2" stroke="green" d="M 452.7083333333333 491.78858058257396 452.7083333333333 428.48322144150546" /><path stroke-width="2" stroke="green" d="M 431.875 428.48322144150546 452.7083333333333 428.48322144150546" /><path stroke-width="2" stroke="green" d="M 510.0 510 510.0 428.0329312311603" /><path stroke-width="2" stroke="green" d="M 520.4166666666666 510 520.4166666666666 428.0329312311603" /><path stroke-width="2" stroke="green" d="M 510.0 428.0329312311603 520.4166666666666 428.0329312311603" /><path stroke-width="2" stroke="fuchsia" d="M 312.0833333333333 510 312.0833333333333 427.69648854252443" /><path stroke-width="2" stroke="fuchsia" d="M 322.5 510 322.5 427.69648854252443" /><path stroke-width="2" stroke="fuchsia" d="M 312.0833333333333 427.69648854252443 322.5 427.69648854252443" /><path stroke-width="2" stroke="yellow" d="M 364.16666666666663 510 364.16666666666663 426.0218375263931" /><path stroke-width="2" stroke="yellow" d="M 374.5833333333333 510 374.5833333333333 426.0218375263931" /><path stroke-width="2" stroke="yellow" d="M 364.16666666666663 426.0218375263931 374.5833333333333 426.0218375263931" /><path stroke-width="2" stroke="red" d="M 770.4166666666666 510 770.4166666666666 423.1594829314338" /><path stroke-width="2" stroke="red" d="M 780.8333333333333 510 780.8333333333333 423.1594829314338" /><path stroke-width="2" stroke="red" d="M 770.4166666666666 423.1594829314338 780.8333333333333 423.1594829314338" /><path stroke-width="2" stroke="orange" d="M 217.03125 455.22200127095846 217.03125 422.8563752990384" /><path stroke-width="2" stroke="orange" d="M 239.16666666666666 510 239.16666666666666 422.8563752990384" /><path stroke-width="2" stroke="orange" d="M 217.03125 422.8563752990384 239.16666666666666 422.8563752990384" /><path stroke-width="2" stroke="orange" d="M 140.20833333333331 449.83521665566155 140.20833333333331 422.4814935551896" /><path stroke-width="2" stroke="orange" d="M 161.04166666666666 469.8046185359684 161.04166666666666 422.4814935551896" /><path stroke-width="2" stroke="orange" d="M 140.20833333333331 422.4814935551896 161.04166666666666 422.4814935551896" /><path stroke-width="2" stroke="olive" d="M 593.3333333333333 510 593.3333333333333 418.78846115555746" /><path stroke-width="2" stroke="olive" d="M 603.75 510 603.75 418.78846115555746" /><path stroke-width="2" stroke="olive" d="M 593.3333333333333 418.78846115555746 603.75 418.78846115555746" /><path stroke-width="2" stroke="red" d="M 697.5 510 697.5 414.6350138473532" /><path stroke-width="2" stroke="red" d="M 713.125 452.15729939587453 713.125 414.6350138473532" /><path stroke-width="2" stroke="red" d="M 697.5 414.6350138473532 713.125 414.6350138473532" /><path stroke-width="2" stroke="fuchsia" d="M 280.8333333333333 510 280.8333333333333 414.07814492669905" /><path stroke-width="2" stroke="fuchsia" d="M 291.25 510 291.25 414.07814492669905" /><path stroke-width="2" stroke="fuchsia" d="M 280.8333333333333 414.07814492669905 291.25 414.07814492669905" /><path stroke-width="2" stroke="fuchsia" d="M 260.0 510 260.0 410.4467760229774" /><path stroke-width="2" stroke="fuchsia" d="M 270.41666666666663 510 270.41666666666663 410.4467760229774" /><path stroke-width="2" stroke="fuchsia" d="M 260.0 410.4467760229774 270.41666666666663 410.4467760229774" /><path stroke-width="2" stroke="red" d="M 650.625 468.136395822037 650.625 408.0557663708176" /><path stroke-width="2" stroke="red" d="M 666.25 510 666.25 408.0557663708176" /><path stroke-width="2" stroke="red" d="M 650.625 408.0557663708176 666.25 408.0557663708176" /><path stroke-width="2" stroke="green" d="M 572.5 510 572.5 403.1289075512287" /><path stroke-width="2" stroke="green" d="M 582.9166666666666 510 582.9166666666666 403.1289075512287" /><path stroke-width="2" stroke="green" d="M 572.5 403.1289075512287 582.9166666666666 403.1289075512287" /><path stroke-width="2" stroke="yellow" d="M 369.375 426.0218375263931 369.375 402.8768554760537" /><path stroke-width="2" stroke="yellow" d="M 385.0 510 385.0 402.8768554760537" /><path stroke-width="2" stroke="yellow" d="M 369.375 402.8768554760537 385.0 402.8768554760537" /><path stroke-width="2" stroke="orange" d="M 108.95833333333333 475.1144504269097 108.95833333333333 402.55084793686075" /><path stroke-width="2" stroke="orange" d="M 124.58333333333333 510 124.58333333333333 402.55084793686075" /><path stroke-width="2" stroke="orange" d="M 108.95833333333333 402.55084793686075 124.58333333333333 402.55084793686075" /><path stroke-width="2" stroke="purple" d="M 62.08333333333333 510 62.08333333333333 400.1442839597195" /><path stroke-width="2" stroke="purple" d="M 72.5 510 72.5 400.1442839597195" /><path stroke-width="2" stroke="purple" d="M 62.08333333333333 400.1442839597195 72.5 400.1442839597195" /><path stroke-width="2" stroke="blue" d="M 822.5 510 822.5 399.18315756458355" /><path stroke-width="2" stroke="blue" d="M 832.9166666666666 510 832.9166666666666 399.18315756458355" /><path stroke-width="2" stroke="blue" d="M 822.5 399.18315756458355 832.9166666666666 399.18315756458355" /><path stroke-width="2" stroke="red" d="M 754.7916666666666 456.5882579075775 754.7916666666666 388.6966477507833" /><path stroke-width="2" stroke="red" d="M 775.625 423.1594829314338 775.625 388.6966477507833" /><path stroke-width="2" stroke="red" d="M 754.7916666666666 388.6966477507833 775.625 388.6966477507833" /><path stroke-width="2" stroke="orange" d="M 181.875 480.49218065079975 181.875 387.20020878311044" /><path stroke-width="2" stroke="orange" d="M 228.09895833333331 422.8563752990384 228.09895833333331 387.20020878311044" /><path stroke-width="2" stroke="orange" d="M 181.875 387.20020878311044 228.09895833333331 387.20020878311044" /><path stroke-width="2" stroke="blue" d="M 827.7083333333333 399.18315756458355 827.7083333333333 384.8420681405168" /><path stroke-width="2" stroke="blue" d="M 856.3541666666666 429.03444368656847 856.3541666666666 384.8420681405168" /><path stroke-width="2" stroke="blue" d="M 827.7083333333333 384.8420681405168 856.3541666666666 384.8420681405168" /><path stroke-width="2" stroke="red" d="M 796.4583333333333 471.8552614716292 796.4583333333333 383.3344380269277" /><path stroke-width="2" stroke="red" d="M 812.0833333333333 510 812.0833333333333 383.3344380269277" /><path stroke-width="2" stroke="red" d="M 796.4583333333333 383.3344380269277 812.0833333333333 383.3344380269277" /><path stroke-width="2" stroke="purple" d="M 46.45833333333333 433.1336606241715 46.45833333333333 383.32625526236683" /><path stroke-width="2" stroke="purple" d="M 67.29166666666666 400.1442839597195 67.29166666666666 383.32625526236683" /><path stroke-width="2" stroke="purple" d="M 46.45833333333333 383.32625526236683 67.29166666666666 383.32625526236683" /><path stroke-width="2" stroke="blue" d="M 842.03125 384.8420681405168 842.03125 375.7659864000568" /><path stroke-width="2" stroke="blue" d="M 879.7916666666666 434.25256261192794 879.7916666666666 375.7659864000568" /><path stroke-width="2" stroke="blue" d="M 842.03125 375.7659864000568 879.7916666666666 375.7659864000568" /><path stroke-width="2" stroke="red" d="M 658.4375 408.0557663708176 658.4375 373.09424384345493" /><path stroke-width="2" stroke="red" d="M 681.875 444.9936016046104 681.875 373.09424384345493" /><path stroke-width="2" stroke="red" d="M 658.4375 373.09424384345493 681.875 373.09424384345493" /><path stroke-width="2" stroke="olive" d="M 598.5416666666666 418.78846115555746 598.5416666666666 370.9799522499869" /><path stroke-width="2" stroke="olive" d="M 614.1666666666666 510 614.1666666666666 370.9799522499869" /><path stroke-width="2" stroke="olive" d="M 598.5416666666666 370.9799522499869 614.1666666666666 370.9799522499869" /><path stroke-width="2" stroke="green" d="M 442.29166666666663 428.48322144150546 442.29166666666663 367.52050220962155" /><path stroke-width="2" stroke="green" d="M 483.9583333333333 434.08529416218585 483.9583333333333 367.52050220962155" /><path stroke-width="2" stroke="green" d="M 442.29166666666663 367.52050220962155 483.9583333333333 367.52050220962155" /><path stroke-width="2" stroke="green" d="M 515.2083333333333 428.0329312311603 515.2083333333333 367.0111950543105" /><path stroke-width="2" stroke="green" d="M 536.0416666666666 484.7041959102317 536.0416666666666 367.0111950543105" /><path stroke-width="2" stroke="green" d="M 515.2083333333333 367.0111950543105 536.0416666666666 367.0111950543105" /><path stroke-width="2" stroke="yellow" d="M 338.125 428.6427543601506 338.125 366.2803855196543" /><path stroke-width="2" stroke="yellow" d="M 353.75 510 353.75 366.2803855196543" /><path stroke-width="2" stroke="yellow" d="M 338.125 366.2803855196543 353.75 366.2803855196543" /><path stroke-width="2" stroke="red" d="M 728.75 510 728.75 363.1111293140908" /><path stroke-width="2" stroke="red" d="M 739.1666666666666 510 739.1666666666666 363.1111293140908" /><path stroke-width="2" stroke="red" d="M 728.75 363.1111293140908 739.1666666666666 363.1111293140908" /><path stroke-width="2" stroke="blue" d="M 968.3333333333333 510 968.3333333333333 361.9371916178093" /><path stroke-width="2" stroke="blue" d="M 983.9583333333333 436.38246421926584 983.9583333333333 361.9371916178093" /><path stroke-width="2" stroke="blue" d="M 968.3333333333333 361.9371916178093 983.9583333333333 361.9371916178093" /><path stroke-width="2" stroke="fuchsia" d="M 265.2083333333333 410.4467760229774 265.2083333333333 355.8312238980044" /><path stroke-width="2" stroke="fuchsia" d="M 286.04166666666663 414.07814492669905 286.04166666666663 355.8312238980044" /><path stroke-width="2" stroke="fuchsia" d="M 265.2083333333333 355.8312238980044 286.04166666666663 355.8312238980044" /><path stroke-width="2" stroke="orange" d="M 150.625 422.4814935551896 150.625 347.0854357990364" /><path stroke-width="2" stroke="orange" d="M 204.98697916666666 387.20020878311044 204.98697916666666 347.0854357990364" /><path stroke-width="2" stroke="orange" d="M 150.625 347.0854357990364 204.98697916666666 347.0854357990364" /><path stroke-width="2" stroke="fuchsia" d="M 301.66666666666663 510 301.66666666666663 346.9854980966501" /><path stroke-width="2" stroke="fuchsia" d="M 317.29166666666663 427.69648854252443 317.29166666666663 346.9854980966501" /><path stroke-width="2" stroke="fuchsia" d="M 301.66666666666663 346.9854980966501 317.29166666666663 346.9854980966501" /><path stroke-width="2" stroke="red" d="M 670.15625 373.09424384345493 670.15625 346.53522071851245" /><path stroke-width="2" stroke="red" d="M 705.3125 414.6350138473532 705.3125 346.53522071851245" /><path stroke-width="2" stroke="red" d="M 670.15625 346.53522071851245 705.3125 346.53522071851245" /><path stroke-width="2" stroke="blue" d="M 918.8541666666666 441.40901295763683 918.8541666666666 344.78823538556003" /><path stroke-width="2" stroke="blue" d="M 950.1041666666666 436.67413812865937 950.1041666666666 344.78823538556003" /><path stroke-width="2" stroke="blue" d="M 918.8541666666666 344.78823538556003 950.1041666666666 344.78823538556003" /><path stroke-width="2" stroke="red" d="M 733.9583333333333 363.1111293140908 733.9583333333333 343.407189441466" /><path stroke-width="2" stroke="red" d="M 765.2083333333333 388.6966477507833 765.2083333333333 343.407189441466" /><path stroke-width="2" stroke="red" d="M 733.9583333333333 343.407189441466 765.2083333333333 343.407189441466" /><path stroke-width="2" stroke="purple" d="M 10.0 510 10.0 336.483432171124" /><path stroke-width="2" stroke="purple" d="M 25.625 439.53388741184517 25.625 336.483432171124" /><path stroke-width="2" stroke="purple" d="M 10.0 336.483432171124 25.625 336.483432171124" /><path stroke-width="2" stroke="purple" d="M 56.87499999999999 383.32625526236683 56.87499999999999 333.47819130265316" /><path stroke-width="2" stroke="purple" d="M 82.91666666666666 510 82.91666666666666 333.47819130265316" /><path stroke-width="2" stroke="purple" d="M 56.87499999999999 333.47819130265316 82.91666666666666 333.47819130265316" /><path stroke-width="2" stroke="green" d="M 551.6666666666666 510 551.6666666666666 329.01301204567596" /><path stroke-width="2" stroke="green" d="M 562.0833333333333 510 562.0833333333333 329.01301204567596" /><path stroke-width="2" stroke="green" d="M 551.6666666666666 329.01301204567596 562.0833333333333 329.01301204567596" /><path stroke-width="2" stroke="olive" d="M 624.5833333333333 510 624.5833333333333 326.2645596483268" /><path stroke-width="2" stroke="olive" d="M 635.0 510 635.0 326.2645596483268" /><path stroke-width="2" stroke="olive" d="M 624.5833333333333 326.2645596483268 635.0 326.2645596483268" /><path stroke-width="2" stroke="red" d="M 749.5833333333333 343.407189441466 749.5833333333333 313.6028239673548" /><path stroke-width="2" stroke="red" d="M 804.2708333333333 383.3344380269277 804.2708333333333 313.6028239673548" /><path stroke-width="2" stroke="red" d="M 749.5833333333333 313.6028239673548 804.2708333333333 313.6028239673548" /><path stroke-width="2" stroke="blue" d="M 860.9114583333333 375.7659864000568 860.9114583333333 312.14465347998186" /><path stroke-width="2" stroke="blue" d="M 895.4166666666666 510 895.4166666666666 312.14465347998186" /><path stroke-width="2" stroke="blue" d="M 860.9114583333333 312.14465347998186 895.4166666666666 312.14465347998186" /><path stroke-width="2" stroke="orange" d="M 116.77083333333333 402.55084793686075 116.77083333333333 311.80440898586016" /><path stroke-width="2" stroke="orange" d="M 177.80598958333331 347.0854357990364 177.80598958333331 311.80440898586016" /><path stroke-width="2" stroke="orange" d="M 116.77083333333333 311.80440898586016 177.80598958333331 311.80440898586016" /><path stroke-width="2" stroke="yellow" d="M 395.41666666666663 510 395.41666666666663 309.62252319141646" /><path stroke-width="2" stroke="yellow" d="M 405.8333333333333 510 405.8333333333333 309.62252319141646" /><path stroke-width="2" stroke="yellow" d="M 395.41666666666663 309.62252319141646 405.8333333333333 309.62252319141646" /><path stroke-width="2" stroke="green" d="M 556.875 329.01301204567596 556.875 307.8108818270628" /><path stroke-width="2" stroke="green" d="M 577.7083333333333 403.1289075512287 577.7083333333333 307.8108818270628" /><path stroke-width="2" stroke="green" d="M 556.875 307.8108818270628 577.7083333333333 307.8108818270628" /><path stroke-width="2" stroke="blue" d="M 976.1458333333333 361.9371916178093 976.1458333333333 303.81776136230997" /><path stroke-width="2" stroke="blue" d="M 999.5833333333333 510 999.5833333333333 303.81776136230997" /><path stroke-width="2" stroke="blue" d="M 976.1458333333333 303.81776136230997 999.5833333333333 303.81776136230997" /><path stroke-width="2" stroke="orange" d="M 147.28841145833331 311.80440898586016 147.28841145833331 298.90096992345445" /><path stroke-width="2" stroke="orange" d="M 249.58333333333331 510 249.58333333333331 298.90096992345445" /><path stroke-width="2" stroke="orange" d="M 147.28841145833331 298.90096992345445 249.58333333333331 298.90096992345445" /><path stroke-width="2" stroke="blue" d="M 878.1640625 312.14465347998186 878.1640625 296.6392580191775" /><path stroke-width="2" stroke="blue" d="M 934.4791666666666 344.78823538556003 934.4791666666666 296.6392580191775" /><path stroke-width="2" stroke="blue" d="M 878.1640625 296.6392580191775 934.4791666666666 296.6392580191775" /><path stroke-width="2" stroke="red" d="M 687.734375 346.53522071851245 687.734375 277.1110188162261" /><path stroke-width="2" stroke="red" d="M 776.9270833333333 313.6028239673548 776.9270833333333 277.1110188162261" /><path stroke-width="2" stroke="red" d="M 687.734375 277.1110188162261 776.9270833333333 277.1110188162261" /><path stroke-width="2" stroke="blue" d="M 906.3216145833333 296.6392580191775 906.3216145833333 271.97334690664024" /><path stroke-width="2" stroke="blue" d="M 987.8645833333333 303.81776136230997 987.8645833333333 271.97334690664024" /><path stroke-width="2" stroke="blue" d="M 906.3216145833333 271.97334690664024 987.8645833333333 271.97334690664024" /><path stroke-width="2" stroke="yellow" d="M 345.9375 366.2803855196543 345.9375 271.965296859561" /><path stroke-width="2" stroke="yellow" d="M 377.1875 402.8768554760537 377.1875 271.965296859561" /><path stroke-width="2" stroke="yellow" d="M 345.9375 271.965296859561 377.1875 271.965296859561" /><path stroke-width="2" stroke="yellow" d="M 400.625 309.62252319141646 400.625 267.38888339750645" /><path stroke-width="2" stroke="yellow" d="M 416.25 510 416.25 267.38888339750645" /><path stroke-width="2" stroke="yellow" d="M 400.625 267.38888339750645 416.25 267.38888339750645" /><path stroke-width="2" stroke="green" d="M 525.625 367.0111950543105 525.625 258.5882101352697" /><path stroke-width="2" stroke="green" d="M 567.2916666666666 307.8108818270628 567.2916666666666 258.5882101352697" /><path stroke-width="2" stroke="green" d="M 525.625 258.5882101352697 567.2916666666666 258.5882101352697" /><path stroke-width="2" stroke="purple" d="M 69.89583333333333 333.47819130265316 69.89583333333333 243.1375188009572" /><path stroke-width="2" stroke="purple" d="M 93.33333333333333 510 93.33333333333333 243.1375188009572" /><path stroke-width="2" stroke="purple" d="M 69.89583333333333 243.1375188009572 93.33333333333333 243.1375188009572" /><path stroke-width="2" stroke="olive" d="M 606.3541666666666 370.9799522499869 606.3541666666666 241.76711543946112" /><path stroke-width="2" stroke="olive" d="M 629.7916666666666 326.2645596483268 629.7916666666666 241.76711543946112" /><path stroke-width="2" stroke="olive" d="M 606.3541666666666 241.76711543946112 629.7916666666666 241.76711543946112" /><path stroke-width="2" stroke="fuchsia" d="M 275.625 355.8312238980044 275.625 237.1125630427091" /><path stroke-width="2" stroke="fuchsia" d="M 309.47916666666663 346.9854980966501 309.47916666666663 237.1125630427091" /><path stroke-width="2" stroke="fuchsia" d="M 275.625 237.1125630427091 309.47916666666663 237.1125630427091" /><path stroke-width="2" stroke="green" d="M 463.125 367.52050220962155 463.125 227.06769074396607" /><path stroke-width="2" stroke="green" d="M 546.4583333333333 258.5882101352697 546.4583333333333 227.06769074396607" /><path stroke-width="2" stroke="green" d="M 463.125 227.06769074396607 546.4583333333333 227.06769074396607" /><path stroke-width="2" stroke="purple" d="M 17.8125 336.483432171124 17.8125 217.11888106620626" /><path stroke-width="2" stroke="purple" d="M 81.61458333333333 243.1375188009572 81.61458333333333 217.11888106620626" /><path stroke-width="2" stroke="purple" d="M 17.8125 217.11888106620626 81.61458333333333 217.11888106620626" /><path stroke-width="2" stroke="yellow" d="M 361.5625 271.965296859561 361.5625 205.86413629296118" /><path stroke-width="2" stroke="yellow" d="M 408.4375 267.38888339750645 408.4375 205.86413629296118" /><path stroke-width="2" stroke="yellow" d="M 361.5625 205.86413629296118 408.4375 205.86413629296118" /><path stroke-width="2" stroke="black" d="M 49.713541666666664 217.11888106620626 49.713541666666664 181.37461241530548" /><path stroke-width="2" stroke="black" d="M 198.43587239583331 298.90096992345445 198.43587239583331 181.37461241530548" /><path stroke-width="2" stroke="black" d="M 49.713541666666664 181.37461241530548 198.43587239583331 181.37461241530548" /><path stroke-width="2" stroke="black" d="M 618.0729166666666 241.76711543946112 618.0729166666666 164.2447084222253" /><path stroke-width="2" stroke="black" d="M 732.3307291666666 277.1110188162261 732.3307291666666 164.2447084222253" /><path stroke-width="2" stroke="black" d="M 618.0729166666666 164.2447084222253 732.3307291666666 164.2447084222253" /><path stroke-width="2" stroke="black" d="M 124.07470703124999 181.37461241530548 124.07470703124999 161.66138753013763" /><path stroke-width="2" stroke="black" d="M 292.5520833333333 237.1125630427091 292.5520833333333 161.66138753013763" /><path stroke-width="2" stroke="black" d="M 124.07470703124999 161.66138753013763 292.5520833333333 161.66138753013763" /><path stroke-width="2" stroke="black" d="M 208.31339518229166 161.66138753013763 208.31339518229166 126.232175412853" /><path stroke-width="2" stroke="black" d="M 385.0 205.86413629296118 385.0 126.232175412853" /><path stroke-width="2" stroke="black" d="M 208.31339518229166 126.232175412853 385.0 126.232175412853" /><path stroke-width="2" stroke="black" d="M 675.2018229166666 164.2447084222253 675.2018229166666 102.07839378286735" /><path stroke-width="2" stroke="black" d="M 947.0930989583333 271.97334690664024 947.0930989583333 102.07839378286735" /><path stroke-width="2" stroke="black" d="M 675.2018229166666 102.07839378286735 947.0930989583333 102.07839378286735" /><path stroke-width="2" stroke="black" d="M 296.6566975911458 126.232175412853 296.6566975911458 100.16712687501723" /><path stroke-width="2" stroke="black" d="M 504.79166666666663 227.06769074396607 504.79166666666663 100.16712687501723" /><path stroke-width="2" stroke="black" d="M 296.6566975911458 100.16712687501723 504.79166666666663 100.16712687501723" /><path stroke-width="2" stroke="black" d="M 400.72418212890625 100.16712687501723 400.72418212890625 10.0" /><path stroke-width="2" stroke="black" d="M 811.1474609375 102.07839378286735 811.1474609375 10.0" /><path stroke-width="2" stroke="black" d="M 400.72418212890625 10.0 811.1474609375 10.0" /></svg>