<svg width="1020" height="591.0"  xmlns="http://www.w3.org/2000/svg"><text x="362.14285714285717" y="515"  transform="rotate(60, 362.14285714285717, 515)" font-size="12">death</text><text x="647.8571428571429" y="515"  transform="rotate(60, 647.8571428571429, 515)" font-size="12">one</text><text x="576.4285714285714" y="515"  transform="rotate(60, 576.4285714285714, 515)" font-size="12">covid</text><text x="278.8095238095238" y="515"  transform="rotate(60, 278.8095238095238, 515)" font-size="12">country</text><text x="243.0952380952381" y="515"  transform="rotate(60, 243.0952380952381, 515)" font-size="12">health</text><text x="624.047619047619" y="515"  transform="rotate(60, 624.047619047619, 515)" font-size="12">world</text><text x="445.4761904761905" y="515"  transform="rotate(60, 445.4761904761905, 515)" font-size="12">rise</text><text x="457.3809523809524" y="515"  transform="rotate(60, 457.3809523809524, 515)" font-size="12">new</text><text x="302.61904761904765" y="515"  transform="rotate(60, 302.61904761904765, 515)" font-size="12">virus</text><text x="350.23809523809524" y="515"  transform="rotate(60, 350.23809523809524, 515)" font-size="12">brazil</text><text x="124.04761904761904" y="515"  transform="rotate(60, 124.04761904761904, 515)" font-size="12">second</text><text x="433.57142857142856" y="515"  transform="rotate(60, 433.57142857142856, 515)" font-size="12">number</text><text x="505.0" y="515"  transform="rotate(60, 505.0, 515)" font-size="12">report</text><text x="338.33333333333337" y="515"  transform="rotate(60, 338.33333333333337, 515)" font-size="12">coronavirus</text><text x="612.1428571428571" y="515"  transform="rotate(60, 612.1428571428571, 515)" font-size="12">global</text><text x="421.6666666666667" y="515"  transform="rotate(60, 421.6666666666667, 515)" font-size="12">case</text><text x="540.7142857142858" y="515"  transform="rotate(60, 540.7142857142858, 515)" font-size="12">month</text><text x="374.04761904761904" y="515"  transform="rotate(60, 374.04761904761904, 515)" font-size="12">record</text><text x="385.95238095238096" y="515"  transform="rotate(60, 385.95238095238096, 515)" font-size="12">daily</text><text x="326.42857142857144" y="515"  transform="rotate(60, 326.42857142857144, 515)" font-size="12">find</text><text x="397.8571428571429" y="515"  transform="rotate(60, 397.8571428571429, 515)" font-size="12">high</text><text x="493.09523809523813" y="515"  transform="rotate(60, 493.09523809523813, 515)" font-size="12">surge</text><text x="219.28571428571428" y="515"  transform="rotate(60, 219.28571428571428, 515)" font-size="12">people</text><text x="778.8095238095239" y="515"  transform="rotate(60, 778.8095238095239, 515)" font-size="12">say</text><text x="28.80952380952381" y="515"  transform="rotate(60, 28.80952380952381, 515)" font-size="12">million</text><text x="683.5714285714286" y="515"  transform="rotate(60, 683.5714285714286, 515)" font-size="12">expert</text><text x="88.33333333333334" y="515"  transform="rotate(60, 88.33333333333334, 515)" font-size="12">first</text><text x="290.7142857142857" y="515"  transform="rotate(60, 290.7142857142857, 515)" font-size="12">variant</text><text x="588.3333333333334" y="515"  transform="rotate(60, 588.3333333333334, 515)" font-size="12">pandemic</text><text x="635.952380952381" y="515"  transform="rotate(60, 635.952380952381, 515)" font-size="12">year</text><text x="671.6666666666667" y="515"  transform="rotate(60, 671.6666666666667, 515)" font-size="12">top</text><text x="409.76190476190476" y="515"  transform="rotate(60, 409.76190476190476, 515)" font-size="12">day</text><text x="52.61904761904762" y="515"  transform="rotate(60, 52.61904761904762, 515)" font-size="12">national</text><text x="40.714285714285715" y="515"  transform="rotate(60, 40.714285714285715, 515)" font-size="12">accord</text><text x="659.7619047619048" y="515"  transform="rotate(60, 659.7619047619048, 515)" font-size="12">disease</text><text x="933.5714285714286" y="515"  transform="rotate(60, 933.5714285714286, 515)" font-size="12">risk</text><text x="957.3809523809524" y="515"  transform="rotate(60, 957.3809523809524, 515)" font-size="12">vaccine</text><text x="516.9047619047619" y="515"  transform="rotate(60, 516.9047619047619, 515)" font-size="12">state</text><text x="766.9047619047619" y="515"  transform="rotate(60, 766.9047619047619, 515)" font-size="12">response</text><text x="64.52380952380952" y="515"  transform="rotate(60, 64.52380952380952, 515)" font-size="12">receive</text><text x="76.42857142857143" y="515"  transform="rotate(60, 76.42857142857143, 515)" font-size="12">dose</text><text x="5.0" y="515"  transform="rotate(60, 5.0, 515)" font-size="12">dos</text><text x="207.38095238095238" y="515"  transform="rotate(60, 207.38095238095238, 515)" font-size="12">adult</text><text x="719.2857142857143" y="515"  transform="rotate(60, 719.2857142857143, 515)" font-size="12">shot</text><text x="159.76190476190476" y="515"  transform="rotate(60, 159.76190476190476, 515)" font-size="12">get</text><text x="195.47619047619048" y="515"  transform="rotate(60, 195.47619047619048, 515)" font-size="12">vaccinate</text><text x="552.6190476190476" y="515"  transform="rotate(60, 552.6190476190476, 515)" font-size="12">week</text><text x="266.9047619047619" y="515"  transform="rotate(60, 266.9047619047619, 515)" font-size="12">government</text><text x="16.904761904761905" y="515"  transform="rotate(60, 16.904761904761905, 515)" font-size="12">administer</text><text x="802.6190476190476" y="515"  transform="rotate(60, 802.6190476190476, 515)" font-size="12">data</text><text x="171.66666666666669" y="515"  transform="rotate(60, 171.66666666666669, 515)" font-size="12">take</text><text x="183.57142857142858" y="515"  transform="rotate(60, 183.57142857142858, 515)" font-size="12">make</text><text x="969.2857142857143" y="515"  transform="rotate(60, 969.2857142857143, 515)" font-size="12">use</text><text x="469.2857142857143" y="515"  transform="rotate(60, 469.2857142857143, 515)" font-size="12">infection</text><text x="147.85714285714286" y="515"  transform="rotate(60, 147.85714285714286, 515)" font-size="12">vaccination</text><text x="993.0952380952381" y="515"  transform="rotate(60, 993.0952380952381, 515)" font-size="12">age</text><text x="112.14285714285714" y="515"  transform="rotate(60, 112.14285714285714, 515)" font-size="12">china</text><text x="564.5238095238095" y="515"  transform="rotate(60, 564.5238095238095, 515)" font-size="12">two</text><text x="255.0" y="515"  transform="rotate(60, 255.0, 515)" font-size="12">official</text><text x="790.7142857142858" y="515"  transform="rotate(60, 790.7142857142858, 515)" font-size="12">show</text><text x="135.95238095238096" y="515"  transform="rotate(60, 135.95238095238096, 515)" font-size="12">batch</text><text x="481.1904761904762" y="515"  transform="rotate(60, 481.1904761904762, 515)" font-size="12">india</text><text x="231.1904761904762" y="515"  transform="rotate(60, 231.1904761904762, 515)" font-size="12">minister</text><text x="897.8571428571429" y="515"  transform="rotate(60, 897.8571428571429, 515)" font-size="12">side</text><text x="743.0952380952381" y="515"  transform="rotate(60, 743.0952380952381, 515)" font-size="12">need</text><text x="314.5238095238095" y="515"  transform="rotate(60, 314.5238095238095, 515)" font-size="12">study</text><text x="826.4285714285714" y="515"  transform="rotate(60, 826.4285714285714, 515)" font-size="12">trial</text><text x="100.23809523809524" y="515"  transform="rotate(60, 100.23809523809524, 515)" font-size="12">president</text><text x="838.3333333333334" y="515"  transform="rotate(60, 838.3333333333334, 515)" font-size="12">blood</text><text x="850.2380952380953" y="515"  transform="rotate(60, 850.2380952380953, 515)" font-size="12">clot</text><text x="981.1904761904763" y="515"  transform="rotate(60, 981.1904761904763, 515)" font-size="12">emergency</text><text x="921.6666666666667" y="515"  transform="rotate(60, 921.6666666666667, 515)" font-size="12">rare</text><text x="909.7619047619048" y="515"  transform="rotate(60, 909.7619047619048, 515)" font-size="12">effect</text><text x="862.1428571428571" y="515"  transform="rotate(60, 862.1428571428571, 515)" font-size="12">link</text><text x="945.4761904761905" y="515"  transform="rotate(60, 945.4761904761905, 515)" font-size="12">agency</text><text x="885.952380952381" y="515"  transform="rotate(60, 885.952380952381, 515)" font-size="12">possible</text><text x="874.047619047619" y="515"  transform="rotate(60, 874.047619047619, 515)" font-size="12">regulator</text><text x="600.2380952380953" y="515"  transform="rotate(60, 600.2380952380953, 515)" font-size="12">due</text><text x="731.1904761904763" y="515"  transform="rotate(60, 731.1904761904763, 515)" font-size="12">may</text><text x="695.4761904761905" y="515"  transform="rotate(60, 695.4761904761905, 515)" font-size="12">johnson</text><text x="814.5238095238095" y="515"  transform="rotate(60, 814.5238095238095, 515)" font-size="12">effective</text><text x="528.8095238095239" y="515"  transform="rotate(60, 528.8095238095239, 515)" font-size="12">six</text><text x="707.3809523809524" y="515"  transform="rotate(60, 707.3809523809524, 515)" font-size="12">pause</text><text x="755.0" y="515"  transform="rotate(60, 755.0, 515)" font-size="12">fauci</text><path stroke-width="2" stroke="red" d="M 902.8571428571429 510 902.8571428571429 501.6941071045558" /><path stroke-width="2" stroke="red" d="M 914.7619047619048 510 914.7619047619048 501.6941071045558" /><path stroke-width="2" stroke="red" d="M 902.8571428571429 501.6941071045558 914.7619047619048 501.6941071045558" /><path stroke-width="2" stroke="red" d="M 760.0 510 760.0 498.80638826046714" /><path stroke-width="2" stroke="red" d="M 771.9047619047619 510 771.9047619047619 498.80638826046714" /><path stroke-width="2" stroke="red" d="M 760.0 498.80638826046714 771.9047619047619 498.80638826046714" /><path stroke-width="2" stroke="blue" d="M 533.8095238095239 510 533.8095238095239 488.55930761800704" /><path stroke-width="2" stroke="blue" d="M 545.7142857142858 510 545.7142857142858 488.55930761800704" /><path stroke-width="2" stroke="blue" d="M 533.8095238095239 488.55930761800704 545.7142857142858 488.55930761800704" /><path stroke-width="2" stroke="red" d="M 890.952380952381 510 890.952380952381 486.05439005306744" /><path stroke-width="2" stroke="red" d="M 908.8095238095239 501.6941071045558 908.8095238095239 486.05439005306744" /><path stroke-width="2" stroke="red" d="M 890.952380952381 486.05439005306744 908.8095238095239 486.05439005306744" /><path stroke-width="2" stroke="red" d="M 974.2857142857143 510 974.2857142857143 484.75306407685946" /><path stroke-width="2" stroke="red" d="M 986.1904761904763 510 986.1904761904763 484.75306407685946" /><path stroke-width="2" stroke="red" d="M 974.2857142857143 484.75306407685946 986.1904761904763 484.75306407685946" /><path stroke-width="2" stroke="red" d="M 795.7142857142858 510 795.7142857142858 483.74773973231396" /><path stroke-width="2" stroke="red" d="M 807.6190476190476 510 807.6190476190476 483.74773973231396" /><path stroke-width="2" stroke="red" d="M 795.7142857142858 483.74773973231396 807.6190476190476 483.74773973231396" /><path stroke-width="2" stroke="blue" d="M 319.5238095238095 510 319.5238095238095 482.8110322949481" /><path stroke-width="2" stroke="blue" d="M 331.42857142857144 510 331.42857142857144 482.8110322949481" /><path stroke-width="2" stroke="blue" d="M 319.5238095238095 482.8110322949481 331.42857142857144 482.8110322949481" /><path stroke-width="2" stroke="red" d="M 819.5238095238095 510 819.5238095238095 482.50525667824775" /><path stroke-width="2" stroke="red" d="M 831.4285714285714 510 831.4285714285714 482.50525667824775" /><path stroke-width="2" stroke="red" d="M 819.5238095238095 482.50525667824775 831.4285714285714 482.50525667824775" /><path stroke-width="2" stroke="red" d="M 664.7619047619048 510 664.7619047619048 480.3014636672931" /><path stroke-width="2" stroke="red" d="M 676.6666666666667 510 676.6666666666667 480.3014636672931" /><path stroke-width="2" stroke="red" d="M 664.7619047619048 480.3014636672931 676.6666666666667 480.3014636672931" /><path stroke-width="2" stroke="red" d="M 736.1904761904763 510 736.1904761904763 479.8960668006034" /><path stroke-width="2" stroke="red" d="M 748.0952380952381 510 748.0952380952381 479.8960668006034" /><path stroke-width="2" stroke="red" d="M 736.1904761904763 479.8960668006034 748.0952380952381 479.8960668006034" /><path stroke-width="2" stroke="blue" d="M 295.7142857142857 510 295.7142857142857 476.4212521219331" /><path stroke-width="2" stroke="blue" d="M 307.61904761904765 510 307.61904761904765 476.4212521219331" /><path stroke-width="2" stroke="blue" d="M 295.7142857142857 476.4212521219331 307.61904761904765 476.4212521219331" /><path stroke-width="2" stroke="blue" d="M 605.2380952380953 510 605.2380952380953 475.70508299385006" /><path stroke-width="2" stroke="blue" d="M 617.1428571428571 510 617.1428571428571 475.70508299385006" /><path stroke-width="2" stroke="blue" d="M 605.2380952380953 475.70508299385006 617.1428571428571 475.70508299385006" /><path stroke-width="2" stroke="red" d="M 855.2380952380953 510 855.2380952380953 469.46008281349157" /><path stroke-width="2" stroke="red" d="M 867.1428571428571 510 867.1428571428571 469.46008281349157" /><path stroke-width="2" stroke="red" d="M 855.2380952380953 469.46008281349157 867.1428571428571 469.46008281349157" /><path stroke-width="2" stroke="blue" d="M 10.0 510 10.0 469.2491243752411" /><path stroke-width="2" stroke="blue" d="M 21.904761904761905 510 21.904761904761905 469.2491243752411" /><path stroke-width="2" stroke="blue" d="M 10.0 469.2491243752411 21.904761904761905 469.2491243752411" /><path stroke-width="2" stroke="blue" d="M 379.04761904761904 510 379.04761904761904 469.1989896678242" /><path stroke-width="2" stroke="blue" d="M 390.95238095238096 510 390.95238095238096 469.1989896678242" /><path stroke-width="2" stroke="blue" d="M 379.04761904761904 469.1989896678242 390.95238095238096 469.1989896678242" /><path stroke-width="2" stroke="blue" d="M 355.23809523809524 510 355.23809523809524 468.6176328858808" /><path stroke-width="2" stroke="blue" d="M 367.14285714285717 510 367.14285714285717 468.6176328858808" /><path stroke-width="2" stroke="blue" d="M 355.23809523809524 468.6176328858808 367.14285714285717 468.6176328858808" /><path stroke-width="2" stroke="red" d="M 670.7142857142858 480.3014636672931 670.7142857142858 468.3970557572077" /><path stroke-width="2" stroke="red" d="M 688.5714285714286 510 688.5714285714286 468.3970557572077" /><path stroke-width="2" stroke="red" d="M 670.7142857142858 468.3970557572077 688.5714285714286 468.3970557572077" /><path stroke-width="2" stroke="blue" d="M 129.04761904761904 510 129.04761904761904 466.78248996786874" /><path stroke-width="2" stroke="blue" d="M 140.95238095238096 510 140.95238095238096 466.78248996786874" /><path stroke-width="2" stroke="blue" d="M 129.04761904761904 466.78248996786874 140.95238095238096 466.78248996786874" /><path stroke-width="2" stroke="red" d="M 700.4761904761905 510 700.4761904761905 464.799684470753" /><path stroke-width="2" stroke="red" d="M 712.3809523809524 510 712.3809523809524 464.799684470753" /><path stroke-width="2" stroke="red" d="M 700.4761904761905 464.799684470753 712.3809523809524 464.799684470753" /><path stroke-width="2" stroke="red" d="M 843.3333333333334 510 843.3333333333334 463.3250977439774" /><path stroke-width="2" stroke="red" d="M 861.1904761904761 469.46008281349157 861.1904761904761 463.3250977439774" /><path stroke-width="2" stroke="red" d="M 843.3333333333334 463.3250977439774 861.1904761904761 463.3250977439774" /><path stroke-width="2" stroke="blue" d="M 200.47619047619048 510 200.47619047619048 462.44639439563514" /><path stroke-width="2" stroke="blue" d="M 212.38095238095238 510 212.38095238095238 462.44639439563514" /><path stroke-width="2" stroke="blue" d="M 200.47619047619048 462.44639439563514 212.38095238095238 462.44639439563514" /><path stroke-width="2" stroke="red" d="M 801.6666666666667 483.74773973231396 801.6666666666667 461.20779656853773" /><path stroke-width="2" stroke="red" d="M 825.4761904761905 482.50525667824775 825.4761904761905 461.20779656853773" /><path stroke-width="2" stroke="red" d="M 801.6666666666667 461.20779656853773 825.4761904761905 461.20779656853773" /><path stroke-width="2" stroke="blue" d="M 176.66666666666669 510 176.66666666666669 460.0595141809138" /><path stroke-width="2" stroke="blue" d="M 188.57142857142858 510 188.57142857142858 460.0595141809138" /><path stroke-width="2" stroke="blue" d="M 176.66666666666669 460.0595141809138 188.57142857142858 460.0595141809138" /><path stroke-width="2" stroke="red" d="M 899.8809523809524 486.05439005306744 899.8809523809524 459.251263990064" /><path stroke-width="2" stroke="red" d="M 926.6666666666667 510 926.6666666666667 459.251263990064" /><path stroke-width="2" stroke="red" d="M 899.8809523809524 459.251263990064 926.6666666666667 459.251263990064" /><path stroke-width="2" stroke="red" d="M 980.2380952380953 484.75306407685946 980.2380952380953 458.8514767173946" /><path stroke-width="2" stroke="red" d="M 998.0952380952381 510 998.0952380952381 458.8514767173946" /><path stroke-width="2" stroke="red" d="M 980.2380952380953 458.8514767173946 998.0952380952381 458.8514767173946" /><path stroke-width="2" stroke="blue" d="M 557.6190476190476 510 557.6190476190476 457.844491711211" /><path stroke-width="2" stroke="blue" d="M 569.5238095238095 510 569.5238095238095 457.844491711211" /><path stroke-width="2" stroke="blue" d="M 557.6190476190476 457.844491711211 569.5238095238095 457.844491711211" /><path stroke-width="2" stroke="blue" d="M 486.1904761904762 510 486.1904761904762 456.93358015997444" /><path stroke-width="2" stroke="blue" d="M 498.09523809523813 510 498.09523809523813 456.93358015997444" /><path stroke-width="2" stroke="blue" d="M 486.1904761904762 456.93358015997444 498.09523809523813 456.93358015997444" /><path stroke-width="2" stroke="blue" d="M 438.57142857142856 510 438.57142857142856 456.75770892184295" /><path stroke-width="2" stroke="blue" d="M 450.4761904761905 510 450.4761904761905 456.75770892184295" /><path stroke-width="2" stroke="blue" d="M 438.57142857142856 456.75770892184295 450.4761904761905 456.75770892184295" /><path stroke-width="2" stroke="blue" d="M 69.52380952380952 510 69.52380952380952 455.8236690498349" /><path stroke-width="2" stroke="blue" d="M 81.42857142857143 510 81.42857142857143 455.8236690498349" /><path stroke-width="2" stroke="blue" d="M 69.52380952380952 455.8236690498349 81.42857142857143 455.8236690498349" /><path stroke-width="2" stroke="blue" d="M 593.3333333333334 510 593.3333333333334 455.523736645016" /><path stroke-width="2" stroke="blue" d="M 611.1904761904761 475.70508299385006 611.1904761904761 455.523736645016" /><path stroke-width="2" stroke="blue" d="M 593.3333333333334 455.523736645016 611.1904761904761 455.523736645016" /><path stroke-width="2" stroke="red" d="M 938.5714285714286 510 938.5714285714286 455.3276693410246" /><path stroke-width="2" stroke="red" d="M 950.4761904761905 510 950.4761904761905 455.3276693410246" /><path stroke-width="2" stroke="red" d="M 938.5714285714286 455.3276693410246 950.4761904761905 455.3276693410246" /><path stroke-width="2" stroke="blue" d="M 385.0 469.1989896678242 385.0 453.5055879822151" /><path stroke-width="2" stroke="blue" d="M 402.8571428571429 510 402.8571428571429 453.5055879822151" /><path stroke-width="2" stroke="blue" d="M 385.0 453.5055879822151 402.8571428571429 453.5055879822151" /><path stroke-width="2" stroke="blue" d="M 15.952380952380953 469.2491243752411 15.952380952380953 451.03865311545695" /><path stroke-width="2" stroke="blue" d="M 33.80952380952381 510 33.80952380952381 451.03865311545695" /><path stroke-width="2" stroke="blue" d="M 15.952380952380953 451.03865311545695 33.80952380952381 451.03865311545695" /><path stroke-width="2" stroke="red" d="M 742.1428571428571 479.8960668006034 742.1428571428571 450.27561631979313" /><path stroke-width="2" stroke="red" d="M 765.952380952381 498.80638826046714 765.952380952381 450.27561631979313" /><path stroke-width="2" stroke="red" d="M 742.1428571428571 450.27561631979313 765.952380952381 450.27561631979313" /><path stroke-width="2" stroke="blue" d="M 474.2857142857143 510 474.2857142857143 450.24504052960117" /><path stroke-width="2" stroke="blue" d="M 492.14285714285717 456.93358015997444 492.14285714285717 450.24504052960117" /><path stroke-width="2" stroke="blue" d="M 474.2857142857143 450.24504052960117 492.14285714285717 450.24504052960117" /><path stroke-width="2" stroke="blue" d="M 260.0 510 260.0 447.09742231299015" /><path stroke-width="2" stroke="blue" d="M 271.9047619047619 510 271.9047619047619 447.09742231299015" /><path stroke-width="2" stroke="blue" d="M 260.0 447.09742231299015 271.9047619047619 447.09742231299015" /><path stroke-width="2" stroke="blue" d="M 164.76190476190476 510 164.76190476190476 444.3268195976752" /><path stroke-width="2" stroke="blue" d="M 182.61904761904765 460.0595141809138 182.61904761904765 444.3268195976752" /><path stroke-width="2" stroke="blue" d="M 164.76190476190476 444.3268195976752 182.61904761904765 444.3268195976752" /><path stroke-width="2" stroke="red" d="M 852.2619047619048 463.3250977439774 852.2619047619048 442.3333714383137" /><path stroke-width="2" stroke="red" d="M 879.047619047619 510 879.047619047619 442.3333714383137" /><path stroke-width="2" stroke="red" d="M 852.2619047619048 442.3333714383137 879.047619047619 442.3333714383137" /><path stroke-width="2" stroke="red" d="M 865.6547619047619 442.3333714383137 865.6547619047619 438.826758803819" /><path stroke-width="2" stroke="red" d="M 913.2738095238096 459.251263990064 913.2738095238096 438.826758803819" /><path stroke-width="2" stroke="red" d="M 865.6547619047619 438.826758803819 913.2738095238096 438.826758803819" /><path stroke-width="2" stroke="blue" d="M 640.952380952381 510 640.952380952381 434.9415248809642" /><path stroke-width="2" stroke="blue" d="M 652.8571428571429 510 652.8571428571429 434.9415248809642" /><path stroke-width="2" stroke="blue" d="M 640.952380952381 434.9415248809642 652.8571428571429 434.9415248809642" /><path stroke-width="2" stroke="blue" d="M 301.6666666666667 476.4212521219331 301.6666666666667 433.2037269627671" /><path stroke-width="2" stroke="blue" d="M 325.4761904761905 482.8110322949481 325.4761904761905 433.2037269627671" /><path stroke-width="2" stroke="blue" d="M 301.6666666666667 433.2037269627671 325.4761904761905 433.2037269627671" /><path stroke-width="2" stroke="blue" d="M 45.714285714285715 510 45.714285714285715 430.9028755236719" /><path stroke-width="2" stroke="blue" d="M 57.61904761904762 510 57.61904761904762 430.9028755236719" /><path stroke-width="2" stroke="blue" d="M 45.714285714285715 430.9028755236719 57.61904761904762 430.9028755236719" /><path stroke-width="2" stroke="blue" d="M 426.6666666666667 510 426.6666666666667 429.95720336576244" /><path stroke-width="2" stroke="blue" d="M 444.5238095238095 456.75770892184295 444.5238095238095 429.95720336576244" /><path stroke-width="2" stroke="blue" d="M 426.6666666666667 429.95720336576244 444.5238095238095 429.95720336576244" /><path stroke-width="2" stroke="blue" d="M 236.1904761904762 510 236.1904761904762 426.85572544812874" /><path stroke-width="2" stroke="blue" d="M 248.0952380952381 510 248.0952380952381 426.85572544812874" /><path stroke-width="2" stroke="blue" d="M 236.1904761904762 426.85572544812874 248.0952380952381 426.85572544812874" /><path stroke-width="2" stroke="blue" d="M 206.42857142857144 462.44639439563514 206.42857142857144 425.2253372280528" /><path stroke-width="2" stroke="blue" d="M 224.28571428571428 510 224.28571428571428 425.2253372280528" /><path stroke-width="2" stroke="blue" d="M 206.42857142857144 425.2253372280528 224.28571428571428 425.2253372280528" /><path stroke-width="2" stroke="blue" d="M 361.1904761904762 468.6176328858808 361.1904761904762 423.78187540817396" /><path stroke-width="2" stroke="blue" d="M 393.92857142857144 453.5055879822151 393.92857142857144 423.78187540817396" /><path stroke-width="2" stroke="blue" d="M 361.1904761904762 423.78187540817396 393.92857142857144 423.78187540817396" /><path stroke-width="2" stroke="blue" d="M 117.14285714285714 510 117.14285714285714 414.5766359003446" /><path stroke-width="2" stroke="blue" d="M 135.0 466.78248996786874 135.0 414.5766359003446" /><path stroke-width="2" stroke="blue" d="M 117.14285714285714 414.5766359003446 135.0 414.5766359003446" /><path stroke-width="2" stroke="red" d="M 889.4642857142858 438.826758803819 889.4642857142858 412.9815592597532" /><path stroke-width="2" stroke="red" d="M 944.5238095238095 455.3276693410246 944.5238095238095 412.9815592597532" /><path stroke-width="2" stroke="red" d="M 889.4642857142858 412.9815592597532 944.5238095238095 412.9815592597532" /><path stroke-width="2" stroke="blue" d="M 75.47619047619048 455.8236690498349 75.47619047619048 406.3348078971292" /><path stroke-width="2" stroke="blue" d="M 93.33333333333334 510 93.33333333333334 406.3348078971292" /><path stroke-width="2" stroke="blue" d="M 75.47619047619048 406.3348078971292 93.33333333333334 406.3348078971292" /><path stroke-width="2" stroke="blue" d="M 602.2619047619048 455.523736645016 602.2619047619048 401.2747037246676" /><path stroke-width="2" stroke="blue" d="M 629.047619047619 510 629.047619047619 401.2747037246676" /><path stroke-width="2" stroke="blue" d="M 602.2619047619048 401.2747037246676 629.047619047619 401.2747037246676" /><path stroke-width="2" stroke="blue" d="M 84.40476190476191 406.3348078971292 84.40476190476191 400.21257374984106" /><path stroke-width="2" stroke="blue" d="M 105.23809523809524 510 105.23809523809524 400.21257374984106" /><path stroke-width="2" stroke="blue" d="M 84.40476190476191 400.21257374984106 105.23809523809524 400.21257374984106" /><path stroke-width="2" stroke="blue" d="M 462.3809523809524 510 462.3809523809524 387.04125685147164" /><path stroke-width="2" stroke="blue" d="M 483.2142857142857 450.24504052960117 483.2142857142857 387.04125685147164" /><path stroke-width="2" stroke="blue" d="M 462.3809523809524 387.04125685147164 483.2142857142857 387.04125685147164" /><path stroke-width="2" stroke="red" d="M 679.6428571428571 468.3970557572077 679.6428571428571 383.20128349919656" /><path stroke-width="2" stroke="red" d="M 706.4285714285714 464.799684470753 706.4285714285714 383.20128349919656" /><path stroke-width="2" stroke="red" d="M 679.6428571428571 383.20128349919656 706.4285714285714 383.20128349919656" /><path stroke-width="2" stroke="blue" d="M 615.6547619047619 401.2747037246676 615.6547619047619 381.40823184891735" /><path stroke-width="2" stroke="blue" d="M 646.9047619047619 434.9415248809642 646.9047619047619 381.40823184891735" /><path stroke-width="2" stroke="blue" d="M 615.6547619047619 381.40823184891735 646.9047619047619 381.40823184891735" /><path stroke-width="2" stroke="blue" d="M 152.85714285714286 510 152.85714285714286 380.2457191691551" /><path stroke-width="2" stroke="blue" d="M 173.6904761904762 444.3268195976752 173.6904761904762 380.2457191691551" /><path stroke-width="2" stroke="blue" d="M 152.85714285714286 380.2457191691551 173.6904761904762 380.2457191691551" /><path stroke-width="2" stroke="blue" d="M 313.57142857142856 433.2037269627671 313.57142857142856 377.00486280303835" /><path stroke-width="2" stroke="blue" d="M 343.33333333333337 510 343.33333333333337 377.00486280303835" /><path stroke-width="2" stroke="blue" d="M 313.57142857142856 377.00486280303835 343.33333333333337 377.00486280303835" /><path stroke-width="2" stroke="blue" d="M 435.5952380952381 429.95720336576244 435.5952380952381 376.76870639611855" /><path stroke-width="2" stroke="blue" d="M 472.79761904761904 387.04125685147164 472.79761904761904 376.76870639611855" /><path stroke-width="2" stroke="blue" d="M 435.5952380952381 376.76870639611855 472.79761904761904 376.76870639611855" /><path stroke-width="2" stroke="red" d="M 724.2857142857143 510 724.2857142857143 370.98717291795793" /><path stroke-width="2" stroke="red" d="M 754.047619047619 450.27561631979313 754.047619047619 370.98717291795793" /><path stroke-width="2" stroke="red" d="M 724.2857142857143 370.98717291795793 754.047619047619 370.98717291795793" /><path stroke-width="2" stroke="blue" d="M 242.14285714285717 426.85572544812874 242.14285714285717 364.7534218594984" /><path stroke-width="2" stroke="blue" d="M 265.95238095238096 447.09742231299015 265.95238095238096 364.7534218594984" /><path stroke-width="2" stroke="blue" d="M 242.14285714285717 364.7534218594984 265.95238095238096 364.7534218594984" /><path stroke-width="2" stroke="blue" d="M 377.55952380952385 423.78187540817396 377.55952380952385 364.63897792658776" /><path stroke-width="2" stroke="blue" d="M 414.76190476190476 510 414.76190476190476 364.63897792658776" /><path stroke-width="2" stroke="blue" d="M 377.55952380952385 364.63897792658776 414.76190476190476 364.63897792658776" /><path stroke-width="2" stroke="blue" d="M 454.19642857142856 376.76870639611855 454.19642857142856 354.2053432949516" /><path stroke-width="2" stroke="blue" d="M 510.0 510 510.0 354.2053432949516" /><path stroke-width="2" stroke="blue" d="M 454.19642857142856 354.2053432949516 510.0 354.2053432949516" /><path stroke-width="2" stroke="blue" d="M 24.88095238095238 451.03865311545695 24.88095238095238 341.9639814300753" /><path stroke-width="2" stroke="blue" d="M 51.66666666666667 430.9028755236719 51.66666666666667 341.9639814300753" /><path stroke-width="2" stroke="blue" d="M 24.88095238095238 341.9639814300753 51.66666666666667 341.9639814300753" /><path stroke-width="2" stroke="blue" d="M 396.16071428571433 364.63897792658776 396.16071428571433 337.93461384156296" /><path stroke-width="2" stroke="blue" d="M 482.0982142857143 354.2053432949516 482.0982142857143 337.93461384156296" /><path stroke-width="2" stroke="blue" d="M 396.16071428571433 337.93461384156296 482.0982142857143 337.93461384156296" /><path stroke-width="2" stroke="blue" d="M 163.27380952380952 380.2457191691551 163.27380952380952 328.158781780641" /><path stroke-width="2" stroke="blue" d="M 215.35714285714286 425.2253372280528 215.35714285714286 328.158781780641" /><path stroke-width="2" stroke="blue" d="M 163.27380952380952 328.158781780641 215.35714285714286 328.158781780641" /><path stroke-width="2" stroke="blue" d="M 94.82142857142858 400.21257374984106 94.82142857142858 320.89476719148973" /><path stroke-width="2" stroke="blue" d="M 126.07142857142857 414.5766359003446 126.07142857142857 320.89476719148973" /><path stroke-width="2" stroke="blue" d="M 94.82142857142858 320.89476719148973 126.07142857142857 320.89476719148973" /><path stroke-width="2" stroke="blue" d="M 539.7619047619048 488.55930761800704 539.7619047619048 316.1272539329284" /><path stroke-width="2" stroke="blue" d="M 563.5714285714286 457.844491711211 563.5714285714286 316.1272539329284" /><path stroke-width="2" stroke="blue" d="M 539.7619047619048 316.1272539329284 563.5714285714286 316.1272539329284" /><path stroke-width="2" stroke="red" d="M 962.3809523809524 510 962.3809523809524 307.3511612213779" /><path stroke-width="2" stroke="red" d="M 989.1666666666667 458.8514767173946 989.1666666666667 307.3511612213779" /><path stroke-width="2" stroke="red" d="M 962.3809523809524 307.3511612213779 989.1666666666667 307.3511612213779" /><path stroke-width="2" stroke="blue" d="M 439.12946428571433 337.93461384156296 439.12946428571433 300.36086783326" /><path stroke-width="2" stroke="blue" d="M 521.9047619047619 510 521.9047619047619 300.36086783326" /><path stroke-width="2" stroke="blue" d="M 439.12946428571433 300.36086783326 521.9047619047619 300.36086783326" /><path stroke-width="2" stroke="red" d="M 783.8095238095239 510 783.8095238095239 296.9314002371513" /><path stroke-width="2" stroke="red" d="M 813.5714285714287 461.20779656853773 813.5714285714287 296.9314002371513" /><path stroke-width="2" stroke="red" d="M 783.8095238095239 296.9314002371513 813.5714285714287 296.9314002371513" /><path stroke-width="2" stroke="blue" d="M 254.04761904761907 364.7534218594984 254.04761904761907 280.2206798801269" /><path stroke-width="2" stroke="blue" d="M 283.8095238095238 510 283.8095238095238 280.2206798801269" /><path stroke-width="2" stroke="blue" d="M 254.04761904761907 280.2206798801269 283.8095238095238 280.2206798801269" /><path stroke-width="2" stroke="red" d="M 693.0357142857142 383.20128349919656 693.0357142857142 269.0055119279115" /><path stroke-width="2" stroke="red" d="M 739.1666666666667 370.98717291795793 739.1666666666667 269.0055119279115" /><path stroke-width="2" stroke="red" d="M 693.0357142857142 269.0055119279115 739.1666666666667 269.0055119279115" /><path stroke-width="2" stroke="blue" d="M 551.6666666666667 316.1272539329284 551.6666666666667 249.30350124732325" /><path stroke-width="2" stroke="blue" d="M 581.4285714285714 510 581.4285714285714 249.30350124732325" /><path stroke-width="2" stroke="blue" d="M 551.6666666666667 249.30350124732325 581.4285714285714 249.30350124732325" /><path stroke-width="2" stroke="red" d="M 716.1011904761905 269.0055119279115 716.1011904761905 248.99330417230988" /><path stroke-width="2" stroke="red" d="M 798.6904761904763 296.9314002371513 798.6904761904763 248.99330417230988" /><path stroke-width="2" stroke="red" d="M 716.1011904761905 248.99330417230988 798.6904761904763 248.99330417230988" /><path stroke-width="2" stroke="blue" d="M 38.273809523809526 341.9639814300753 38.273809523809526 237.93417121749673" /><path stroke-width="2" stroke="blue" d="M 110.44642857142858 320.89476719148973 110.44642857142858 237.93417121749673" /><path stroke-width="2" stroke="blue" d="M 38.273809523809526 237.93417121749673 110.44642857142858 237.93417121749673" /><path stroke-width="2" stroke="red" d="M 916.9940476190477 412.9815592597532 916.9940476190477 234.8644794195883" /><path stroke-width="2" stroke="red" d="M 975.7738095238096 307.3511612213779 975.7738095238096 234.8644794195883" /><path stroke-width="2" stroke="red" d="M 916.9940476190477 234.8644794195883 975.7738095238096 234.8644794195883" /><path stroke-width="2" stroke="blue" d="M 566.547619047619 249.30350124732325 566.547619047619 229.61210603876384" /><path stroke-width="2" stroke="blue" d="M 631.2797619047619 381.40823184891735 631.2797619047619 229.61210603876384" /><path stroke-width="2" stroke="blue" d="M 566.547619047619 229.61210603876384 631.2797619047619 229.61210603876384" /><path stroke-width="2" stroke="blue" d="M 328.45238095238096 377.00486280303835 328.45238095238096 213.3529750352438" /><path stroke-width="2" stroke="blue" d="M 480.51711309523813 300.36086783326 480.51711309523813 213.3529750352438" /><path stroke-width="2" stroke="blue" d="M 328.45238095238096 213.3529750352438 480.51711309523813 213.3529750352438" /><path stroke-width="2" stroke="red" d="M 757.3958333333334 248.99330417230988 757.3958333333334 198.83575654642607" /><path stroke-width="2" stroke="red" d="M 946.3839285714287 234.8644794195883 946.3839285714287 198.83575654642607" /><path stroke-width="2" stroke="red" d="M 757.3958333333334 198.83575654642607 946.3839285714287 198.83575654642607" /><path stroke-width="2" stroke="blue" d="M 404.4847470238095 213.3529750352438 404.4847470238095 184.1580725455142" /><path stroke-width="2" stroke="blue" d="M 598.9136904761905 229.61210603876384 598.9136904761905 184.1580725455142" /><path stroke-width="2" stroke="blue" d="M 404.4847470238095 184.1580725455142 598.9136904761905 184.1580725455142" /><path stroke-width="2" stroke="blue" d="M 74.36011904761905 237.93417121749673 74.36011904761905 168.44312581450356" /><path stroke-width="2" stroke="blue" d="M 189.3154761904762 328.158781780641 189.3154761904762 168.44312581450356" /><path stroke-width="2" stroke="blue" d="M 74.36011904761905 168.44312581450356 189.3154761904762 168.44312581450356" /><path stroke-width="2" stroke="blue" d="M 131.83779761904762 168.44312581450356 131.83779761904762 123.40476536984238" /><path stroke-width="2" stroke="blue" d="M 268.92857142857144 280.2206798801269 268.92857142857144 123.40476536984238" /><path stroke-width="2" stroke="blue" d="M 131.83779761904762 123.40476536984238 268.92857142857144 123.40476536984238" /><path stroke-width="2" stroke="blue" d="M 200.38318452380952 123.40476536984238 200.38318452380952 65.75390991348968" /><path stroke-width="2" stroke="blue" d="M 501.69921875 184.1580725455142 501.69921875 65.75390991348968" /><path stroke-width="2" stroke="blue" d="M 200.38318452380952 65.75390991348968 501.69921875 65.75390991348968" /><path stroke-width="2" stroke="black" d="M 351.04120163690476 65.75390991348968 351.04120163690476 10.0" /><path stroke-width="2" stroke="black" d="M 851.889880952381 198.83575654642607 851.889880952381 10.0" /><path stroke-width="2" stroke="black" d="M 351.04120163690476 10.0 851.889880952381 10.0" /></svg>