<svg width="1020" height="597.0"  xmlns="http://www.w3.org/2000/svg"><text x="167.5" y="515"  transform="rotate(60, 167.5, 515)" font-size="12">daily</text><text x="180.0" y="515"  transform="rotate(60, 180.0, 515)" font-size="12">case</text><text x="355.0" y="515"  transform="rotate(60, 355.0, 515)" font-size="12">coronavirus</text><text x="55.0" y="515"  transform="rotate(60, 55.0, 515)" font-size="12">infection</text><text x="117.5" y="515"  transform="rotate(60, 117.5, 515)" font-size="12">high</text><text x="892.5" y="515"  transform="rotate(60, 892.5, 515)" font-size="12">since</text><text x="130.0" y="515"  transform="rotate(60, 130.0, 515)" font-size="12">number</text><text x="680.0" y="515"  transform="rotate(60, 680.0, 515)" font-size="12">covid</text><text x="230.0" y="515"  transform="rotate(60, 230.0, 515)" font-size="12">new</text><text x="142.5" y="515"  transform="rotate(60, 142.5, 515)" font-size="12">hit</text><text x="155.0" y="515"  transform="rotate(60, 155.0, 515)" font-size="12">record</text><text x="992.5" y="515"  transform="rotate(60, 992.5, 515)" font-size="12">week</text><text x="192.5" y="515"  transform="rotate(60, 192.5, 515)" font-size="12">report</text><text x="842.5" y="515"  transform="rotate(60, 842.5, 515)" font-size="12">test</text><text x="392.5" y="515"  transform="rotate(60, 392.5, 515)" font-size="12">health</text><text x="880.0" y="515"  transform="rotate(60, 880.0, 515)" font-size="12">first</text><text x="292.5" y="515"  transform="rotate(60, 292.5, 515)" font-size="12">time</text><text x="492.5" y="515"  transform="rotate(60, 492.5, 515)" font-size="12">death</text><text x="767.5" y="515"  transform="rotate(60, 767.5, 515)" font-size="12">say</text><text x="705.0" y="515"  transform="rotate(60, 705.0, 515)" font-size="12">month</text><text x="80.0" y="515"  transform="rotate(60, 80.0, 515)" font-size="12">country</text><text x="67.5" y="515"  transform="rotate(60, 67.5, 515)" font-size="12">rise</text><text x="442.5" y="515"  transform="rotate(60, 442.5, 515)" font-size="12">get</text><text x="817.5" y="515"  transform="rotate(60, 817.5, 515)" font-size="12">top</text><text x="717.5" y="515"  transform="rotate(60, 717.5, 515)" font-size="12">see</text><text x="17.5" y="515"  transform="rotate(60, 17.5, 515)" font-size="12">expert</text><text x="467.5" y="515"  transform="rotate(60, 467.5, 515)" font-size="12">million</text><text x="317.5" y="515"  transform="rotate(60, 317.5, 515)" font-size="12">pandemic</text><text x="380.0" y="515"  transform="rotate(60, 380.0, 515)" font-size="12">take</text><text x="517.5" y="515"  transform="rotate(60, 517.5, 515)" font-size="12">one</text><text x="5.0" y="515"  transform="rotate(60, 5.0, 515)" font-size="12">accord</text><text x="567.5" y="515"  transform="rotate(60, 567.5, 515)" font-size="12">data</text><text x="480.0" y="515"  transform="rotate(60, 480.0, 515)" font-size="12">global</text><text x="742.5" y="515"  transform="rotate(60, 742.5, 515)" font-size="12">follow</text><text x="430.0" y="515"  transform="rotate(60, 430.0, 515)" font-size="12">people</text><text x="855.0" y="515"  transform="rotate(60, 855.0, 515)" font-size="12">positive</text><text x="730.0" y="515"  transform="rotate(60, 730.0, 515)" font-size="12">second</text><text x="30.0" y="515"  transform="rotate(60, 30.0, 515)" font-size="12">surge</text><text x="830.0" y="515"  transform="rotate(60, 830.0, 515)" font-size="12">official</text><text x="630.0" y="515"  transform="rotate(60, 630.0, 515)" font-size="12">government</text><text x="542.5" y="515"  transform="rotate(60, 542.5, 515)" font-size="12">show</text><text x="505.0" y="515"  transform="rotate(60, 505.0, 515)" font-size="12">world</text><text x="280.0" y="515"  transform="rotate(60, 280.0, 515)" font-size="12">could</text><text x="417.5" y="515"  transform="rotate(60, 417.5, 515)" font-size="12">public</text><text x="92.5" y="515"  transform="rotate(60, 92.5, 515)" font-size="12">outbreak</text><text x="342.5" y="515"  transform="rotate(60, 342.5, 515)" font-size="12">spread</text><text x="367.5" y="515"  transform="rotate(60, 367.5, 515)" font-size="12">hour</text><text x="217.5" y="515"  transform="rotate(60, 217.5, 515)" font-size="12">city</text><text x="255.0" y="515"  transform="rotate(60, 255.0, 515)" font-size="12">china</text><text x="242.5" y="515"  transform="rotate(60, 242.5, 515)" font-size="12">day</text><text x="42.5" y="515"  transform="rotate(60, 42.5, 515)" font-size="12">state</text><text x="905.0" y="515"  transform="rotate(60, 905.0, 515)" font-size="12">president</text><text x="917.5" y="515"  transform="rotate(60, 917.5, 515)" font-size="12">trump</text><text x="205.0" y="515"  transform="rotate(60, 205.0, 515)" font-size="12">york</text><text x="692.5" y="515"  transform="rotate(60, 692.5, 515)" font-size="12">two</text><text x="330.0" y="515"  transform="rotate(60, 330.0, 515)" font-size="12">virus</text><text x="667.5" y="515"  transform="rotate(60, 667.5, 515)" font-size="12">minister</text><text x="642.5" y="515"  transform="rotate(60, 642.5, 515)" font-size="12">restriction</text><text x="455.0" y="515"  transform="rotate(60, 455.0, 515)" font-size="12">may</text><text x="805.0" y="515"  transform="rotate(60, 805.0, 515)" font-size="12">hospital</text><text x="605.0" y="515"  transform="rotate(60, 605.0, 515)" font-size="12">vaccine</text><text x="305.0" y="515"  transform="rotate(60, 305.0, 515)" font-size="12">year</text><text x="530.0" y="515"  transform="rotate(60, 530.0, 515)" font-size="12">study</text><text x="780.0" y="515"  transform="rotate(60, 780.0, 515)" font-size="12">white</text><text x="792.5" y="515"  transform="rotate(60, 792.5, 515)" font-size="12">house</text><text x="755.0" y="515"  transform="rotate(60, 755.0, 515)" font-size="12">make</text><text x="105.0" y="515"  transform="rotate(60, 105.0, 515)" font-size="12">risk</text><text x="555.0" y="515"  transform="rotate(60, 555.0, 515)" font-size="12">work</text><text x="967.5" y="515"  transform="rotate(60, 967.5, 515)" font-size="12">presidential</text><text x="980.0" y="515"  transform="rotate(60, 980.0, 515)" font-size="12">joe</text><text x="930.0" y="515"  transform="rotate(60, 930.0, 515)" font-size="12">negative</text><text x="867.5" y="515"  transform="rotate(60, 867.5, 515)" font-size="12">lady</text><text x="580.0" y="515"  transform="rotate(60, 580.0, 515)" font-size="12">clinical</text><text x="592.5" y="515"  transform="rotate(60, 592.5, 515)" font-size="12">trial</text><text x="942.5" y="515"  transform="rotate(60, 942.5, 515)" font-size="12">campaign</text><text x="655.0" y="515"  transform="rotate(60, 655.0, 515)" font-size="12">johnson</text><text x="955.0" y="515"  transform="rotate(60, 955.0, 515)" font-size="12">debate</text><text x="405.0" y="515"  transform="rotate(60, 405.0, 515)" font-size="12">mask</text><text x="267.5" y="515"  transform="rotate(60, 267.5, 515)" font-size="12">election</text><text x="617.5" y="515"  transform="rotate(60, 617.5, 515)" font-size="12">plan</text><path stroke-width="2" stroke="red" d="M 960.0 510 960.0 497.46557205671286" /><path stroke-width="2" stroke="red" d="M 972.5 510 972.5 497.46557205671286" /><path stroke-width="2" stroke="red" d="M 960.0 497.46557205671286 972.5 497.46557205671286" /><path stroke-width="2" stroke="blue" d="M 585.0 510 585.0 492.42318719708186" /><path stroke-width="2" stroke="blue" d="M 597.5 510 597.5 492.42318719708186" /><path stroke-width="2" stroke="blue" d="M 585.0 492.42318719708186 597.5 492.42318719708186" /><path stroke-width="2" stroke="blue" d="M 210.0 510 210.0 492.0503524242595" /><path stroke-width="2" stroke="blue" d="M 222.5 510 222.5 492.0503524242595" /><path stroke-width="2" stroke="blue" d="M 210.0 492.0503524242595 222.5 492.0503524242595" /><path stroke-width="2" stroke="red" d="M 966.25 497.46557205671286 966.25 487.34157711843" /><path stroke-width="2" stroke="red" d="M 985.0 510 985.0 487.34157711843" /><path stroke-width="2" stroke="red" d="M 966.25 487.34157711843 985.0 487.34157711843" /><path stroke-width="2" stroke="blue" d="M 660.0 510 660.0 483.9450118081669" /><path stroke-width="2" stroke="blue" d="M 672.5 510 672.5 483.9450118081669" /><path stroke-width="2" stroke="blue" d="M 660.0 483.9450118081669 672.5 483.9450118081669" /><path stroke-width="2" stroke="red" d="M 785.0 510 785.0 477.260291053782" /><path stroke-width="2" stroke="red" d="M 797.5 510 797.5 477.260291053782" /><path stroke-width="2" stroke="red" d="M 785.0 477.260291053782 797.5 477.260291053782" /><path stroke-width="2" stroke="blue" d="M 535.0 510 535.0 476.278131598872" /><path stroke-width="2" stroke="blue" d="M 547.5 510 547.5 476.278131598872" /><path stroke-width="2" stroke="blue" d="M 535.0 476.278131598872 547.5 476.278131598872" /><path stroke-width="2" stroke="blue" d="M 572.5 510 572.5 472.3172688266134" /><path stroke-width="2" stroke="blue" d="M 591.25 492.42318719708186 591.25 472.3172688266134" /><path stroke-width="2" stroke="blue" d="M 572.5 472.3172688266134 591.25 472.3172688266134" /><path stroke-width="2" stroke="blue" d="M 160.0 510 160.0 472.2077500367524" /><path stroke-width="2" stroke="blue" d="M 172.5 510 172.5 472.2077500367524" /><path stroke-width="2" stroke="blue" d="M 160.0 472.2077500367524 172.5 472.2077500367524" /><path stroke-width="2" stroke="blue" d="M 410.0 510 410.0 472.05789122210626" /><path stroke-width="2" stroke="blue" d="M 422.5 510 422.5 472.05789122210626" /><path stroke-width="2" stroke="blue" d="M 410.0 472.05789122210626 422.5 472.05789122210626" /><path stroke-width="2" stroke="red" d="M 935.0 510 935.0 471.9252601978153" /><path stroke-width="2" stroke="red" d="M 947.5 510 947.5 471.9252601978153" /><path stroke-width="2" stroke="red" d="M 935.0 471.9252601978153 947.5 471.9252601978153" /><path stroke-width="2" stroke="red" d="M 872.5 510 872.5 471.58993505790966" /><path stroke-width="2" stroke="red" d="M 885.0 510 885.0 471.58993505790966" /><path stroke-width="2" stroke="red" d="M 872.5 471.58993505790966 885.0 471.58993505790966" /><path stroke-width="2" stroke="red" d="M 822.5 510 822.5 467.07830037098137" /><path stroke-width="2" stroke="red" d="M 835.0 510 835.0 467.07830037098137" /><path stroke-width="2" stroke="red" d="M 822.5 467.07830037098137 835.0 467.07830037098137" /><path stroke-width="2" stroke="blue" d="M 635.0 510 635.0 466.47497665095926" /><path stroke-width="2" stroke="blue" d="M 647.5 510 647.5 466.47497665095926" /><path stroke-width="2" stroke="blue" d="M 635.0 466.47497665095926 647.5 466.47497665095926" /><path stroke-width="2" stroke="blue" d="M 110.0 510 110.0 466.337643393402" /><path stroke-width="2" stroke="blue" d="M 122.5 510 122.5 466.337643393402" /><path stroke-width="2" stroke="blue" d="M 110.0 466.337643393402 122.5 466.337643393402" /><path stroke-width="2" stroke="blue" d="M 541.25 476.278131598872 541.25 461.8929878259682" /><path stroke-width="2" stroke="blue" d="M 560.0 510 560.0 461.8929878259682" /><path stroke-width="2" stroke="blue" d="M 541.25 461.8929878259682 560.0 461.8929878259682" /><path stroke-width="2" stroke="blue" d="M 581.875 472.3172688266134 581.875 460.1950787090759" /><path stroke-width="2" stroke="blue" d="M 610.0 510 610.0 460.1950787090759" /><path stroke-width="2" stroke="blue" d="M 581.875 460.1950787090759 610.0 460.1950787090759" /><path stroke-width="2" stroke="blue" d="M 85.0 510 85.0 459.71649812891366" /><path stroke-width="2" stroke="blue" d="M 97.5 510 97.5 459.71649812891366" /><path stroke-width="2" stroke="blue" d="M 85.0 459.71649812891366 97.5 459.71649812891366" /><path stroke-width="2" stroke="red" d="M 941.25 471.9252601978153 941.25 458.01400872704204" /><path stroke-width="2" stroke="red" d="M 975.625 487.34157711843 975.625 458.01400872704204" /><path stroke-width="2" stroke="red" d="M 941.25 458.01400872704204 975.625 458.01400872704204" /><path stroke-width="2" stroke="blue" d="M 22.5 510 22.5 457.77565370999" /><path stroke-width="2" stroke="blue" d="M 35.0 510 35.0 457.77565370999" /><path stroke-width="2" stroke="blue" d="M 22.5 457.77565370999 35.0 457.77565370999" /><path stroke-width="2" stroke="blue" d="M 472.5 510 472.5 450.33531677273544" /><path stroke-width="2" stroke="blue" d="M 485.0 510 485.0 450.33531677273544" /><path stroke-width="2" stroke="blue" d="M 472.5 450.33531677273544 485.0 450.33531677273544" /><path stroke-width="2" stroke="blue" d="M 297.5 510 297.5 449.4436407403696" /><path stroke-width="2" stroke="blue" d="M 310.0 510 310.0 449.4436407403696" /><path stroke-width="2" stroke="blue" d="M 297.5 449.4436407403696 310.0 449.4436407403696" /><path stroke-width="2" stroke="blue" d="M 216.25 492.0503524242595 216.25 447.32296313316624" /><path stroke-width="2" stroke="blue" d="M 235.0 510 235.0 447.32296313316624" /><path stroke-width="2" stroke="blue" d="M 216.25 447.32296313316624 235.0 447.32296313316624" /><path stroke-width="2" stroke="blue" d="M 335.0 510 335.0 446.0013951420736" /><path stroke-width="2" stroke="blue" d="M 347.5 510 347.5 446.0013951420736" /><path stroke-width="2" stroke="blue" d="M 335.0 446.0013951420736 347.5 446.0013951420736" /><path stroke-width="2" stroke="blue" d="M 697.5 510 697.5 445.13288456455825" /><path stroke-width="2" stroke="blue" d="M 710.0 510 710.0 445.13288456455825" /><path stroke-width="2" stroke="blue" d="M 697.5 445.13288456455825 710.0 445.13288456455825" /><path stroke-width="2" stroke="blue" d="M 60.0 510 60.0 443.8826926278754" /><path stroke-width="2" stroke="blue" d="M 72.5 510 72.5 443.8826926278754" /><path stroke-width="2" stroke="blue" d="M 60.0 443.8826926278754 72.5 443.8826926278754" /><path stroke-width="2" stroke="blue" d="M 272.5 510 272.5 443.84055999095807" /><path stroke-width="2" stroke="blue" d="M 285.0 510 285.0 443.84055999095807" /><path stroke-width="2" stroke="blue" d="M 272.5 443.84055999095807 285.0 443.84055999095807" /><path stroke-width="2" stroke="red" d="M 847.5 510 847.5 443.7309947346881" /><path stroke-width="2" stroke="red" d="M 860.0 510 860.0 443.7309947346881" /><path stroke-width="2" stroke="red" d="M 847.5 443.7309947346881 860.0 443.7309947346881" /><path stroke-width="2" stroke="blue" d="M 641.25 466.47497665095926 641.25 440.7187422398051" /><path stroke-width="2" stroke="blue" d="M 666.25 483.9450118081669 666.25 440.7187422398051" /><path stroke-width="2" stroke="blue" d="M 641.25 440.7187422398051 666.25 440.7187422398051" /><path stroke-width="2" stroke="blue" d="M 478.75 450.33531677273544 478.75 437.5094156286674" /><path stroke-width="2" stroke="blue" d="M 497.5 510 497.5 437.5094156286674" /><path stroke-width="2" stroke="blue" d="M 478.75 437.5094156286674 497.5 437.5094156286674" /><path stroke-width="2" stroke="blue" d="M 147.5 510 147.5 429.84302044009536" /><path stroke-width="2" stroke="blue" d="M 166.25 472.2077500367524 166.25 429.84302044009536" /><path stroke-width="2" stroke="blue" d="M 147.5 429.84302044009536 166.25 429.84302044009536" /><path stroke-width="2" stroke="blue" d="M 735.0 510 735.0 426.70821996660527" /><path stroke-width="2" stroke="blue" d="M 747.5 510 747.5 426.70821996660527" /><path stroke-width="2" stroke="blue" d="M 735.0 426.70821996660527 747.5 426.70821996660527" /><path stroke-width="2" stroke="blue" d="M 116.25 466.337643393402 116.25 424.54368672575043" /><path stroke-width="2" stroke="blue" d="M 135.0 510 135.0 424.54368672575043" /><path stroke-width="2" stroke="blue" d="M 116.25 424.54368672575043 135.0 424.54368672575043" /><path stroke-width="2" stroke="blue" d="M 66.25 443.8826926278754 66.25 418.9872017026455" /><path stroke-width="2" stroke="blue" d="M 91.25 459.71649812891366 91.25 418.9872017026455" /><path stroke-width="2" stroke="blue" d="M 66.25 418.9872017026455 91.25 418.9872017026455" /><path stroke-width="2" stroke="blue" d="M 435.0 510 435.0 418.72506508142783" /><path stroke-width="2" stroke="blue" d="M 447.5 510 447.5 418.72506508142783" /><path stroke-width="2" stroke="blue" d="M 435.0 418.72506508142783 447.5 418.72506508142783" /><path stroke-width="2" stroke="red" d="M 910.0 510 910.0 415.89889939246984" /><path stroke-width="2" stroke="red" d="M 922.5 510 922.5 415.89889939246984" /><path stroke-width="2" stroke="red" d="M 910.0 415.89889939246984 922.5 415.89889939246984" /><path stroke-width="2" stroke="blue" d="M 156.875 429.84302044009536 156.875 414.4728480550843" /><path stroke-width="2" stroke="blue" d="M 185.0 510 185.0 414.4728480550843" /><path stroke-width="2" stroke="blue" d="M 156.875 414.4728480550843 185.0 414.4728480550843" /><path stroke-width="2" stroke="blue" d="M 550.625 461.8929878259682 550.625 413.7218207751536" /><path stroke-width="2" stroke="blue" d="M 595.9375 460.1950787090759 595.9375 413.7218207751536" /><path stroke-width="2" stroke="blue" d="M 550.625 413.7218207751536 595.9375 413.7218207751536" /><path stroke-width="2" stroke="blue" d="M 722.5 510 722.5 412.15184630205243" /><path stroke-width="2" stroke="blue" d="M 741.25 426.70821996660527 741.25 412.15184630205243" /><path stroke-width="2" stroke="blue" d="M 722.5 412.15184630205243 741.25 412.15184630205243" /><path stroke-width="2" stroke="blue" d="M 28.75 457.77565370999 28.75 409.6372446174615" /><path stroke-width="2" stroke="blue" d="M 47.5 510 47.5 409.6372446174615" /><path stroke-width="2" stroke="blue" d="M 28.75 409.6372446174615 47.5 409.6372446174615" /><path stroke-width="2" stroke="red" d="M 791.25 477.260291053782 791.25 408.1901753755063" /><path stroke-width="2" stroke="red" d="M 810.0 510 810.0 408.1901753755063" /><path stroke-width="2" stroke="red" d="M 791.25 408.1901753755063 810.0 408.1901753755063" /><path stroke-width="2" stroke="blue" d="M 247.5 510 247.5 407.03362228401335" /><path stroke-width="2" stroke="blue" d="M 260.0 510 260.0 407.03362228401335" /><path stroke-width="2" stroke="blue" d="M 247.5 407.03362228401335 260.0 407.03362228401335" /><path stroke-width="2" stroke="blue" d="M 372.5 510 372.5 406.0699600870859" /><path stroke-width="2" stroke="blue" d="M 385.0 510 385.0 406.0699600870859" /><path stroke-width="2" stroke="blue" d="M 372.5 406.0699600870859 385.0 406.0699600870859" /><path stroke-width="2" stroke="blue" d="M 397.5 510 397.5 405.21791510731487" /><path stroke-width="2" stroke="blue" d="M 416.25 472.05789122210626 416.25 405.21791510731487" /><path stroke-width="2" stroke="blue" d="M 397.5 405.21791510731487 416.25 405.21791510731487" /><path stroke-width="2" stroke="blue" d="M 488.125 437.5094156286674 488.125 403.02086542069577" /><path stroke-width="2" stroke="blue" d="M 510.0 510 510.0 403.02086542069577" /><path stroke-width="2" stroke="blue" d="M 488.125 403.02086542069577 510.0 403.02086542069577" /><path stroke-width="2" stroke="red" d="M 916.25 415.89889939246984 916.25 402.17155531858157" /><path stroke-width="2" stroke="red" d="M 958.4375 458.01400872704204 958.4375 402.17155531858157" /><path stroke-width="2" stroke="red" d="M 916.25 402.17155531858157 958.4375 402.17155531858157" /><path stroke-width="2" stroke="blue" d="M 170.9375 414.4728480550843 170.9375 398.7765845379299" /><path stroke-width="2" stroke="blue" d="M 197.5 510 197.5 398.7765845379299" /><path stroke-width="2" stroke="blue" d="M 170.9375 398.7765845379299 197.5 398.7765845379299" /><path stroke-width="2" stroke="blue" d="M 731.875 412.15184630205243 731.875 392.85879659512983" /><path stroke-width="2" stroke="blue" d="M 760.0 510 760.0 392.85879659512983" /><path stroke-width="2" stroke="blue" d="M 731.875 392.85879659512983 760.0 392.85879659512983" /><path stroke-width="2" stroke="blue" d="M 441.25 418.72506508142783 441.25 391.82952374033704" /><path stroke-width="2" stroke="blue" d="M 460.0 510 460.0 391.82952374033704" /><path stroke-width="2" stroke="blue" d="M 441.25 391.82952374033704 460.0 391.82952374033704" /><path stroke-width="2" stroke="red" d="M 878.75 471.58993505790966 878.75 390.32113436515306" /><path stroke-width="2" stroke="red" d="M 897.5 510 897.5 390.32113436515306" /><path stroke-width="2" stroke="red" d="M 878.75 390.32113436515306 897.5 390.32113436515306" /><path stroke-width="2" stroke="blue" d="M 573.28125 413.7218207751536 573.28125 380.19859176454736" /><path stroke-width="2" stroke="blue" d="M 622.5 510 622.5 380.19859176454736" /><path stroke-width="2" stroke="blue" d="M 573.28125 380.19859176454736 622.5 380.19859176454736" /><path stroke-width="2" stroke="blue" d="M 278.75 443.84055999095807 278.75 376.0465123627921" /><path stroke-width="2" stroke="blue" d="M 303.75 449.4436407403696 303.75 376.0465123627921" /><path stroke-width="2" stroke="blue" d="M 278.75 376.0465123627921 303.75 376.0465123627921" /><path stroke-width="2" stroke="blue" d="M 703.75 445.13288456455825 703.75 360.92848613680803" /><path stroke-width="2" stroke="blue" d="M 745.9375 392.85879659512983 745.9375 360.92848613680803" /><path stroke-width="2" stroke="blue" d="M 703.75 360.92848613680803 745.9375 360.92848613680803" /><path stroke-width="2" stroke="blue" d="M 78.75 418.9872017026455 78.75 359.78908364049164" /><path stroke-width="2" stroke="blue" d="M 125.625 424.54368672575043 125.625 359.78908364049164" /><path stroke-width="2" stroke="blue" d="M 78.75 359.78908364049164 125.625 359.78908364049164" /><path stroke-width="2" stroke="blue" d="M 10.0 510 10.0 356.93067505989063" /><path stroke-width="2" stroke="blue" d="M 38.125 409.6372446174615 38.125 356.93067505989063" /><path stroke-width="2" stroke="blue" d="M 10.0 356.93067505989063 38.125 356.93067505989063" /><path stroke-width="2" stroke="red" d="M 800.625 408.1901753755063 800.625 356.7148077666214" /><path stroke-width="2" stroke="red" d="M 828.75 467.07830037098137 828.75 356.7148077666214" /><path stroke-width="2" stroke="red" d="M 800.625 356.7148077666214 828.75 356.7148077666214" /><path stroke-width="2" stroke="blue" d="M 184.21875 398.7765845379299 184.21875 356.347870773596" /><path stroke-width="2" stroke="blue" d="M 225.625 447.32296313316624 225.625 356.347870773596" /><path stroke-width="2" stroke="blue" d="M 184.21875 356.347870773596 225.625 356.347870773596" /><path stroke-width="2" stroke="blue" d="M 499.0625 403.02086542069577 499.0625 349.9837789177652" /><path stroke-width="2" stroke="blue" d="M 522.5 510 522.5 349.9837789177652" /><path stroke-width="2" stroke="blue" d="M 499.0625 349.9837789177652 522.5 349.9837789177652" /><path stroke-width="2" stroke="blue" d="M 291.25 376.0465123627921 291.25 349.57408060960483" /><path stroke-width="2" stroke="blue" d="M 322.5 510 322.5 349.57408060960483" /><path stroke-width="2" stroke="blue" d="M 291.25 349.57408060960483 322.5 349.57408060960483" /><path stroke-width="2" stroke="blue" d="M 597.890625 380.19859176454736 597.890625 335.2426047932968" /><path stroke-width="2" stroke="blue" d="M 653.75 440.7187422398051 653.75 335.2426047932968" /><path stroke-width="2" stroke="blue" d="M 597.890625 335.2426047932968 653.75 335.2426047932968" /><path stroke-width="2" stroke="red" d="M 888.125 390.32113436515306 888.125 331.5435186218448" /><path stroke-width="2" stroke="red" d="M 937.34375 402.17155531858157 937.34375 331.5435186218448" /><path stroke-width="2" stroke="red" d="M 888.125 331.5435186218448 937.34375 331.5435186218448" /><path stroke-width="2" stroke="blue" d="M 24.0625 356.93067505989063 24.0625 312.25848400998376" /><path stroke-width="2" stroke="blue" d="M 102.1875 359.78908364049164 102.1875 312.25848400998376" /><path stroke-width="2" stroke="blue" d="M 24.0625 312.25848400998376 102.1875 312.25848400998376" /><path stroke-width="2" stroke="red" d="M 853.75 443.7309947346881 853.75 310.73207857202493" /><path stroke-width="2" stroke="red" d="M 912.734375 331.5435186218448 912.734375 310.73207857202493" /><path stroke-width="2" stroke="red" d="M 853.75 310.73207857202493 912.734375 310.73207857202493" /><path stroke-width="2" stroke="blue" d="M 204.921875 356.347870773596 204.921875 309.6825168328463" /><path stroke-width="2" stroke="blue" d="M 253.75 407.03362228401335 253.75 309.6825168328463" /><path stroke-width="2" stroke="blue" d="M 204.921875 309.6825168328463 253.75 309.6825168328463" /><path stroke-width="2" stroke="red" d="M 814.6875 356.7148077666214 814.6875 305.8062548048638" /><path stroke-width="2" stroke="red" d="M 883.2421875 310.73207857202493 883.2421875 305.8062548048638" /><path stroke-width="2" stroke="red" d="M 814.6875 305.8062548048638 883.2421875 305.8062548048638" /><path stroke-width="2" stroke="blue" d="M 341.25 446.0013951420736 341.25 301.0560032005024" /><path stroke-width="2" stroke="blue" d="M 360.0 510 360.0 301.0560032005024" /><path stroke-width="2" stroke="blue" d="M 341.25 301.0560032005024 360.0 301.0560032005024" /><path stroke-width="2" stroke="blue" d="M 406.875 405.21791510731487 406.875 295.77000362814323" /><path stroke-width="2" stroke="blue" d="M 450.625 391.82952374033704 450.625 295.77000362814323" /><path stroke-width="2" stroke="blue" d="M 406.875 295.77000362814323 450.625 295.77000362814323" /><path stroke-width="2" stroke="blue" d="M 625.8203125 335.2426047932968 625.8203125 294.77596912271747" /><path stroke-width="2" stroke="blue" d="M 685.0 510 685.0 294.77596912271747" /><path stroke-width="2" stroke="blue" d="M 625.8203125 294.77596912271747 685.0 294.77596912271747" /><path stroke-width="2" stroke="blue" d="M 63.125 312.25848400998376 63.125 283.79963943626797" /><path stroke-width="2" stroke="blue" d="M 229.3359375 309.6825168328463 229.3359375 283.79963943626797" /><path stroke-width="2" stroke="blue" d="M 63.125 283.79963943626797 229.3359375 283.79963943626797" /><path stroke-width="2" stroke="blue" d="M 428.75 295.77000362814323 428.75 262.53897918229194" /><path stroke-width="2" stroke="blue" d="M 510.78125 349.9837789177652 510.78125 262.53897918229194" /><path stroke-width="2" stroke="blue" d="M 428.75 262.53897918229194 510.78125 262.53897918229194" /><path stroke-width="2" stroke="red" d="M 772.5 510 772.5 260.87411007914426" /><path stroke-width="2" stroke="red" d="M 848.96484375 305.8062548048638 848.96484375 260.87411007914426" /><path stroke-width="2" stroke="red" d="M 772.5 260.87411007914426 848.96484375 260.87411007914426" /><path stroke-width="2" stroke="blue" d="M 306.875 349.57408060960483 306.875 251.80261400344313" /><path stroke-width="2" stroke="blue" d="M 350.625 301.0560032005024 350.625 251.80261400344313" /><path stroke-width="2" stroke="blue" d="M 306.875 251.80261400344313 350.625 251.80261400344313" /><path stroke-width="2" stroke="blue" d="M 655.41015625 294.77596912271747 655.41015625 246.08928359866286" /><path stroke-width="2" stroke="blue" d="M 724.84375 360.92848613680803 724.84375 246.08928359866286" /><path stroke-width="2" stroke="blue" d="M 655.41015625 246.08928359866286 724.84375 246.08928359866286" /><path stroke-width="2" stroke="blue" d="M 328.75 251.80261400344313 328.75 237.09486553779504" /><path stroke-width="2" stroke="blue" d="M 378.75 406.0699600870859 378.75 237.09486553779504" /><path stroke-width="2" stroke="blue" d="M 328.75 237.09486553779504 378.75 237.09486553779504" /><path stroke-width="2" stroke="blue" d="M 353.75 237.09486553779504 353.75 220.00491740726437" /><path stroke-width="2" stroke="blue" d="M 469.765625 262.53897918229194 469.765625 220.00491740726437" /><path stroke-width="2" stroke="blue" d="M 353.75 220.00491740726437 469.765625 220.00491740726437" /><path stroke-width="2" stroke="red" d="M 810.732421875 260.87411007914426 810.732421875 214.48490027612576" /><path stroke-width="2" stroke="red" d="M 997.5 510 997.5 214.48490027612576" /><path stroke-width="2" stroke="red" d="M 810.732421875 214.48490027612576 997.5 214.48490027612576" /><path stroke-width="2" stroke="blue" d="M 146.23046875 283.79963943626797 146.23046875 169.29746834000485" /><path stroke-width="2" stroke="blue" d="M 411.7578125 220.00491740726437 411.7578125 169.29746834000485" /><path stroke-width="2" stroke="blue" d="M 146.23046875 169.29746834000485 411.7578125 169.29746834000485" /><path stroke-width="2" stroke="blue" d="M 278.994140625 169.29746834000485 278.994140625 150.40505630026945" /><path stroke-width="2" stroke="blue" d="M 690.126953125 246.08928359866286 690.126953125 150.40505630026945" /><path stroke-width="2" stroke="blue" d="M 278.994140625 150.40505630026945 690.126953125 150.40505630026945" /><path stroke-width="2" stroke="black" d="M 484.560546875 150.40505630026945 484.560546875 10.0" /><path stroke-width="2" stroke="black" d="M 904.1162109375 214.48490027612576 904.1162109375 10.0" /><path stroke-width="2" stroke="black" d="M 484.560546875 10.0 904.1162109375 10.0" /></svg>