<svg width="1020" height="597.0"  xmlns="http://www.w3.org/2000/svg"><text x="99.73684210526316" y="515"  transform="rotate(60, 99.73684210526316, 515)" font-size="12">china</text><text x="373.42105263157896" y="515"  transform="rotate(60, 373.42105263157896, 515)" font-size="12">novel</text><text x="120.78947368421053" y="515"  transform="rotate(60, 120.78947368421053, 515)" font-size="12">outbreak</text><text x="5.0" y="515"  transform="rotate(60, 5.0, 515)" font-size="12">medical</text><text x="531.3157894736843" y="515"  transform="rotate(60, 531.3157894736843, 515)" font-size="12">people</text><text x="478.68421052631584" y="515"  transform="rotate(60, 478.68421052631584, 515)" font-size="12">world</text><text x="320.7894736842105" y="515"  transform="rotate(60, 320.7894736842105, 515)" font-size="12">disease</text><text x="278.68421052631584" y="515"  transform="rotate(60, 278.68421052631584, 515)" font-size="12">take</text><text x="457.63157894736844" y="515"  transform="rotate(60, 457.63157894736844, 515)" font-size="12">health</text><text x="468.15789473684214" y="515"  transform="rotate(60, 468.15789473684214, 515)" font-size="12">organization</text><text x="299.7368421052632" y="515"  transform="rotate(60, 299.7368421052632, 515)" font-size="12">expert</text><text x="994.4736842105264" y="515"  transform="rotate(60, 994.4736842105264, 515)" font-size="12">outside</text><text x="720.7894736842106" y="515"  transform="rotate(60, 720.7894736842106, 515)" font-size="12">confirm</text><text x="710.2631578947369" y="515"  transform="rotate(60, 710.2631578947369, 515)" font-size="12">case</text><text x="615.5263157894738" y="515"  transform="rotate(60, 615.5263157894738, 515)" font-size="12">cruise</text><text x="605.0" y="515"  transform="rotate(60, 605.0, 515)" font-size="12">ship</text><text x="636.578947368421" y="515"  transform="rotate(60, 636.578947368421, 515)" font-size="12">japan</text><text x="257.63157894736844" y="515"  transform="rotate(60, 257.63157894736844, 515)" font-size="12">country</text><text x="183.94736842105266" y="515"  transform="rotate(60, 183.94736842105266, 515)" font-size="12">live</text><text x="141.84210526315792" y="515"  transform="rotate(60, 141.84210526315792, 515)" font-size="12">state</text><text x="341.8421052631579" y="515"  transform="rotate(60, 341.8421052631579, 515)" font-size="12">prevention</text><text x="889.2105263157896" y="515"  transform="rotate(60, 889.2105263157896, 515)" font-size="12">central</text><text x="899.7368421052632" y="515"  transform="rotate(60, 899.7368421052632, 515)" font-size="12">epicenter</text><text x="194.47368421052633" y="515"  transform="rotate(60, 194.47368421052633, 515)" font-size="12">late</text><text x="868.1578947368422" y="515"  transform="rotate(60, 868.1578947368422, 515)" font-size="12">hubei</text><text x="878.6842105263158" y="515"  transform="rotate(60, 878.6842105263158, 515)" font-size="12">province</text><text x="89.21052631578948" y="515"  transform="rotate(60, 89.21052631578948, 515)" font-size="12">support</text><text x="920.7894736842106" y="515"  transform="rotate(60, 920.7894736842106, 515)" font-size="12">hospital</text><text x="15.526315789473685" y="515"  transform="rotate(60, 15.526315789473685, 515)" font-size="12">help</text><text x="68.15789473684211" y="515"  transform="rotate(60, 68.15789473684211, 515)" font-size="12">fight</text><text x="236.57894736842107" y="515"  transform="rotate(60, 236.57894736842107, 515)" font-size="12">contain</text><text x="47.10526315789474" y="515"  transform="rotate(60, 47.10526315789474, 515)" font-size="12">epidemic</text><text x="268.15789473684214" y="515"  transform="rotate(60, 268.15789473684214, 515)" font-size="12">say</text><text x="226.0526315789474" y="515"  transform="rotate(60, 226.0526315789474, 515)" font-size="12">effort</text><text x="110.26315789473685" y="515"  transform="rotate(60, 110.26315789473685, 515)" font-size="12">amid</text><text x="794.4736842105264" y="515"  transform="rotate(60, 794.4736842105264, 515)" font-size="12">number</text><text x="415.5263157894737" y="515"  transform="rotate(60, 415.5263157894737, 515)" font-size="12">day</text><text x="541.8421052631579" y="515"  transform="rotate(60, 541.8421052631579, 515)" font-size="12">virus</text><text x="741.8421052631579" y="515"  transform="rotate(60, 741.8421052631579, 515)" font-size="12">include</text><text x="36.578947368421055" y="515"  transform="rotate(60, 36.578947368421055, 515)" font-size="12">mask</text><text x="78.6842105263158" y="515"  transform="rotate(60, 78.6842105263158, 515)" font-size="12">show</text><text x="352.3684210526316" y="515"  transform="rotate(60, 352.3684210526316, 515)" font-size="12">official</text><text x="331.3157894736842" y="515"  transform="rotate(60, 331.3157894736842, 515)" font-size="12">control</text><text x="773.421052631579" y="515"  transform="rotate(60, 773.421052631579, 515)" font-size="12">total</text><text x="678.6842105263158" y="515"  transform="rotate(60, 678.6842105263158, 515)" font-size="12">work</text><text x="731.3157894736843" y="515"  transform="rotate(60, 731.3157894736843, 515)" font-size="12">one</text><text x="394.47368421052636" y="515"  transform="rotate(60, 394.47368421052636, 515)" font-size="12">national</text><text x="383.94736842105266" y="515"  transform="rotate(60, 383.94736842105266, 515)" font-size="12">commission</text><text x="931.3157894736843" y="515"  transform="rotate(60, 931.3157894736843, 515)" font-size="12">treatment</text><text x="173.42105263157896" y="515"  transform="rotate(60, 173.42105263157896, 515)" font-size="12">update</text><text x="489.2105263157895" y="515"  transform="rotate(60, 489.2105263157895, 515)" font-size="12">around</text><text x="815.5263157894738" y="515"  transform="rotate(60, 815.5263157894738, 515)" font-size="12">new</text><text x="552.3684210526317" y="515"  transform="rotate(60, 552.3684210526317, 515)" font-size="12">die</text><text x="289.2105263157895" y="515"  transform="rotate(60, 289.2105263157895, 515)" font-size="12">measure</text><text x="910.2631578947369" y="515"  transform="rotate(60, 910.2631578947369, 515)" font-size="12">city</text><text x="57.631578947368425" y="515"  transform="rotate(60, 57.631578947368425, 515)" font-size="12">battle</text><text x="152.3684210526316" y="515"  transform="rotate(60, 152.3684210526316, 515)" font-size="12">due</text><text x="215.5263157894737" y="515"  transform="rotate(60, 215.5263157894737, 515)" font-size="12">authority</text><text x="362.8947368421053" y="515"  transform="rotate(60, 362.8947368421053, 515)" font-size="12">pneumonia</text><text x="447.1052631578948" y="515"  transform="rotate(60, 447.1052631578948, 515)" font-size="12">global</text><text x="405.0" y="515"  transform="rotate(60, 405.0, 515)" font-size="12">accord</text><text x="857.6315789473684" y="515"  transform="rotate(60, 857.6315789473684, 515)" font-size="12">death</text><text x="699.7368421052632" y="515"  transform="rotate(60, 699.7368421052632, 515)" font-size="12">confirmed</text><text x="499.7368421052632" y="515"  transform="rotate(60, 499.7368421052632, 515)" font-size="12">infect</text><text x="941.8421052631579" y="515"  transform="rotate(60, 941.8421052631579, 515)" font-size="12">patient</text><text x="247.10526315789474" y="515"  transform="rotate(60, 247.10526315789474, 515)" font-size="12">spread</text><text x="973.421052631579" y="515"  transform="rotate(60, 973.421052631579, 515)" font-size="12">year</text><text x="962.8947368421053" y="515"  transform="rotate(60, 962.8947368421053, 515)" font-size="12">old</text><text x="952.3684210526317" y="515"  transform="rotate(60, 952.3684210526317, 515)" font-size="12">discharge</text><text x="983.9473684210527" y="515"  transform="rotate(60, 983.9473684210527, 515)" font-size="12">first</text><text x="26.05263157894737" y="515"  transform="rotate(60, 26.05263157894737, 515)" font-size="12">million</text><text x="826.0526315789474" y="515"  transform="rotate(60, 826.0526315789474, 515)" font-size="12">report</text><text x="594.4736842105264" y="515"  transform="rotate(60, 594.4736842105264, 515)" font-size="12">evacuate</text><text x="573.421052631579" y="515"  transform="rotate(60, 573.421052631579, 515)" font-size="12">test</text><text x="836.5789473684212" y="515"  transform="rotate(60, 836.5789473684212, 515)" font-size="12">toll</text><text x="752.3684210526317" y="515"  transform="rotate(60, 752.3684210526317, 515)" font-size="12">macao</text><text x="762.8947368421053" y="515"  transform="rotate(60, 762.8947368421053, 515)" font-size="12">taiwan</text><text x="805.0" y="515"  transform="rotate(60, 805.0, 515)" font-size="12">infection</text><text x="562.8947368421053" y="515"  transform="rotate(60, 562.8947368421053, 515)" font-size="12">doctor</text><text x="783.9473684210527" y="515"  transform="rotate(60, 783.9473684210527, 515)" font-size="12">bring</text><text x="689.2105263157895" y="515"  transform="rotate(60, 689.2105263157895, 515)" font-size="12">government</text><text x="647.1052631578948" y="515"  transform="rotate(60, 647.1052631578948, 515)" font-size="12">quarantine</text><text x="668.1578947368422" y="515"  transform="rotate(60, 668.1578947368422, 515)" font-size="12">hong</text><text x="657.6315789473684" y="515"  transform="rotate(60, 657.6315789473684, 515)" font-size="12">two</text><text x="426.0526315789474" y="515"  transform="rotate(60, 426.0526315789474, 515)" font-size="12">public</text><text x="436.5789473684211" y="515"  transform="rotate(60, 436.5789473684211, 515)" font-size="12">emergency</text><text x="847.1052631578948" y="515"  transform="rotate(60, 847.1052631578948, 515)" font-size="12">rise</text><text x="162.89473684210526" y="515"  transform="rotate(60, 162.89473684210526, 515)" font-size="12">flight</text><text x="131.31578947368422" y="515"  transform="rotate(60, 131.31578947368422, 515)" font-size="12">travel</text><text x="205.0" y="515"  transform="rotate(60, 205.0, 515)" font-size="12">beyond</text><text x="520.7894736842105" y="515"  transform="rotate(60, 520.7894736842105, 515)" font-size="12">least</text><text x="583.9473684210527" y="515"  transform="rotate(60, 583.9473684210527, 515)" font-size="12">positive</text><text x="310.2631578947369" y="515"  transform="rotate(60, 310.2631578947369, 515)" font-size="12">center</text><text x="626.0526315789474" y="515"  transform="rotate(60, 626.0526315789474, 515)" font-size="12">passenger</text><text x="510.2631578947369" y="515"  transform="rotate(60, 510.2631578947369, 515)" font-size="12">kill</text><path stroke-width="2" stroke="blue" d="M 31.05263157894737 510 31.05263157894737 501.5822571926114" /><path stroke-width="2" stroke="blue" d="M 41.578947368421055 510 41.578947368421055 501.5822571926114" /><path stroke-width="2" stroke="blue" d="M 31.05263157894737 501.5822571926114 41.578947368421055 501.5822571926114" /><path stroke-width="2" stroke="red" d="M 757.3684210526317 510 757.3684210526317 500.55673238761386" /><path stroke-width="2" stroke="red" d="M 767.8947368421053 510 767.8947368421053 500.55673238761386" /><path stroke-width="2" stroke="red" d="M 757.3684210526317 500.55673238761386 767.8947368421053 500.55673238761386" /><path stroke-width="2" stroke="blue" d="M 199.47368421052633 510 199.47368421052633 499.6553650804735" /><path stroke-width="2" stroke="blue" d="M 210.0 510 210.0 499.6553650804735" /><path stroke-width="2" stroke="blue" d="M 199.47368421052633 499.6553650804735 210.0 499.6553650804735" /><path stroke-width="2" stroke="blue" d="M 336.3157894736842 510 336.3157894736842 499.3845021215724" /><path stroke-width="2" stroke="blue" d="M 346.8421052631579 510 346.8421052631579 499.3845021215724" /><path stroke-width="2" stroke="blue" d="M 336.3157894736842 499.3845021215724 346.8421052631579 499.3845021215724" /><path stroke-width="2" stroke="red" d="M 967.8947368421053 510 967.8947368421053 498.44990987074885" /><path stroke-width="2" stroke="red" d="M 978.421052631579 510 978.421052631579 498.44990987074885" /><path stroke-width="2" stroke="red" d="M 967.8947368421053 498.44990987074885 978.421052631579 498.44990987074885" /><path stroke-width="2" stroke="blue" d="M 431.0526315789474 510 431.0526315789474 498.12150067017564" /><path stroke-width="2" stroke="blue" d="M 441.5789473684211 510 441.5789473684211 498.12150067017564" /><path stroke-width="2" stroke="blue" d="M 431.0526315789474 498.12150067017564 441.5789473684211 498.12150067017564" /><path stroke-width="2" stroke="blue" d="M 157.3684210526316 510 157.3684210526316 497.09202387564454" /><path stroke-width="2" stroke="blue" d="M 167.89473684210526 510 167.89473684210526 497.09202387564454" /><path stroke-width="2" stroke="blue" d="M 157.3684210526316 497.09202387564454 167.89473684210526 497.09202387564454" /><path stroke-width="2" stroke="blue" d="M 578.421052631579 510 578.421052631579 496.6389385229691" /><path stroke-width="2" stroke="blue" d="M 588.9473684210527 510 588.9473684210527 496.6389385229691" /><path stroke-width="2" stroke="blue" d="M 578.421052631579 496.6389385229691 588.9473684210527 496.6389385229691" /><path stroke-width="2" stroke="blue" d="M 283.68421052631584 510 283.68421052631584 496.083728525327" /><path stroke-width="2" stroke="blue" d="M 294.2105263157895 510 294.2105263157895 496.083728525327" /><path stroke-width="2" stroke="blue" d="M 283.68421052631584 496.083728525327 294.2105263157895 496.083728525327" /><path stroke-width="2" stroke="blue" d="M 388.94736842105266 510 388.94736842105266 495.29228303516817" /><path stroke-width="2" stroke="blue" d="M 399.47368421052636 510 399.47368421052636 495.29228303516817" /><path stroke-width="2" stroke="blue" d="M 388.94736842105266 495.29228303516817 399.47368421052636 495.29228303516817" /><path stroke-width="2" stroke="blue" d="M 20.526315789473685 510 20.526315789473685 494.37001771844535" /><path stroke-width="2" stroke="blue" d="M 36.31578947368421 501.5822571926114 36.31578947368421 494.37001771844535" /><path stroke-width="2" stroke="blue" d="M 20.526315789473685 494.37001771844535 36.31578947368421 494.37001771844535" /><path stroke-width="2" stroke="blue" d="M 683.6842105263158 510 683.6842105263158 493.6359372397036" /><path stroke-width="2" stroke="blue" d="M 694.2105263157895 510 694.2105263157895 493.6359372397036" /><path stroke-width="2" stroke="blue" d="M 683.6842105263158 493.6359372397036 694.2105263157895 493.6359372397036" /><path stroke-width="2" stroke="blue" d="M 473.15789473684214 510 473.15789473684214 493.2388237364575" /><path stroke-width="2" stroke="blue" d="M 483.68421052631584 510 483.68421052631584 493.2388237364575" /><path stroke-width="2" stroke="blue" d="M 473.15789473684214 493.2388237364575 483.68421052631584 493.2388237364575" /><path stroke-width="2" stroke="blue" d="M 315.2631578947369 510 315.2631578947369 493.1516841921895" /><path stroke-width="2" stroke="blue" d="M 325.7894736842105 510 325.7894736842105 493.1516841921895" /><path stroke-width="2" stroke="blue" d="M 315.2631578947369 493.1516841921895 325.7894736842105 493.1516841921895" /><path stroke-width="2" stroke="blue" d="M 557.3684210526317 510 557.3684210526317 493.0245922784266" /><path stroke-width="2" stroke="blue" d="M 567.8947368421053 510 567.8947368421053 493.0245922784266" /><path stroke-width="2" stroke="blue" d="M 557.3684210526317 493.0245922784266 567.8947368421053 493.0245922784266" /><path stroke-width="2" stroke="red" d="M 746.8421052631579 510 746.8421052631579 492.0942638072551" /><path stroke-width="2" stroke="red" d="M 762.6315789473686 500.55673238761386 762.6315789473686 492.0942638072551" /><path stroke-width="2" stroke="red" d="M 746.8421052631579 492.0942638072551 762.6315789473686 492.0942638072551" /><path stroke-width="2" stroke="blue" d="M 610.0 510 610.0 490.13964854968407" /><path stroke-width="2" stroke="blue" d="M 620.5263157894738 510 620.5263157894738 490.13964854968407" /><path stroke-width="2" stroke="blue" d="M 610.0 490.13964854968407 620.5263157894738 490.13964854968407" /><path stroke-width="2" stroke="blue" d="M 515.2631578947369 510 515.2631578947369 489.88260813698196" /><path stroke-width="2" stroke="blue" d="M 525.7894736842105 510 525.7894736842105 489.88260813698196" /><path stroke-width="2" stroke="blue" d="M 515.2631578947369 489.88260813698196 525.7894736842105 489.88260813698196" /><path stroke-width="2" stroke="blue" d="M 178.42105263157896 510 178.42105263157896 489.2150026945396" /><path stroke-width="2" stroke="blue" d="M 188.94736842105266 510 188.94736842105266 489.2150026945396" /><path stroke-width="2" stroke="blue" d="M 178.42105263157896 489.2150026945396 188.94736842105266 489.2150026945396" /><path stroke-width="2" stroke="red" d="M 841.5789473684212 510 841.5789473684212 487.97432338491257" /><path stroke-width="2" stroke="red" d="M 852.1052631578948 510 852.1052631578948 487.97432338491257" /><path stroke-width="2" stroke="red" d="M 841.5789473684212 487.97432338491257 852.1052631578948 487.97432338491257" /><path stroke-width="2" stroke="blue" d="M 83.6842105263158 510 83.6842105263158 487.27176724249847" /><path stroke-width="2" stroke="blue" d="M 94.21052631578948 510 94.21052631578948 487.27176724249847" /><path stroke-width="2" stroke="blue" d="M 83.6842105263158 487.27176724249847 94.21052631578948 487.27176724249847" /><path stroke-width="2" stroke="blue" d="M 320.5263157894737 493.1516841921895 320.5263157894737 487.14117160507425" /><path stroke-width="2" stroke="blue" d="M 341.57894736842104 499.3845021215724 341.57894736842104 487.14117160507425" /><path stroke-width="2" stroke="blue" d="M 320.5263157894737 487.14117160507425 341.57894736842104 487.14117160507425" /><path stroke-width="2" stroke="blue" d="M 615.2631578947369 490.13964854968407 615.2631578947369 485.3767496070997" /><path stroke-width="2" stroke="blue" d="M 631.0526315789474 510 631.0526315789474 485.3767496070997" /><path stroke-width="2" stroke="blue" d="M 615.2631578947369 485.3767496070997 631.0526315789474 485.3767496070997" /><path stroke-width="2" stroke="red" d="M 736.3157894736843 510 736.3157894736843 482.3923947540485" /><path stroke-width="2" stroke="red" d="M 754.7368421052632 492.0942638072551 754.7368421052632 482.3923947540485" /><path stroke-width="2" stroke="red" d="M 736.3157894736843 482.3923947540485 754.7368421052632 482.3923947540485" /><path stroke-width="2" stroke="blue" d="M 231.0526315789474 510 231.0526315789474 481.86396691869874" /><path stroke-width="2" stroke="blue" d="M 241.57894736842107 510 241.57894736842107 481.86396691869874" /><path stroke-width="2" stroke="blue" d="M 231.0526315789474 481.86396691869874 241.57894736842107 481.86396691869874" /><path stroke-width="2" stroke="blue" d="M 136.31578947368422 510 136.31578947368422 480.05568961326" /><path stroke-width="2" stroke="blue" d="M 146.84210526315792 510 146.84210526315792 480.05568961326" /><path stroke-width="2" stroke="blue" d="M 136.31578947368422 480.05568961326 146.84210526315792 480.05568961326" /><path stroke-width="2" stroke="blue" d="M 478.42105263157896 493.2388237364575 478.42105263157896 479.4122075485435" /><path stroke-width="2" stroke="blue" d="M 494.2105263157895 510 494.2105263157895 479.4122075485435" /><path stroke-width="2" stroke="blue" d="M 478.42105263157896 479.4122075485435 494.2105263157895 479.4122075485435" /><path stroke-width="2" stroke="blue" d="M 623.1578947368421 485.3767496070997 623.1578947368421 479.33825300996483" /><path stroke-width="2" stroke="blue" d="M 641.578947368421 510 641.578947368421 479.33825300996483" /><path stroke-width="2" stroke="blue" d="M 623.1578947368421 479.33825300996483 641.578947368421 479.33825300996483" /><path stroke-width="2" stroke="red" d="M 925.7894736842106 510 925.7894736842106 476.83496690054704" /><path stroke-width="2" stroke="red" d="M 936.3157894736843 510 936.3157894736843 476.83496690054704" /><path stroke-width="2" stroke="red" d="M 925.7894736842106 476.83496690054704 936.3157894736843 476.83496690054704" /><path stroke-width="2" stroke="blue" d="M 583.6842105263158 496.6389385229691 583.6842105263158 476.29071084191935" /><path stroke-width="2" stroke="blue" d="M 599.4736842105264 510 599.4736842105264 476.29071084191935" /><path stroke-width="2" stroke="blue" d="M 583.6842105263158 476.29071084191935 599.4736842105264 476.29071084191935" /><path stroke-width="2" stroke="blue" d="M 73.15789473684211 510 73.15789473684211 475.50211792558576" /><path stroke-width="2" stroke="blue" d="M 88.94736842105263 487.27176724249847 88.94736842105263 475.50211792558576" /><path stroke-width="2" stroke="blue" d="M 73.15789473684211 475.50211792558576 88.94736842105263 475.50211792558576" /><path stroke-width="2" stroke="blue" d="M 436.3157894736843 498.12150067017564 436.3157894736843 475.09749120822363" /><path stroke-width="2" stroke="blue" d="M 452.1052631578948 510 452.1052631578948 475.09749120822363" /><path stroke-width="2" stroke="blue" d="M 436.3157894736843 475.09749120822363 452.1052631578948 475.09749120822363" /><path stroke-width="2" stroke="blue" d="M 394.2105263157895 495.29228303516817 394.2105263157895 473.73285047404863" /><path stroke-width="2" stroke="blue" d="M 410.0 510 410.0 473.73285047404863" /><path stroke-width="2" stroke="blue" d="M 394.2105263157895 473.73285047404863 410.0 473.73285047404863" /><path stroke-width="2" stroke="blue" d="M 288.94736842105266 496.083728525327 288.94736842105266 473.58979799249806" /><path stroke-width="2" stroke="blue" d="M 304.7368421052632 510 304.7368421052632 473.58979799249806" /><path stroke-width="2" stroke="blue" d="M 288.94736842105266 473.58979799249806 304.7368421052632 473.58979799249806" /><path stroke-width="2" stroke="red" d="M 778.421052631579 510 778.421052631579 470.8044232718549" /><path stroke-width="2" stroke="red" d="M 788.9473684210527 510 788.9473684210527 470.8044232718549" /><path stroke-width="2" stroke="red" d="M 778.421052631579 470.8044232718549 788.9473684210527 470.8044232718549" /><path stroke-width="2" stroke="blue" d="M 632.3684210526316 479.33825300996483 632.3684210526316 469.00230727740495" /><path stroke-width="2" stroke="blue" d="M 652.1052631578948 510 652.1052631578948 469.00230727740495" /><path stroke-width="2" stroke="blue" d="M 632.3684210526316 469.00230727740495 652.1052631578948 469.00230727740495" /><path stroke-width="2" stroke="red" d="M 931.0526315789475 476.83496690054704 931.0526315789475 468.67465359999875" /><path stroke-width="2" stroke="red" d="M 946.8421052631579 510 946.8421052631579 468.67465359999875" /><path stroke-width="2" stroke="red" d="M 931.0526315789475 468.67465359999875 946.8421052631579 468.67465359999875" /><path stroke-width="2" stroke="blue" d="M 141.57894736842107 480.05568961326 141.57894736842107 465.14496165734255" /><path stroke-width="2" stroke="blue" d="M 162.63157894736844 497.09202387564454 162.63157894736844 465.14496165734255" /><path stroke-width="2" stroke="blue" d="M 141.57894736842107 465.14496165734255 162.63157894736844 465.14496165734255" /><path stroke-width="2" stroke="blue" d="M 504.7368421052632 510 504.7368421052632 464.93196871594216" /><path stroke-width="2" stroke="blue" d="M 520.5263157894738 489.88260813698196 520.5263157894738 464.93196871594216" /><path stroke-width="2" stroke="blue" d="M 504.7368421052632 464.93196871594216 520.5263157894738 464.93196871594216" /><path stroke-width="2" stroke="blue" d="M 591.578947368421 476.29071084191935 591.578947368421 464.59371569680195" /><path stroke-width="2" stroke="blue" d="M 642.2368421052631 469.00230727740495 642.2368421052631 464.59371569680195" /><path stroke-width="2" stroke="blue" d="M 591.578947368421 464.59371569680195 642.2368421052631 464.59371569680195" /><path stroke-width="2" stroke="blue" d="M 673.1578947368422 510 673.1578947368422 464.5511136904614" /><path stroke-width="2" stroke="blue" d="M 688.9473684210527 493.6359372397036 688.9473684210527 464.5511136904614" /><path stroke-width="2" stroke="blue" d="M 673.1578947368422 464.5511136904614 688.9473684210527 464.5511136904614" /><path stroke-width="2" stroke="blue" d="M 10.0 510 10.0 464.0099161955072" /><path stroke-width="2" stroke="blue" d="M 28.42105263157895 494.37001771844535 28.42105263157895 464.0099161955072" /><path stroke-width="2" stroke="blue" d="M 10.0 464.0099161955072 28.42105263157895 464.0099161955072" /><path stroke-width="2" stroke="blue" d="M 52.10526315789474 510 52.10526315789474 462.8363471310638" /><path stroke-width="2" stroke="blue" d="M 62.631578947368425 510 62.631578947368425 462.8363471310638" /><path stroke-width="2" stroke="blue" d="M 52.10526315789474 462.8363471310638 62.631578947368425 462.8363471310638" /><path stroke-width="2" stroke="red" d="M 894.2105263157896 510 894.2105263157896 462.5980004704985" /><path stroke-width="2" stroke="red" d="M 904.7368421052632 510 904.7368421052632 462.5980004704985" /><path stroke-width="2" stroke="red" d="M 894.2105263157896 462.5980004704985 904.7368421052632 462.5980004704985" /><path stroke-width="2" stroke="blue" d="M 183.6842105263158 489.2150026945396 183.6842105263158 462.40942951801725" /><path stroke-width="2" stroke="blue" d="M 204.73684210526318 499.6553650804735 204.73684210526318 462.40942951801725" /><path stroke-width="2" stroke="blue" d="M 183.6842105263158 462.40942951801725 204.73684210526318 462.40942951801725" /><path stroke-width="2" stroke="blue" d="M 444.21052631578954 475.09749120822363 444.21052631578954 461.1322716313497" /><path stroke-width="2" stroke="blue" d="M 462.63157894736844 510 462.63157894736844 461.1322716313497" /><path stroke-width="2" stroke="blue" d="M 444.21052631578954 461.1322716313497 462.63157894736844 461.1322716313497" /><path stroke-width="2" stroke="red" d="M 873.1578947368422 510 873.1578947368422 457.9245508255602" /><path stroke-width="2" stroke="red" d="M 883.6842105263158 510 883.6842105263158 457.9245508255602" /><path stroke-width="2" stroke="red" d="M 873.1578947368422 457.9245508255602 883.6842105263158 457.9245508255602" /><path stroke-width="2" stroke="red" d="M 988.9473684210527 510 988.9473684210527 457.1123662948341" /><path stroke-width="2" stroke="red" d="M 999.4736842105264 510 999.4736842105264 457.1123662948341" /><path stroke-width="2" stroke="red" d="M 988.9473684210527 457.1123662948341 999.4736842105264 457.1123662948341" /><path stroke-width="2" stroke="blue" d="M 115.26315789473685 510 115.26315789473685 456.3914285581393" /><path stroke-width="2" stroke="blue" d="M 125.78947368421053 510 125.78947368421053 456.3914285581393" /><path stroke-width="2" stroke="blue" d="M 115.26315789473685 456.3914285581393 125.78947368421053 456.3914285581393" /><path stroke-width="2" stroke="red" d="M 846.8421052631579 487.97432338491257 846.8421052631579 455.8991772113228" /><path stroke-width="2" stroke="red" d="M 862.6315789473684 510 862.6315789473684 455.8991772113228" /><path stroke-width="2" stroke="red" d="M 846.8421052631579 455.8991772113228 862.6315789473684 455.8991772113228" /><path stroke-width="2" stroke="red" d="M 938.9473684210527 468.67465359999875 938.9473684210527 455.1515711578396" /><path stroke-width="2" stroke="red" d="M 957.3684210526317 510 957.3684210526317 455.1515711578396" /><path stroke-width="2" stroke="red" d="M 938.9473684210527 455.1515711578396 957.3684210526317 455.1515711578396" /><path stroke-width="2" stroke="blue" d="M 220.5263157894737 510 220.5263157894737 453.79197593630266" /><path stroke-width="2" stroke="blue" d="M 236.31578947368422 481.86396691869874 236.31578947368422 453.79197593630266" /><path stroke-width="2" stroke="blue" d="M 220.5263157894737 453.79197593630266 236.31578947368422 453.79197593630266" /><path stroke-width="2" stroke="blue" d="M 453.42105263157896 461.1322716313497 453.42105263157896 451.21558088697697" /><path stroke-width="2" stroke="blue" d="M 486.3157894736842 479.4122075485435 486.3157894736842 451.21558088697697" /><path stroke-width="2" stroke="blue" d="M 453.42105263157896 451.21558088697697 486.3157894736842 451.21558088697697" /><path stroke-width="2" stroke="blue" d="M 57.36842105263158 462.8363471310638 57.36842105263158 442.2326342419418" /><path stroke-width="2" stroke="blue" d="M 81.05263157894737 475.50211792558576 81.05263157894737 442.2326342419418" /><path stroke-width="2" stroke="blue" d="M 57.36842105263158 442.2326342419418 81.05263157894737 442.2326342419418" /><path stroke-width="2" stroke="blue" d="M 512.6315789473684 464.93196871594216 512.6315789473684 439.3876594996894" /><path stroke-width="2" stroke="blue" d="M 536.3157894736843 510 536.3157894736843 439.3876594996894" /><path stroke-width="2" stroke="blue" d="M 512.6315789473684 439.3876594996894 536.3157894736843 439.3876594996894" /><path stroke-width="2" stroke="red" d="M 899.4736842105265 462.5980004704985 899.4736842105265 439.26103856767855" /><path stroke-width="2" stroke="red" d="M 915.2631578947369 510 915.2631578947369 439.26103856767855" /><path stroke-width="2" stroke="red" d="M 899.4736842105265 439.26103856767855 915.2631578947369 439.26103856767855" /><path stroke-width="2" stroke="red" d="M 783.6842105263158 470.8044232718549 783.6842105263158 437.3653266933886" /><path stroke-width="2" stroke="red" d="M 799.4736842105264 510 799.4736842105264 437.3653266933886" /><path stroke-width="2" stroke="red" d="M 783.6842105263158 437.3653266933886 799.4736842105264 437.3653266933886" /><path stroke-width="2" stroke="blue" d="M 367.8947368421053 510 367.8947368421053 436.9281201297957" /><path stroke-width="2" stroke="blue" d="M 378.42105263157896 510 378.42105263157896 436.9281201297957" /><path stroke-width="2" stroke="blue" d="M 367.8947368421053 436.9281201297957 378.42105263157896 436.9281201297957" /><path stroke-width="2" stroke="red" d="M 704.7368421052632 510 704.7368421052632 426.10576682487226" /><path stroke-width="2" stroke="red" d="M 715.2631578947369 510 715.2631578947369 426.10576682487226" /><path stroke-width="2" stroke="red" d="M 704.7368421052632 426.10576682487226 715.2631578947369 426.10576682487226" /><path stroke-width="2" stroke="red" d="M 973.1578947368421 498.44990987074885 973.1578947368421 414.6008672918846" /><path stroke-width="2" stroke="red" d="M 994.2105263157896 457.1123662948341 994.2105263157896 414.6008672918846" /><path stroke-width="2" stroke="red" d="M 973.1578947368421 414.6008672918846 994.2105263157896 414.6008672918846" /><path stroke-width="2" stroke="blue" d="M 228.42105263157896 453.79197593630266 228.42105263157896 411.83477586288274" /><path stroke-width="2" stroke="blue" d="M 252.10526315789474 510 252.10526315789474 411.83477586288274" /><path stroke-width="2" stroke="blue" d="M 228.42105263157896 411.83477586288274 252.10526315789474 411.83477586288274" /><path stroke-width="2" stroke="blue" d="M 402.10526315789474 473.73285047404863 402.10526315789474 409.83303694063346" /><path stroke-width="2" stroke="blue" d="M 420.5263157894737 510 420.5263157894737 409.83303694063346" /><path stroke-width="2" stroke="blue" d="M 402.10526315789474 409.83303694063346 420.5263157894737 409.83303694063346" /><path stroke-width="2" stroke="blue" d="M 546.8421052631579 510 546.8421052631579 409.5368430679017" /><path stroke-width="2" stroke="blue" d="M 562.6315789473686 493.0245922784266 562.6315789473686 409.5368430679017" /><path stroke-width="2" stroke="blue" d="M 546.8421052631579 409.5368430679017 562.6315789473686 409.5368430679017" /><path stroke-width="2" stroke="blue" d="M 331.0526315789474 487.14117160507425 331.0526315789474 402.9486239263514" /><path stroke-width="2" stroke="blue" d="M 357.3684210526316 510 357.3684210526316 402.9486239263514" /><path stroke-width="2" stroke="blue" d="M 331.0526315789474 402.9486239263514 357.3684210526316 402.9486239263514" /><path stroke-width="2" stroke="blue" d="M 273.15789473684214 510 273.15789473684214 399.03380595045064" /><path stroke-width="2" stroke="blue" d="M 296.8421052631579 473.58979799249806 296.8421052631579 399.03380595045064" /><path stroke-width="2" stroke="blue" d="M 273.15789473684214 399.03380595045064 296.8421052631579 399.03380595045064" /><path stroke-width="2" stroke="red" d="M 878.421052631579 457.9245508255602 878.421052631579 392.43253093416877" /><path stroke-width="2" stroke="red" d="M 907.3684210526317 439.26103856767855 907.3684210526317 392.43253093416877" /><path stroke-width="2" stroke="red" d="M 878.421052631579 392.43253093416877 907.3684210526317 392.43253093416877" /><path stroke-width="2" stroke="red" d="M 810.0 510 810.0 386.8638689361187" /><path stroke-width="2" stroke="red" d="M 820.5263157894738 510 820.5263157894738 386.8638689361187" /><path stroke-width="2" stroke="red" d="M 810.0 386.8638689361187 820.5263157894738 386.8638689361187" /><path stroke-width="2" stroke="red" d="M 710.0 426.10576682487226 710.0 385.2096418656475" /><path stroke-width="2" stroke="red" d="M 725.7894736842106 510 725.7894736842106 385.2096418656475" /><path stroke-width="2" stroke="red" d="M 710.0 385.2096418656475 725.7894736842106 385.2096418656475" /><path stroke-width="2" stroke="blue" d="M 19.210526315789473 464.0099161955072 19.210526315789473 384.47617286499656" /><path stroke-width="2" stroke="blue" d="M 69.21052631578948 442.2326342419418 69.21052631578948 384.47617286499656" /><path stroke-width="2" stroke="blue" d="M 19.210526315789473 384.47617286499656 69.21052631578948 384.47617286499656" /><path stroke-width="2" stroke="blue" d="M 120.5263157894737 456.3914285581393 120.5263157894737 382.59715161813125" /><path stroke-width="2" stroke="blue" d="M 152.10526315789474 465.14496165734255 152.10526315789474 382.59715161813125" /><path stroke-width="2" stroke="blue" d="M 120.5263157894737 382.59715161813125 152.10526315789474 382.59715161813125" /><path stroke-width="2" stroke="blue" d="M 616.9078947368421 464.59371569680195 616.9078947368421 380.38446543983724" /><path stroke-width="2" stroke="blue" d="M 662.6315789473684 510 662.6315789473684 380.38446543983724" /><path stroke-width="2" stroke="blue" d="M 616.9078947368421 380.38446543983724 662.6315789473684 380.38446543983724" /><path stroke-width="2" stroke="red" d="M 717.8947368421053 385.2096418656475 717.8947368421053 374.3929505996439" /><path stroke-width="2" stroke="red" d="M 745.5263157894738 482.3923947540485 745.5263157894738 374.3929505996439" /><path stroke-width="2" stroke="red" d="M 717.8947368421053 374.3929505996439 745.5263157894738 374.3929505996439" /><path stroke-width="2" stroke="red" d="M 815.2631578947369 386.8638689361187 815.2631578947369 367.1637462382293" /><path stroke-width="2" stroke="red" d="M 831.0526315789474 510 831.0526315789474 367.1637462382293" /><path stroke-width="2" stroke="red" d="M 815.2631578947369 367.1637462382293 831.0526315789474 367.1637462382293" /><path stroke-width="2" stroke="blue" d="M 194.21052631578948 462.40942951801725 194.21052631578948 366.2563579473979" /><path stroke-width="2" stroke="blue" d="M 240.26315789473685 411.83477586288274 240.26315789473685 366.2563579473979" /><path stroke-width="2" stroke="blue" d="M 194.21052631578948 366.2563579473979 240.26315789473685 366.2563579473979" /><path stroke-width="2" stroke="red" d="M 731.7105263157896 374.3929505996439 731.7105263157896 359.83024298605136" /><path stroke-width="2" stroke="red" d="M 791.578947368421 437.3653266933886 791.578947368421 359.83024298605136" /><path stroke-width="2" stroke="red" d="M 731.7105263157896 359.83024298605136 791.578947368421 359.83024298605136" /><path stroke-width="2" stroke="blue" d="M 639.7697368421052 380.38446543983724 639.7697368421052 355.00373965668894" /><path stroke-width="2" stroke="blue" d="M 681.0526315789475 464.5511136904614 681.0526315789475 355.00373965668894" /><path stroke-width="2" stroke="blue" d="M 639.7697368421052 355.00373965668894 681.0526315789475 355.00373965668894" /><path stroke-width="2" stroke="blue" d="M 285.0 399.03380595045064 285.0 353.44400081137576" /><path stroke-width="2" stroke="blue" d="M 344.2105263157895 402.9486239263514 344.2105263157895 353.44400081137576" /><path stroke-width="2" stroke="blue" d="M 285.0 353.44400081137576 344.2105263157895 353.44400081137576" /><path stroke-width="2" stroke="red" d="M 948.1578947368422 455.1515711578396 948.1578947368422 352.2770544924373" /><path stroke-width="2" stroke="red" d="M 983.6842105263158 414.6008672918846 983.6842105263158 352.2770544924373" /><path stroke-width="2" stroke="red" d="M 948.1578947368422 352.2770544924373 983.6842105263158 352.2770544924373" /><path stroke-width="2" stroke="blue" d="M 44.21052631578948 384.47617286499656 44.21052631578948 351.33572769958437" /><path stroke-width="2" stroke="blue" d="M 104.73684210526316 510 104.73684210526316 351.33572769958437" /><path stroke-width="2" stroke="blue" d="M 44.21052631578948 351.33572769958437 104.73684210526316 351.33572769958437" /><path stroke-width="2" stroke="red" d="M 823.1578947368421 367.1637462382293 823.1578947368421 335.15005402924817" /><path stroke-width="2" stroke="red" d="M 854.7368421052631 455.8991772113228 854.7368421052631 335.15005402924817" /><path stroke-width="2" stroke="red" d="M 823.1578947368421 335.15005402924817 854.7368421052631 335.15005402924817" /><path stroke-width="2" stroke="blue" d="M 524.4736842105264 439.3876594996894 524.4736842105264 310.5893218118745" /><path stroke-width="2" stroke="blue" d="M 554.7368421052632 409.5368430679017 554.7368421052632 310.5893218118745" /><path stroke-width="2" stroke="blue" d="M 524.4736842105264 310.5893218118745 554.7368421052632 310.5893218118745" /><path stroke-width="2" stroke="blue" d="M 217.23684210526318 366.2563579473979 217.23684210526318 310.46042022809183" /><path stroke-width="2" stroke="blue" d="M 262.63157894736844 510 262.63157894736844 310.46042022809183" /><path stroke-width="2" stroke="blue" d="M 217.23684210526318 310.46042022809183 262.63157894736844 310.46042022809183" /><path stroke-width="2" stroke="red" d="M 761.6447368421053 359.83024298605136 761.6447368421053 307.1136430681387" /><path stroke-width="2" stroke="red" d="M 838.9473684210526 335.15005402924817 838.9473684210526 307.1136430681387" /><path stroke-width="2" stroke="red" d="M 761.6447368421053 307.1136430681387 838.9473684210526 307.1136430681387" /><path stroke-width="2" stroke="blue" d="M 74.47368421052633 351.33572769958437 74.47368421052633 299.0140587134612" /><path stroke-width="2" stroke="blue" d="M 136.31578947368422 382.59715161813125 136.31578947368422 299.0140587134612" /><path stroke-width="2" stroke="blue" d="M 74.47368421052633 299.0140587134612 136.31578947368422 299.0140587134612" /><path stroke-width="2" stroke="blue" d="M 411.3157894736842 409.83303694063346 411.3157894736842 286.7462085632807" /><path stroke-width="2" stroke="blue" d="M 469.86842105263156 451.21558088697697 469.86842105263156 286.7462085632807" /><path stroke-width="2" stroke="blue" d="M 411.3157894736842 286.7462085632807 469.86842105263156 286.7462085632807" /><path stroke-width="2" stroke="blue" d="M 314.60526315789474 353.44400081137576 314.60526315789474 282.9404532047072" /><path stroke-width="2" stroke="blue" d="M 373.15789473684214 436.9281201297957 373.15789473684214 282.9404532047072" /><path stroke-width="2" stroke="blue" d="M 314.60526315789474 282.9404532047072 373.15789473684214 282.9404532047072" /><path stroke-width="2" stroke="blue" d="M 539.6052631578948 310.5893218118745 539.6052631578948 277.75093652345333" /><path stroke-width="2" stroke="blue" d="M 660.4111842105264 355.00373965668894 660.4111842105264 277.75093652345333" /><path stroke-width="2" stroke="blue" d="M 539.6052631578948 277.75093652345333 660.4111842105264 277.75093652345333" /><path stroke-width="2" stroke="blue" d="M 105.39473684210527 299.0140587134612 105.39473684210527 254.00193182009585" /><path stroke-width="2" stroke="blue" d="M 239.9342105263158 310.46042022809183 239.9342105263158 254.00193182009585" /><path stroke-width="2" stroke="blue" d="M 105.39473684210527 254.00193182009585 239.9342105263158 254.00193182009585" /><path stroke-width="2" stroke="red" d="M 800.296052631579 307.1136430681387 800.296052631579 250.48601073913198" /><path stroke-width="2" stroke="red" d="M 892.8947368421053 392.43253093416877 892.8947368421053 250.48601073913198" /><path stroke-width="2" stroke="red" d="M 800.296052631579 250.48601073913198 892.8947368421053 250.48601073913198" /><path stroke-width="2" stroke="blue" d="M 172.66447368421055 254.00193182009585 172.66447368421055 231.19874923185142" /><path stroke-width="2" stroke="blue" d="M 343.88157894736844 282.9404532047072 343.88157894736844 231.19874923185142" /><path stroke-width="2" stroke="blue" d="M 172.66447368421055 231.19874923185142 343.88157894736844 231.19874923185142" /><path stroke-width="2" stroke="red" d="M 846.5953947368421 250.48601073913198 846.5953947368421 172.6887083475574" /><path stroke-width="2" stroke="red" d="M 965.921052631579 352.2770544924373 965.921052631579 172.6887083475574" /><path stroke-width="2" stroke="red" d="M 846.5953947368421 172.6887083475574 965.921052631579 172.6887083475574" /><path stroke-width="2" stroke="blue" d="M 258.2730263157895 231.19874923185142 258.2730263157895 168.141121246306" /><path stroke-width="2" stroke="blue" d="M 440.5921052631579 286.7462085632807 440.5921052631579 168.141121246306" /><path stroke-width="2" stroke="blue" d="M 258.2730263157895 168.141121246306 440.5921052631579 168.141121246306" /><path stroke-width="2" stroke="blue" d="M 349.4325657894737 168.141121246306 349.4325657894737 43.764667561949636" /><path stroke-width="2" stroke="blue" d="M 600.0082236842106 277.75093652345333 600.0082236842106 43.764667561949636" /><path stroke-width="2" stroke="blue" d="M 349.4325657894737 43.764667561949636 600.0082236842106 43.764667561949636" /><path stroke-width="2" stroke="black" d="M 474.7203947368422 43.764667561949636 474.7203947368422 10.0" /><path stroke-width="2" stroke="black" d="M 906.2582236842105 172.6887083475574 906.2582236842105 10.0" /><path stroke-width="2" stroke="black" d="M 474.7203947368422 10.0 906.2582236842105 10.0" /></svg>