<svg width="1020" height="597.0"  xmlns="http://www.w3.org/2000/svg"><text x="215.0" y="515"  transform="rotate(60, 215.0, 515)" font-size="12">death</text><text x="485.0" y="515"  transform="rotate(60, 485.0, 515)" font-size="12">one</text><text x="295.0" y="515"  transform="rotate(60, 295.0, 515)" font-size="12">country</text><text x="355.0" y="515"  transform="rotate(60, 355.0, 515)" font-size="12">health</text><text x="375.0" y="515"  transform="rotate(60, 375.0, 515)" font-size="12">world</text><text x="145.0" y="515"  transform="rotate(60, 145.0, 515)" font-size="12">rise</text><text x="115.0" y="515"  transform="rotate(60, 115.0, 515)" font-size="12">new</text><text x="185.0" y="515"  transform="rotate(60, 185.0, 515)" font-size="12">wave</text><text x="285.0" y="515"  transform="rotate(60, 285.0, 515)" font-size="12">virus</text><text x="205.0" y="515"  transform="rotate(60, 205.0, 515)" font-size="12">brazil</text><text x="455.0" y="515"  transform="rotate(60, 455.0, 515)" font-size="12">second</text><text x="135.0" y="515"  transform="rotate(60, 135.0, 515)" font-size="12">number</text><text x="155.0" y="515"  transform="rotate(60, 155.0, 515)" font-size="12">report</text><text x="305.0" y="515"  transform="rotate(60, 305.0, 515)" font-size="12">global</text><text x="125.0" y="515"  transform="rotate(60, 125.0, 515)" font-size="12">case</text><text x="25.0" y="515"  transform="rotate(60, 25.0, 515)" font-size="12">month</text><text x="65.0" y="515"  transform="rotate(60, 65.0, 515)" font-size="12">record</text><text x="55.0" y="515"  transform="rotate(60, 55.0, 515)" font-size="12">daily</text><text x="235.0" y="515"  transform="rotate(60, 235.0, 515)" font-size="12">find</text><text x="45.0" y="515"  transform="rotate(60, 45.0, 515)" font-size="12">high</text><text x="95.0" y="515"  transform="rotate(60, 95.0, 515)" font-size="12">surge</text><text x="845.0" y="515"  transform="rotate(60, 845.0, 515)" font-size="12">people</text><text x="995.0" y="515"  transform="rotate(60, 995.0, 515)" font-size="12">say</text><text x="415.0" y="515"  transform="rotate(60, 415.0, 515)" font-size="12">million</text><text x="735.0" y="515"  transform="rotate(60, 735.0, 515)" font-size="12">expert</text><text x="525.0" y="515"  transform="rotate(60, 525.0, 515)" font-size="12">first</text><text x="265.0" y="515"  transform="rotate(60, 265.0, 515)" font-size="12">variant</text><text x="325.0" y="515"  transform="rotate(60, 325.0, 515)" font-size="12">pandemic</text><text x="335.0" y="515"  transform="rotate(60, 335.0, 515)" font-size="12">year</text><text x="195.0" y="515"  transform="rotate(60, 195.0, 515)" font-size="12">could</text><text x="275.0" y="515"  transform="rotate(60, 275.0, 515)" font-size="12">hit</text><text x="745.0" y="515"  transform="rotate(60, 745.0, 515)" font-size="12">top</text><text x="605.0" y="515"  transform="rotate(60, 605.0, 515)" font-size="12">day</text><text x="425.0" y="515"  transform="rotate(60, 425.0, 515)" font-size="12">national</text><text x="175.0" y="515"  transform="rotate(60, 175.0, 515)" font-size="12">accord</text><text x="965.0" y="515"  transform="rotate(60, 965.0, 515)" font-size="12">disease</text><text x="695.0" y="515"  transform="rotate(60, 695.0, 515)" font-size="12">risk</text><text x="345.0" y="515"  transform="rotate(60, 345.0, 515)" font-size="12">see</text><text x="165.0" y="515"  transform="rotate(60, 165.0, 515)" font-size="12">state</text><text x="905.0" y="515"  transform="rotate(60, 905.0, 515)" font-size="12">response</text><text x="835.0" y="515"  transform="rotate(60, 835.0, 515)" font-size="12">child</text><text x="515.0" y="515"  transform="rotate(60, 515.0, 515)" font-size="12">receive</text><text x="475.0" y="515"  transform="rotate(60, 475.0, 515)" font-size="12">least</text><text x="505.0" y="515"  transform="rotate(60, 505.0, 515)" font-size="12">dose</text><text x="395.0" y="515"  transform="rotate(60, 395.0, 515)" font-size="12">dos</text><text x="545.0" y="515"  transform="rotate(60, 545.0, 515)" font-size="12">adult</text><text x="855.0" y="515"  transform="rotate(60, 855.0, 515)" font-size="12">shot</text><text x="465.0" y="515"  transform="rotate(60, 465.0, 515)" font-size="12">population</text><text x="565.0" y="515"  transform="rotate(60, 565.0, 515)" font-size="12">get</text><text x="595.0" y="515"  transform="rotate(60, 595.0, 515)" font-size="12">vaccinate</text><text x="15.0" y="515"  transform="rotate(60, 15.0, 515)" font-size="12">week</text><text x="765.0" y="515"  transform="rotate(60, 765.0, 515)" font-size="12">government</text><text x="405.0" y="515"  transform="rotate(60, 405.0, 515)" font-size="12">administer</text><text x="935.0" y="515"  transform="rotate(60, 935.0, 515)" font-size="12">data</text><text x="495.0" y="515"  transform="rotate(60, 495.0, 515)" font-size="12">develop</text><text x="615.0" y="515"  transform="rotate(60, 615.0, 515)" font-size="12">take</text><text x="85.0" y="515"  transform="rotate(60, 85.0, 515)" font-size="12">amid</text><text x="575.0" y="515"  transform="rotate(60, 575.0, 515)" font-size="12">make</text><text x="805.0" y="515"  transform="rotate(60, 805.0, 515)" font-size="12">use</text><text x="105.0" y="515"  transform="rotate(60, 105.0, 515)" font-size="12">infection</text><text x="555.0" y="515"  transform="rotate(60, 555.0, 515)" font-size="12">vaccination</text><text x="825.0" y="515"  transform="rotate(60, 825.0, 515)" font-size="12">age</text><text x="385.0" y="515"  transform="rotate(60, 385.0, 515)" font-size="12">organization</text><text x="245.0" y="515"  transform="rotate(60, 245.0, 515)" font-size="12">africa</text><text x="435.0" y="515"  transform="rotate(60, 435.0, 515)" font-size="12">china</text><text x="5.0" y="515"  transform="rotate(60, 5.0, 515)" font-size="12">two</text><text x="755.0" y="515"  transform="rotate(60, 755.0, 515)" font-size="12">official</text><text x="945.0" y="515"  transform="rotate(60, 945.0, 515)" font-size="12">show</text><text x="255.0" y="515"  transform="rotate(60, 255.0, 515)" font-size="12">south</text><text x="445.0" y="515"  transform="rotate(60, 445.0, 515)" font-size="12">batch</text><text x="75.0" y="515"  transform="rotate(60, 75.0, 515)" font-size="12">india</text><text x="365.0" y="515"  transform="rotate(60, 365.0, 515)" font-size="12">minister</text><text x="635.0" y="515"  transform="rotate(60, 635.0, 515)" font-size="12">side</text><text x="865.0" y="515"  transform="rotate(60, 865.0, 515)" font-size="12">need</text><text x="225.0" y="515"  transform="rotate(60, 225.0, 515)" font-size="12">study</text><text x="775.0" y="515"  transform="rotate(60, 775.0, 515)" font-size="12">recommend</text><text x="975.0" y="515"  transform="rotate(60, 975.0, 515)" font-size="12">trial</text><text x="535.0" y="515"  transform="rotate(60, 535.0, 515)" font-size="12">president</text><text x="715.0" y="515"  transform="rotate(60, 715.0, 515)" font-size="12">blood</text><text x="705.0" y="515"  transform="rotate(60, 705.0, 515)" font-size="12">clot</text><text x="815.0" y="515"  transform="rotate(60, 815.0, 515)" font-size="12">emergency</text><text x="585.0" y="515"  transform="rotate(60, 585.0, 515)" font-size="12">university</text><text x="655.0" y="515"  transform="rotate(60, 655.0, 515)" font-size="12">rare</text><text x="645.0" y="515"  transform="rotate(60, 645.0, 515)" font-size="12">effect</text><text x="665.0" y="515"  transform="rotate(60, 665.0, 515)" font-size="12">link</text><text x="685.0" y="515"  transform="rotate(60, 685.0, 515)" font-size="12">medicine</text><text x="675.0" y="515"  transform="rotate(60, 675.0, 515)" font-size="12">agency</text><text x="625.0" y="515"  transform="rotate(60, 625.0, 515)" font-size="12">possible</text><text x="725.0" y="515"  transform="rotate(60, 725.0, 515)" font-size="12">regulator</text><text x="315.0" y="515"  transform="rotate(60, 315.0, 515)" font-size="12">due</text><text x="875.0" y="515"  transform="rotate(60, 875.0, 515)" font-size="12">may</text><text x="795.0" y="515"  transform="rotate(60, 795.0, 515)" font-size="12">johnson</text><text x="985.0" y="515"  transform="rotate(60, 985.0, 515)" font-size="12">effective</text><text x="955.0" y="515"  transform="rotate(60, 955.0, 515)" font-size="12">efficacy</text><text x="35.0" y="515"  transform="rotate(60, 35.0, 515)" font-size="12">six</text><text x="895.0" y="515"  transform="rotate(60, 895.0, 515)" font-size="12">house</text><text x="885.0" y="515"  transform="rotate(60, 885.0, 515)" font-size="12">white</text><text x="925.0" y="515"  transform="rotate(60, 925.0, 515)" font-size="12">war</text><text x="785.0" y="515"  transform="rotate(60, 785.0, 515)" font-size="12">pause</text><text x="915.0" y="515"  transform="rotate(60, 915.0, 515)" font-size="12">fauci</text><path stroke-width="2" stroke="orange" d="M 890.0 510 890.0 507.49664171225453" /><path stroke-width="2" stroke="orange" d="M 900.0 510 900.0 507.49664171225453" /><path stroke-width="2" stroke="orange" d="M 890.0 507.49664171225453 900.0 507.49664171225453" /><path stroke-width="2" stroke="purple" d="M 250.0 510 250.0 506.3006898158096" /><path stroke-width="2" stroke="purple" d="M 260.0 510 260.0 506.3006898158096" /><path stroke-width="2" stroke="purple" d="M 250.0 506.3006898158096 260.0 506.3006898158096" /><path stroke-width="2" stroke="red" d="M 640.0 510 640.0 505.893374480424" /><path stroke-width="2" stroke="red" d="M 650.0 510 650.0 505.893374480424" /><path stroke-width="2" stroke="red" d="M 640.0 505.893374480424 650.0 505.893374480424" /><path stroke-width="2" stroke="orange" d="M 920.0 510 920.0 505.7969171403207" /><path stroke-width="2" stroke="orange" d="M 930.0 510 930.0 505.7969171403207" /><path stroke-width="2" stroke="orange" d="M 920.0 505.7969171403207 930.0 505.7969171403207" /><path stroke-width="2" stroke="blue" d="M 580.0 510 580.0 504.2347138727319" /><path stroke-width="2" stroke="blue" d="M 590.0 510 590.0 504.2347138727319" /><path stroke-width="2" stroke="blue" d="M 580.0 504.2347138727319 590.0 504.2347138727319" /><path stroke-width="2" stroke="orange" d="M 960.0 510 960.0 503.71312142237946" /><path stroke-width="2" stroke="orange" d="M 970.0 510 970.0 503.71312142237946" /><path stroke-width="2" stroke="orange" d="M 960.0 503.71312142237946 970.0 503.71312142237946" /><path stroke-width="2" stroke="orange" d="M 895.0 507.49664171225453 895.0 503.6453738993279" /><path stroke-width="2" stroke="orange" d="M 910.0 510 910.0 503.6453738993279" /><path stroke-width="2" stroke="orange" d="M 895.0 503.6453738993279 910.0 503.6453738993279" /><path stroke-width="2" stroke="yellow" d="M 380.0 510 380.0 500.95896772550464" /><path stroke-width="2" stroke="yellow" d="M 390.0 510 390.0 500.95896772550464" /><path stroke-width="2" stroke="yellow" d="M 380.0 500.95896772550464 390.0 500.95896772550464" /><path stroke-width="2" stroke="fuchsia" d="M 830.0 510 830.0 500.8810505394723" /><path stroke-width="2" stroke="fuchsia" d="M 840.0 510 840.0 500.8810505394723" /><path stroke-width="2" stroke="fuchsia" d="M 830.0 500.8810505394723 840.0 500.8810505394723" /><path stroke-width="2" stroke="red" d="M 680.0 510 680.0 500.37325838239855" /><path stroke-width="2" stroke="red" d="M 690.0 510 690.0 500.37325838239855" /><path stroke-width="2" stroke="red" d="M 680.0 500.37325838239855 690.0 500.37325838239855" /><path stroke-width="2" stroke="orange" d="M 870.0 510 870.0 499.6610532569112" /><path stroke-width="2" stroke="orange" d="M 880.0 510 880.0 499.6610532569112" /><path stroke-width="2" stroke="orange" d="M 870.0 499.6610532569112 880.0 499.6610532569112" /><path stroke-width="2" stroke="orange" d="M 980.0 510 980.0 498.1550061438104" /><path stroke-width="2" stroke="orange" d="M 990.0 510 990.0 498.1550061438104" /><path stroke-width="2" stroke="orange" d="M 980.0 498.1550061438104 990.0 498.1550061438104" /><path stroke-width="2" stroke="fuchsia" d="M 810.0 510 810.0 498.1229822433435" /><path stroke-width="2" stroke="fuchsia" d="M 820.0 510 820.0 498.1229822433435" /><path stroke-width="2" stroke="fuchsia" d="M 810.0 498.1229822433435 820.0 498.1229822433435" /><path stroke-width="2" stroke="purple" d="M 190.0 510 190.0 496.3776804058257" /><path stroke-width="2" stroke="purple" d="M 200.0 510 200.0 496.3776804058257" /><path stroke-width="2" stroke="purple" d="M 190.0 496.3776804058257 200.0 496.3776804058257" /><path stroke-width="2" stroke="orange" d="M 902.5 503.6453738993279 902.5 496.30581893256726" /><path stroke-width="2" stroke="orange" d="M 925.0 505.7969171403207 925.0 496.30581893256726" /><path stroke-width="2" stroke="orange" d="M 902.5 496.30581893256726 925.0 496.30581893256726" /><path stroke-width="2" stroke="red" d="M 630.0 510 630.0 496.08920659626426" /><path stroke-width="2" stroke="red" d="M 645.0 505.893374480424 645.0 496.08920659626426" /><path stroke-width="2" stroke="red" d="M 630.0 496.08920659626426 645.0 496.08920659626426" /><path stroke-width="2" stroke="purple" d="M 230.0 510 230.0 495.86102314216004" /><path stroke-width="2" stroke="purple" d="M 240.0 510 240.0 495.86102314216004" /><path stroke-width="2" stroke="purple" d="M 230.0 495.86102314216004 240.0 495.86102314216004" /><path stroke-width="2" stroke="orange" d="M 940.0 510 940.0 495.31003484521045" /><path stroke-width="2" stroke="orange" d="M 950.0 510 950.0 495.31003484521045" /><path stroke-width="2" stroke="orange" d="M 940.0 495.31003484521045 950.0 495.31003484521045" /><path stroke-width="2" stroke="purple" d="M 280.0 510 280.0 494.13408880486304" /><path stroke-width="2" stroke="purple" d="M 290.0 510 290.0 494.13408880486304" /><path stroke-width="2" stroke="purple" d="M 280.0 494.13408880486304 290.0 494.13408880486304" /><path stroke-width="2" stroke="green" d="M 30.0 510 30.0 494.06853053411885" /><path stroke-width="2" stroke="green" d="M 40.0 510 40.0 494.06853053411885" /><path stroke-width="2" stroke="green" d="M 30.0 494.06853053411885 40.0 494.06853053411885" /><path stroke-width="2" stroke="blue" d="M 470.0 510 470.0 493.9480907105765" /><path stroke-width="2" stroke="blue" d="M 480.0 510 480.0 493.9480907105765" /><path stroke-width="2" stroke="blue" d="M 470.0 493.9480907105765 480.0 493.9480907105765" /><path stroke-width="2" stroke="yellow" d="M 310.0 510 310.0 492.66737453996586" /><path stroke-width="2" stroke="yellow" d="M 320.0 510 320.0 492.66737453996586" /><path stroke-width="2" stroke="yellow" d="M 310.0 492.66737453996586 320.0 492.66737453996586" /><path stroke-width="2" stroke="green" d="M 90.0 510 90.0 491.37882495326727" /><path stroke-width="2" stroke="green" d="M 100.0 510 100.0 491.37882495326727" /><path stroke-width="2" stroke="green" d="M 90.0 491.37882495326727 100.0 491.37882495326727" /><path stroke-width="2" stroke="red" d="M 780.0 510 780.0 490.60960279600863" /><path stroke-width="2" stroke="red" d="M 790.0 510 790.0 490.60960279600863" /><path stroke-width="2" stroke="red" d="M 780.0 490.60960279600863 790.0 490.60960279600863" /><path stroke-width="2" stroke="blue" d="M 450.0 510 450.0 489.13892345959124" /><path stroke-width="2" stroke="blue" d="M 460.0 510 460.0 489.13892345959124" /><path stroke-width="2" stroke="blue" d="M 450.0 489.13892345959124 460.0 489.13892345959124" /><path stroke-width="2" stroke="blue" d="M 400.0 510 400.0 488.6805847097132" /><path stroke-width="2" stroke="blue" d="M 410.0 510 410.0 488.6805847097132" /><path stroke-width="2" stroke="blue" d="M 400.0 488.6805847097132 410.0 488.6805847097132" /><path stroke-width="2" stroke="orange" d="M 945.0 495.31003484521045 945.0 488.1500049345011" /><path stroke-width="2" stroke="orange" d="M 965.0 503.71312142237946 965.0 488.1500049345011" /><path stroke-width="2" stroke="orange" d="M 945.0 488.1500049345011 965.0 488.1500049345011" /><path stroke-width="2" stroke="blue" d="M 585.0 504.2347138727319 585.0 486.58392070164865" /><path stroke-width="2" stroke="blue" d="M 600.0 510 600.0 486.58392070164865" /><path stroke-width="2" stroke="blue" d="M 585.0 486.58392070164865 600.0 486.58392070164865" /><path stroke-width="2" stroke="orange" d="M 955.0 488.1500049345011 955.0 486.2958948669565" /><path stroke-width="2" stroke="orange" d="M 985.0 498.1550061438104 985.0 486.2958948669565" /><path stroke-width="2" stroke="orange" d="M 955.0 486.2958948669565 985.0 486.2958948669565" /><path stroke-width="2" stroke="purple" d="M 255.0 506.3006898158096 255.0 485.91391635534876" /><path stroke-width="2" stroke="purple" d="M 270.0 510 270.0 485.91391635534876" /><path stroke-width="2" stroke="purple" d="M 255.0 485.91391635534876 270.0 485.91391635534876" /><path stroke-width="2" stroke="red" d="M 760.0 510 760.0 484.8710319456701" /><path stroke-width="2" stroke="red" d="M 770.0 510 770.0 484.8710319456701" /><path stroke-width="2" stroke="red" d="M 760.0 484.8710319456701 770.0 484.8710319456701" /><path stroke-width="2" stroke="red" d="M 670.0 510 670.0 484.69114750582565" /><path stroke-width="2" stroke="red" d="M 685.0 500.37325838239855 685.0 484.69114750582565" /><path stroke-width="2" stroke="red" d="M 670.0 484.69114750582565 685.0 484.69114750582565" /><path stroke-width="2" stroke="red" d="M 740.0 510 740.0 483.7972876390656" /><path stroke-width="2" stroke="red" d="M 750.0 510 750.0 483.7972876390656" /><path stroke-width="2" stroke="red" d="M 740.0 483.7972876390656 750.0 483.7972876390656" /><path stroke-width="2" stroke="blue" d="M 475.0 493.9480907105765 475.0 482.51175121994214" /><path stroke-width="2" stroke="blue" d="M 490.0 510 490.0 482.51175121994214" /><path stroke-width="2" stroke="blue" d="M 475.0 482.51175121994214 490.0 482.51175121994214" /><path stroke-width="2" stroke="green" d="M 10.0 510 10.0 482.19222998636945" /><path stroke-width="2" stroke="green" d="M 20.0 510 20.0 482.19222998636945" /><path stroke-width="2" stroke="green" d="M 10.0 482.19222998636945 20.0 482.19222998636945" /><path stroke-width="2" stroke="yellow" d="M 340.0 510 340.0 479.46459713295314" /><path stroke-width="2" stroke="yellow" d="M 350.0 510 350.0 479.46459713295314" /><path stroke-width="2" stroke="yellow" d="M 340.0 479.46459713295314 350.0 479.46459713295314" /><path stroke-width="2" stroke="blue" d="M 500.0 510 500.0 478.36180410234556" /><path stroke-width="2" stroke="blue" d="M 510.0 510 510.0 478.36180410234556" /><path stroke-width="2" stroke="blue" d="M 500.0 478.36180410234556 510.0 478.36180410234556" /><path stroke-width="2" stroke="green" d="M 60.0 510 60.0 477.44229823712413" /><path stroke-width="2" stroke="green" d="M 70.0 510 70.0 477.44229823712413" /><path stroke-width="2" stroke="green" d="M 60.0 477.44229823712413 70.0 477.44229823712413" /><path stroke-width="2" stroke="yellow" d="M 315.0 492.66737453996586 315.0 476.2766349837297" /><path stroke-width="2" stroke="yellow" d="M 330.0 510 330.0 476.2766349837297" /><path stroke-width="2" stroke="yellow" d="M 315.0 476.2766349837297 330.0 476.2766349837297" /><path stroke-width="2" stroke="purple" d="M 210.0 510 210.0 475.689506230605" /><path stroke-width="2" stroke="purple" d="M 220.0 510 220.0 475.689506230605" /><path stroke-width="2" stroke="purple" d="M 210.0 475.689506230605 220.0 475.689506230605" /><path stroke-width="2" stroke="red" d="M 637.5 496.08920659626426 637.5 475.35984779679495" /><path stroke-width="2" stroke="red" d="M 660.0 510 660.0 475.35984779679495" /><path stroke-width="2" stroke="red" d="M 637.5 475.35984779679495 660.0 475.35984779679495" /><path stroke-width="2" stroke="blue" d="M 405.0 488.6805847097132 405.0 474.88040277904275" /><path stroke-width="2" stroke="blue" d="M 420.0 510 420.0 474.88040277904275" /><path stroke-width="2" stroke="blue" d="M 405.0 474.88040277904275 420.0 474.88040277904275" /><path stroke-width="2" stroke="green" d="M 140.0 510 140.0 474.4848353038294" /><path stroke-width="2" stroke="green" d="M 150.0 510 150.0 474.4848353038294" /><path stroke-width="2" stroke="green" d="M 140.0 474.4848353038294 150.0 474.4848353038294" /><path stroke-width="2" stroke="blue" d="M 570.0 510 570.0 474.0343998536539" /><path stroke-width="2" stroke="blue" d="M 592.5 486.58392070164865 592.5 474.0343998536539" /><path stroke-width="2" stroke="blue" d="M 570.0 474.0343998536539 592.5 474.0343998536539" /><path stroke-width="2" stroke="green" d="M 80.0 510 80.0 473.058374594646" /><path stroke-width="2" stroke="green" d="M 95.0 491.37882495326727 95.0 473.058374594646" /><path stroke-width="2" stroke="green" d="M 80.0 473.058374594646 95.0 473.058374594646" /><path stroke-width="2" stroke="red" d="M 677.5 484.69114750582565 677.5 472.3671988997942" /><path stroke-width="2" stroke="red" d="M 700.0 510 700.0 472.3671988997942" /><path stroke-width="2" stroke="red" d="M 677.5 472.3671988997942 700.0 472.3671988997942" /><path stroke-width="2" stroke="blue" d="M 505.0 478.36180410234556 505.0 472.18770948492636" /><path stroke-width="2" stroke="blue" d="M 520.0 510 520.0 472.18770948492636" /><path stroke-width="2" stroke="blue" d="M 505.0 472.18770948492636 520.0 472.18770948492636" /><path stroke-width="2" stroke="red" d="M 785.0 490.60960279600863 785.0 472.18037830959275" /><path stroke-width="2" stroke="red" d="M 800.0 510 800.0 472.18037830959275" /><path stroke-width="2" stroke="red" d="M 785.0 472.18037830959275 800.0 472.18037830959275" /><path stroke-width="2" stroke="blue" d="M 540.0 510 540.0 471.74031151425527" /><path stroke-width="2" stroke="blue" d="M 550.0 510 550.0 471.74031151425527" /><path stroke-width="2" stroke="blue" d="M 540.0 471.74031151425527 550.0 471.74031151425527" /><path stroke-width="2" stroke="fuchsia" d="M 815.0 498.1229822433435 815.0 470.8589038369608" /><path stroke-width="2" stroke="fuchsia" d="M 835.0 500.8810505394723 835.0 470.8589038369608" /><path stroke-width="2" stroke="fuchsia" d="M 815.0 470.8589038369608 835.0 470.8589038369608" /><path stroke-width="2" stroke="red" d="M 710.0 510 710.0 470.11778463519096" /><path stroke-width="2" stroke="red" d="M 720.0 510 720.0 470.11778463519096" /><path stroke-width="2" stroke="red" d="M 710.0 470.11778463519096 720.0 470.11778463519096" /><path stroke-width="2" stroke="green" d="M 87.5 473.058374594646 87.5 468.3974571777421" /><path stroke-width="2" stroke="green" d="M 110.0 510 110.0 468.3974571777421" /><path stroke-width="2" stroke="green" d="M 87.5 468.3974571777421 110.0 468.3974571777421" /><path stroke-width="2" stroke="purple" d="M 235.0 495.86102314216004 235.0 466.1386091304902" /><path stroke-width="2" stroke="purple" d="M 262.5 485.91391635534876 262.5 466.1386091304902" /><path stroke-width="2" stroke="purple" d="M 235.0 466.1386091304902 262.5 466.1386091304902" /><path stroke-width="2" stroke="green" d="M 50.0 510 50.0 464.96637256373907" /><path stroke-width="2" stroke="green" d="M 65.0 477.44229823712413 65.0 464.96637256373907" /><path stroke-width="2" stroke="green" d="M 50.0 464.96637256373907 65.0 464.96637256373907" /><path stroke-width="2" stroke="blue" d="M 430.0 510 430.0 463.7901944056177" /><path stroke-width="2" stroke="blue" d="M 440.0 510 440.0 463.7901944056177" /><path stroke-width="2" stroke="blue" d="M 430.0 463.7901944056177 440.0 463.7901944056177" /><path stroke-width="2" stroke="blue" d="M 610.0 510 610.0 462.79248241151504" /><path stroke-width="2" stroke="blue" d="M 620.0 510 620.0 462.79248241151504" /><path stroke-width="2" stroke="blue" d="M 610.0 462.79248241151504 620.0 462.79248241151504" /><path stroke-width="2" stroke="red" d="M 688.75 472.3671988997942 688.75 461.3256182835179" /><path stroke-width="2" stroke="red" d="M 715.0 470.11778463519096 715.0 461.3256182835179" /><path stroke-width="2" stroke="red" d="M 688.75 461.3256182835179 715.0 461.3256182835179" /><path stroke-width="2" stroke="orange" d="M 860.0 510 860.0 461.01821552360394" /><path stroke-width="2" stroke="orange" d="M 875.0 499.6610532569112 875.0 461.01821552360394" /><path stroke-width="2" stroke="orange" d="M 860.0 461.01821552360394 875.0 461.01821552360394" /><path stroke-width="2" stroke="yellow" d="M 360.0 510 360.0 457.6867003838561" /><path stroke-width="2" stroke="yellow" d="M 370.0 510 370.0 457.6867003838561" /><path stroke-width="2" stroke="yellow" d="M 360.0 457.6867003838561 370.0 457.6867003838561" /><path stroke-width="2" stroke="red" d="M 648.75 475.35984779679495 648.75 452.5765494406627" /><path stroke-width="2" stroke="red" d="M 701.875 461.3256182835179 701.875 452.5765494406627" /><path stroke-width="2" stroke="red" d="M 648.75 452.5765494406627 701.875 452.5765494406627" /><path stroke-width="2" stroke="blue" d="M 482.5 482.51175121994214 482.5 451.7890915717144" /><path stroke-width="2" stroke="blue" d="M 512.5 472.18770948492636 512.5 451.7890915717144" /><path stroke-width="2" stroke="blue" d="M 482.5 451.7890915717144 512.5 451.7890915717144" /><path stroke-width="2" stroke="yellow" d="M 322.5 476.2766349837297 322.5 450.25298126977026" /><path stroke-width="2" stroke="yellow" d="M 345.0 479.46459713295314 345.0 450.25298126977026" /><path stroke-width="2" stroke="yellow" d="M 322.5 450.25298126977026 345.0 450.25298126977026" /><path stroke-width="2" stroke="blue" d="M 435.0 463.7901944056177 435.0 449.4915113562063" /><path stroke-width="2" stroke="blue" d="M 455.0 489.13892345959124 455.0 449.4915113562063" /><path stroke-width="2" stroke="blue" d="M 435.0 449.4915113562063 455.0 449.4915113562063" /><path stroke-width="2" stroke="red" d="M 675.3125 452.5765494406627 675.3125 449.3692621760205" /><path stroke-width="2" stroke="red" d="M 730.0 510 730.0 449.3692621760205" /><path stroke-width="2" stroke="red" d="M 675.3125 449.3692621760205 730.0 449.3692621760205" /><path stroke-width="2" stroke="purple" d="M 195.0 496.3776804058257 195.0 448.64240153509365" /><path stroke-width="2" stroke="purple" d="M 215.0 475.689506230605 215.0 448.64240153509365" /><path stroke-width="2" stroke="purple" d="M 195.0 448.64240153509365 215.0 448.64240153509365" /><path stroke-width="2" stroke="yellow" d="M 365.0 457.6867003838561 365.0 448.42825155728093" /><path stroke-width="2" stroke="yellow" d="M 385.0 500.95896772550464 385.0 448.42825155728093" /><path stroke-width="2" stroke="yellow" d="M 365.0 448.42825155728093 385.0 448.42825155728093" /><path stroke-width="2" stroke="green" d="M 130.0 510 130.0 448.41675349505095" /><path stroke-width="2" stroke="green" d="M 145.0 474.4848353038294 145.0 448.41675349505095" /><path stroke-width="2" stroke="green" d="M 130.0 448.41675349505095 145.0 448.41675349505095" /><path stroke-width="2" stroke="green" d="M 57.5 464.96637256373907 57.5 438.66951562746846" /><path stroke-width="2" stroke="green" d="M 98.75 468.3974571777421 98.75 438.66951562746846" /><path stroke-width="2" stroke="green" d="M 57.5 438.66951562746846 98.75 438.66951562746846" /><path stroke-width="2" stroke="blue" d="M 545.0 471.74031151425527 545.0 437.7852933999277" /><path stroke-width="2" stroke="blue" d="M 560.0 510 560.0 437.7852933999277" /><path stroke-width="2" stroke="blue" d="M 545.0 437.7852933999277 560.0 437.7852933999277" /><path stroke-width="2" stroke="purple" d="M 285.0 494.13408880486304 285.0 427.5005454283224" /><path stroke-width="2" stroke="purple" d="M 300.0 510 300.0 427.5005454283224" /><path stroke-width="2" stroke="purple" d="M 285.0 427.5005454283224 300.0 427.5005454283224" /><path stroke-width="2" stroke="red" d="M 745.0 483.7972876390656 745.0 423.7360895764687" /><path stroke-width="2" stroke="red" d="M 765.0 484.8710319456701 765.0 423.7360895764687" /><path stroke-width="2" stroke="red" d="M 745.0 423.7360895764687 765.0 423.7360895764687" /><path stroke-width="2" stroke="green" d="M 78.125 438.66951562746846 78.125 419.2472189151099" /><path stroke-width="2" stroke="green" d="M 120.0 510 120.0 419.2472189151099" /><path stroke-width="2" stroke="green" d="M 78.125 419.2472189151099 120.0 419.2472189151099" /><path stroke-width="2" stroke="orange" d="M 867.5 461.01821552360394 867.5 416.04571286142357" /><path stroke-width="2" stroke="orange" d="M 913.75 496.30581893256726 913.75 416.04571286142357" /><path stroke-width="2" stroke="orange" d="M 867.5 416.04571286142357 913.75 416.04571286142357" /><path stroke-width="2" stroke="blue" d="M 552.5 437.7852933999277 552.5 414.77231796608964" /><path stroke-width="2" stroke="blue" d="M 581.25 474.0343998536539 581.25 414.77231796608964" /><path stroke-width="2" stroke="blue" d="M 552.5 414.77231796608964 581.25 414.77231796608964" /><path stroke-width="2" stroke="blue" d="M 497.5 451.7890915717144 497.5 409.53160156182605" /><path stroke-width="2" stroke="blue" d="M 530.0 510 530.0 409.53160156182605" /><path stroke-width="2" stroke="blue" d="M 497.5 409.53160156182605 530.0 409.53160156182605" /><path stroke-width="2" stroke="green" d="M 99.0625 419.2472189151099 99.0625 406.81141122410355" /><path stroke-width="2" stroke="green" d="M 137.5 448.41675349505095 137.5 406.81141122410355" /><path stroke-width="2" stroke="green" d="M 99.0625 406.81141122410355 137.5 406.81141122410355" /><path stroke-width="2" stroke="fuchsia" d="M 825.0 470.8589038369608 825.0 406.22924078692233" /><path stroke-width="2" stroke="fuchsia" d="M 850.0 510 850.0 406.22924078692233" /><path stroke-width="2" stroke="fuchsia" d="M 825.0 406.22924078692233 850.0 406.22924078692233" /><path stroke-width="2" stroke="red" d="M 755.0 423.7360895764687 755.0 402.29902568515365" /><path stroke-width="2" stroke="red" d="M 792.5 472.18037830959275 792.5 402.29902568515365" /><path stroke-width="2" stroke="red" d="M 755.0 402.29902568515365 792.5 402.29902568515365" /><path stroke-width="2" stroke="olive" d="M 170.0 510 170.0 397.5269349215739" /><path stroke-width="2" stroke="olive" d="M 180.0 510 180.0 397.5269349215739" /><path stroke-width="2" stroke="olive" d="M 170.0 397.5269349215739 180.0 397.5269349215739" /><path stroke-width="2" stroke="orange" d="M 970.0 486.2958948669565 970.0 395.55655559386986" /><path stroke-width="2" stroke="orange" d="M 1000.0 510 1000.0 395.55655559386986" /><path stroke-width="2" stroke="orange" d="M 970.0 395.55655559386986 1000.0 395.55655559386986" /><path stroke-width="2" stroke="blue" d="M 412.5 474.88040277904275 412.5 393.44217637459406" /><path stroke-width="2" stroke="blue" d="M 445.0 449.4915113562063 445.0 393.44217637459406" /><path stroke-width="2" stroke="blue" d="M 412.5 393.44217637459406 445.0 393.44217637459406" /><path stroke-width="2" stroke="blue" d="M 566.875 414.77231796608964 566.875 388.8905023316155" /><path stroke-width="2" stroke="blue" d="M 615.0 462.79248241151504 615.0 388.8905023316155" /><path stroke-width="2" stroke="blue" d="M 566.875 388.8905023316155 615.0 388.8905023316155" /><path stroke-width="2" stroke="green" d="M 15.0 482.19222998636945 15.0 388.85363158981113" /><path stroke-width="2" stroke="green" d="M 35.0 494.06853053411885 35.0 388.85363158981113" /><path stroke-width="2" stroke="green" d="M 15.0 388.85363158981113 35.0 388.85363158981113" /><path stroke-width="2" stroke="green" d="M 118.28125 406.81141122410355 118.28125 384.4534636849065" /><path stroke-width="2" stroke="green" d="M 160.0 510 160.0 384.4534636849065" /><path stroke-width="2" stroke="green" d="M 118.28125 384.4534636849065 160.0 384.4534636849065" /><path stroke-width="2" stroke="purple" d="M 205.0 448.64240153509365 205.0 369.79365784789115" /><path stroke-width="2" stroke="purple" d="M 248.75 466.1386091304902 248.75 369.79365784789115" /><path stroke-width="2" stroke="purple" d="M 205.0 369.79365784789115 248.75 369.79365784789115" /><path stroke-width="2" stroke="blue" d="M 513.75 409.53160156182605 513.75 360.48274134108124" /><path stroke-width="2" stroke="blue" d="M 590.9375 388.8905023316155 590.9375 360.48274134108124" /><path stroke-width="2" stroke="blue" d="M 513.75 360.48274134108124 590.9375 360.48274134108124" /><path stroke-width="2" stroke="purple" d="M 226.875 369.79365784789115 226.875 343.9381433246142" /><path stroke-width="2" stroke="purple" d="M 292.5 427.5005454283224 292.5 343.9381433246142" /><path stroke-width="2" stroke="purple" d="M 226.875 343.9381433246142 292.5 343.9381433246142" /><path stroke-width="2" stroke="yellow" d="M 333.75 450.25298126977026 333.75 336.8077094854465" /><path stroke-width="2" stroke="yellow" d="M 375.0 448.42825155728093 375.0 336.8077094854465" /><path stroke-width="2" stroke="yellow" d="M 333.75 336.8077094854465 375.0 336.8077094854465" /><path stroke-width="2" stroke="orange" d="M 890.625 416.04571286142357 890.625 333.178105097328" /><path stroke-width="2" stroke="orange" d="M 985.0 395.55655559386986 985.0 333.178105097328" /><path stroke-width="2" stroke="orange" d="M 890.625 333.178105097328 985.0 333.178105097328" /><path stroke-width="2" stroke="red" d="M 702.65625 449.3692621760205 702.65625 329.5892750694662" /><path stroke-width="2" stroke="red" d="M 773.75 402.29902568515365 773.75 329.5892750694662" /><path stroke-width="2" stroke="red" d="M 702.65625 329.5892750694662 773.75 329.5892750694662" /><path stroke-width="2" stroke="green" d="M 25.0 388.85363158981113 25.0 318.34272723426943" /><path stroke-width="2" stroke="green" d="M 139.140625 384.4534636849065 139.140625 318.34272723426943" /><path stroke-width="2" stroke="green" d="M 25.0 318.34272723426943 139.140625 318.34272723426943" /><path stroke-width="2" stroke="blue" d="M 428.75 393.44217637459406 428.75 316.7744385296705" /><path stroke-width="2" stroke="blue" d="M 552.34375 360.48274134108124 552.34375 316.7744385296705" /><path stroke-width="2" stroke="blue" d="M 428.75 316.7744385296705 552.34375 316.7744385296705" /><path stroke-width="2" stroke="black" d="M 82.0703125 318.34272723426943 82.0703125 310.44215934135" /><path stroke-width="2" stroke="black" d="M 175.0 397.5269349215739 175.0 310.44215934135" /><path stroke-width="2" stroke="black" d="M 82.0703125 310.44215934135 175.0 310.44215934135" /><path stroke-width="2" stroke="black" d="M 128.53515625 310.44215934135 128.53515625 282.81416271249725" /><path stroke-width="2" stroke="black" d="M 259.6875 343.9381433246142 259.6875 282.81416271249725" /><path stroke-width="2" stroke="black" d="M 128.53515625 282.81416271249725 259.6875 282.81416271249725" /><path stroke-width="2" stroke="black" d="M 738.203125 329.5892750694662 738.203125 260.09755026376774" /><path stroke-width="2" stroke="black" d="M 837.5 406.22924078692233 837.5 260.09755026376774" /><path stroke-width="2" stroke="black" d="M 738.203125 260.09755026376774 837.5 260.09755026376774" /><path stroke-width="2" stroke="black" d="M 787.8515625 260.09755026376774 787.8515625 226.22070144081346" /><path stroke-width="2" stroke="black" d="M 937.8125 333.178105097328 937.8125 226.22070144081346" /><path stroke-width="2" stroke="black" d="M 787.8515625 226.22070144081346 937.8125 226.22070144081346" /><path stroke-width="2" stroke="black" d="M 194.111328125 282.81416271249725 194.111328125 207.33243159388257" /><path stroke-width="2" stroke="black" d="M 354.375 336.8077094854465 354.375 207.33243159388257" /><path stroke-width="2" stroke="black" d="M 194.111328125 207.33243159388257 354.375 207.33243159388257" /><path stroke-width="2" stroke="black" d="M 274.2431640625 207.33243159388257 274.2431640625 93.57154711095137" /><path stroke-width="2" stroke="black" d="M 490.546875 316.7744385296705 490.546875 93.57154711095137" /><path stroke-width="2" stroke="black" d="M 274.2431640625 93.57154711095137 490.546875 93.57154711095137" /><path stroke-width="2" stroke="black" d="M 382.39501953125 93.57154711095137 382.39501953125 10.0" /><path stroke-width="2" stroke="black" d="M 862.83203125 226.22070144081346 862.83203125 10.0" /><path stroke-width="2" stroke="black" d="M 382.39501953125 10.0 862.83203125 10.0" /></svg>