<svg width="1020" height="597.0"  xmlns="http://www.w3.org/2000/svg"><text x="650.4545454545455" y="515"  transform="rotate(60, 650.4545454545455, 515)" font-size="12">china</text><text x="641.3636363636364" y="515"  transform="rotate(60, 641.3636363636364, 515)" font-size="12">novel</text><text x="614.0909090909091" y="515"  transform="rotate(60, 614.0909090909091, 515)" font-size="12">outbreak</text><text x="159.54545454545456" y="515"  transform="rotate(60, 159.54545454545456, 515)" font-size="12">president</text><text x="514.0909090909091" y="515"  transform="rotate(60, 514.0909090909091, 515)" font-size="12">global</text><text x="150.45454545454547" y="515"  transform="rotate(60, 150.45454545454547, 515)" font-size="12">trump</text><text x="250.45454545454547" y="515"  transform="rotate(60, 250.45454545454547, 515)" font-size="12">say</text><text x="141.36363636363637" y="515"  transform="rotate(60, 141.36363636363637, 515)" font-size="12">house</text><text x="741.3636363636364" y="515"  transform="rotate(60, 741.3636363636364, 515)" font-size="12">people</text><text x="495.90909090909093" y="515"  transform="rotate(60, 495.90909090909093, 515)" font-size="12">world</text><text x="659.5454545454546" y="515"  transform="rotate(60, 659.5454545454546, 515)" font-size="12">medical</text><text x="177.72727272727275" y="515"  transform="rotate(60, 177.72727272727275, 515)" font-size="12">first</text><text x="714.0909090909091" y="515"  transform="rotate(60, 714.0909090909091, 515)" font-size="12">virus</text><text x="832.2727272727274" y="515"  transform="rotate(60, 832.2727272727274, 515)" font-size="12">case</text><text x="123.18181818181819" y="515"  transform="rotate(60, 123.18181818181819, 515)" font-size="12">test</text><text x="114.0909090909091" y="515"  transform="rotate(60, 114.0909090909091, 515)" font-size="12">positive</text><text x="395.90909090909093" y="515"  transform="rotate(60, 395.90909090909093, 515)" font-size="12">data</text><text x="450.4545454545455" y="515"  transform="rotate(60, 450.4545454545455, 515)" font-size="12">million</text><text x="795.909090909091" y="515"  transform="rotate(60, 795.909090909091, 515)" font-size="12">death</text><text x="477.72727272727275" y="515"  transform="rotate(60, 477.72727272727275, 515)" font-size="12">accord</text><text x="868.6363636363637" y="515"  transform="rotate(60, 868.6363636363637, 515)" font-size="12">new</text><text x="386.81818181818187" y="515"  transform="rotate(60, 386.81818181818187, 515)" font-size="12">show</text><text x="405.00000000000006" y="515"  transform="rotate(60, 405.00000000000006, 515)" font-size="12">trial</text><text x="77.72727272727273" y="515"  transform="rotate(60, 77.72727272727273, 515)" font-size="12">state</text><text x="305.0" y="515"  transform="rotate(60, 305.0, 515)" font-size="12">make</text><text x="559.5454545454546" y="515"  transform="rotate(60, 559.5454545454546, 515)" font-size="12">face</text><text x="268.6363636363637" y="515"  transform="rotate(60, 268.6363636363637, 515)" font-size="12">expert</text><text x="541.3636363636364" y="515"  transform="rotate(60, 541.3636363636364, 515)" font-size="12">pandemic</text><text x="195.90909090909093" y="515"  transform="rotate(60, 195.90909090909093, 515)" font-size="12">disease</text><text x="986.8181818181819" y="515"  transform="rotate(60, 986.8181818181819, 515)" font-size="12">take</text><text x="486.81818181818187" y="515"  transform="rotate(60, 486.81818181818187, 515)" font-size="12">health</text><text x="505.00000000000006" y="515"  transform="rotate(60, 505.00000000000006, 515)" font-size="12">organization</text><text x="68.63636363636364" y="515"  transform="rotate(60, 68.63636363636364, 515)" font-size="12">announce</text><text x="823.1818181818182" y="515"  transform="rotate(60, 823.1818181818182, 515)" font-size="12">confirm</text><text x="105.00000000000001" y="515"  transform="rotate(60, 105.00000000000001, 515)" font-size="12">cruise</text><text x="95.90909090909092" y="515"  transform="rotate(60, 95.90909090909092, 515)" font-size="12">ship</text><text x="432.2727272727273" y="515"  transform="rotate(60, 432.2727272727273, 515)" font-size="12">country</text><text x="586.8181818181819" y="515"  transform="rotate(60, 586.8181818181819, 515)" font-size="12">live</text><text x="186.81818181818184" y="515"  transform="rotate(60, 186.81818181818184, 515)" font-size="12">since</text><text x="595.909090909091" y="515"  transform="rotate(60, 595.909090909091, 515)" font-size="12">late</text><text x="632.2727272727274" y="515"  transform="rotate(60, 632.2727272727274, 515)" font-size="12">hubei</text><text x="623.1818181818182" y="515"  transform="rotate(60, 623.1818181818182, 515)" font-size="12">province</text><text x="768.6363636363637" y="515"  transform="rotate(60, 768.6363636363637, 515)" font-size="12">hospital</text><text x="668.6363636363637" y="515"  transform="rotate(60, 668.6363636363637, 515)" font-size="12">help</text><text x="677.7272727272727" y="515"  transform="rotate(60, 677.7272727272727, 515)" font-size="12">fight</text><text x="923.1818181818182" y="515"  transform="rotate(60, 923.1818181818182, 515)" font-size="12">risk</text><text x="605.0" y="515"  transform="rotate(60, 605.0, 515)" font-size="12">amid</text><text x="841.3636363636365" y="515"  transform="rotate(60, 841.3636363636365, 515)" font-size="12">number</text><text x="995.909090909091" y="515"  transform="rotate(60, 995.909090909091, 515)" font-size="12">day</text><text x="423.18181818181824" y="515"  transform="rotate(60, 423.18181818181824, 515)" font-size="12">minister</text><text x="968.6363636363637" y="515"  transform="rotate(60, 968.6363636363637, 515)" font-size="12">include</text><text x="550.4545454545455" y="515"  transform="rotate(60, 550.4545454545455, 515)" font-size="12">mask</text><text x="223.1818181818182" y="515"  transform="rotate(60, 223.1818181818182, 515)" font-size="12">official</text><text x="941.3636363636365" y="515"  transform="rotate(60, 941.3636363636365, 515)" font-size="12">daily</text><text x="214.09090909090912" y="515"  transform="rotate(60, 214.09090909090912, 515)" font-size="12">control</text><text x="23.181818181818183" y="515"  transform="rotate(60, 23.181818181818183, 515)" font-size="12">week</text><text x="850.4545454545455" y="515"  transform="rotate(60, 850.4545454545455, 515)" font-size="12">total</text><text x="286.81818181818187" y="515"  transform="rotate(60, 286.81818181818187, 515)" font-size="12">back</text><text x="277.72727272727275" y="515"  transform="rotate(60, 277.72727272727275, 515)" font-size="12">work</text><text x="977.7272727272729" y="515"  transform="rotate(60, 977.7272727272729, 515)" font-size="12">one</text><text x="295.90909090909093" y="515"  transform="rotate(60, 295.90909090909093, 515)" font-size="12">get</text><text x="468.6363636363637" y="515"  transform="rotate(60, 468.6363636363637, 515)" font-size="12">national</text><text x="914.0909090909091" y="515"  transform="rotate(60, 914.0909090909091, 515)" font-size="12">high</text><text x="350.4545454545455" y="515"  transform="rotate(60, 350.4545454545455, 515)" font-size="12">use</text><text x="732.2727272727274" y="515"  transform="rotate(60, 732.2727272727274, 515)" font-size="12">die</text><text x="686.8181818181819" y="515"  transform="rotate(60, 686.8181818181819, 515)" font-size="12">city</text><text x="414.0909090909091" y="515"  transform="rotate(60, 414.0909090909091, 515)" font-size="12">second</text><text x="532.2727272727274" y="515"  transform="rotate(60, 532.2727272727274, 515)" font-size="12">due</text><text x="695.909090909091" y="515"  transform="rotate(60, 695.909090909091, 515)" font-size="12">authority</text><text x="377.72727272727275" y="515"  transform="rotate(60, 377.72727272727275, 515)" font-size="12">find</text><text x="241.36363636363637" y="515"  transform="rotate(60, 241.36363636363637, 515)" font-size="12">may</text><text x="786.8181818181819" y="515"  transform="rotate(60, 786.8181818181819, 515)" font-size="12">infect</text><text x="959.5454545454546" y="515"  transform="rotate(60, 959.5454545454546, 515)" font-size="12">see</text><text x="777.7272727272727" y="515"  transform="rotate(60, 777.7272727272727, 515)" font-size="12">patient</text><text x="705.0000000000001" y="515"  transform="rotate(60, 705.0000000000001, 515)" font-size="12">spread</text><text x="750.4545454545455" y="515"  transform="rotate(60, 750.4545454545455, 515)" font-size="12">year</text><text x="759.5454545454546" y="515"  transform="rotate(60, 759.5454545454546, 515)" font-size="12">old</text><text x="859.5454545454546" y="515"  transform="rotate(60, 859.5454545454546, 515)" font-size="12">report</text><text x="805.0000000000001" y="515"  transform="rotate(60, 805.0000000000001, 515)" font-size="12">toll</text><text x="877.7272727272727" y="515"  transform="rotate(60, 877.7272727272727, 515)" font-size="12">infection</text><text x="723.1818181818182" y="515"  transform="rotate(60, 723.1818181818182, 515)" font-size="12">doctor</text><text x="523.1818181818182" y="515"  transform="rotate(60, 523.1818181818182, 515)" font-size="12">close</text><text x="32.27272727272727" y="515"  transform="rotate(60, 32.27272727272727, 515)" font-size="12">last</text><text x="259.54545454545456" y="515"  transform="rotate(60, 259.54545454545456, 515)" font-size="12">could</text><text x="459.54545454545456" y="515"  transform="rotate(60, 459.54545454545456, 515)" font-size="12">receive</text><text x="41.36363636363637" y="515"  transform="rotate(60, 41.36363636363637, 515)" font-size="12">government</text><text x="86.81818181818183" y="515"  transform="rotate(60, 86.81818181818183, 515)" font-size="12">quarantine</text><text x="232.27272727272728" y="515"  transform="rotate(60, 232.27272727272728, 515)" font-size="12">top</text><text x="14.090909090909093" y="515"  transform="rotate(60, 14.090909090909093, 515)" font-size="12">month</text><text x="5.0" y="515"  transform="rotate(60, 5.0, 515)" font-size="12">two</text><text x="568.6363636363637" y="515"  transform="rotate(60, 568.6363636363637, 515)" font-size="12">public</text><text x="359.54545454545456" y="515"  transform="rotate(60, 359.54545454545456, 515)" font-size="12">emergency</text><text x="577.7272727272727" y="515"  transform="rotate(60, 577.7272727272727, 515)" font-size="12">follow</text><text x="168.63636363636365" y="515"  transform="rotate(60, 168.63636363636365, 515)" font-size="12">time</text><text x="905.0000000000001" y="515"  transform="rotate(60, 905.0000000000001, 515)" font-size="12">rise</text><text x="59.54545454545455" y="515"  transform="rotate(60, 59.54545454545455, 515)" font-size="12">travel</text><text x="50.45454545454546" y="515"  transform="rotate(60, 50.45454545454546, 515)" font-size="12">restriction</text><text x="205.00000000000003" y="515"  transform="rotate(60, 205.00000000000003, 515)" font-size="12">center</text><text x="368.6363636363637" y="515"  transform="rotate(60, 368.6363636363637, 515)" font-size="12">study</text><text x="932.2727272727274" y="515"  transform="rotate(60, 932.2727272727274, 515)" font-size="12">hit</text><text x="814.0909090909091" y="515"  transform="rotate(60, 814.0909090909091, 515)" font-size="12">brazil</text><text x="950.4545454545455" y="515"  transform="rotate(60, 950.4545454545455, 515)" font-size="12">record</text><text x="441.3636363636364" y="515"  transform="rotate(60, 441.3636363636364, 515)" font-size="12">dos</text><text x="314.0909090909091" y="515"  transform="rotate(60, 314.0909090909091, 515)" font-size="12">shot</text><text x="132.27272727272728" y="515"  transform="rotate(60, 132.27272727272728, 515)" font-size="12">white</text><text x="895.909090909091" y="515"  transform="rotate(60, 895.909090909091, 515)" font-size="12">surge</text><text x="886.8181818181819" y="515"  transform="rotate(60, 886.8181818181819, 515)" font-size="12">india</text><text x="341.3636363636364" y="515"  transform="rotate(60, 341.3636363636364, 515)" font-size="12">blood</text><text x="332.2727272727273" y="515"  transform="rotate(60, 332.2727272727273, 515)" font-size="12">clot</text><text x="323.1818181818182" y="515"  transform="rotate(60, 323.1818181818182, 515)" font-size="12">johnson</text><path stroke-width="2" stroke="blue" d="M 337.2727272727273 510 337.2727272727273 505.223654343176" /><path stroke-width="2" stroke="blue" d="M 346.3636363636364 510 346.3636363636364 505.223654343176" /><path stroke-width="2" stroke="blue" d="M 337.2727272727273 505.223654343176 346.3636363636364 505.223654343176" /><path stroke-width="2" stroke="orange" d="M 100.90909090909092 510 100.90909090909092 504.9339043887741" /><path stroke-width="2" stroke="orange" d="M 110.00000000000001 510 110.00000000000001 504.9339043887741" /><path stroke-width="2" stroke="orange" d="M 100.90909090909092 504.9339043887741 110.00000000000001 504.9339043887741" /><path stroke-width="2" stroke="fuchsia" d="M 555.4545454545455 510 555.4545454545455 493.33189949737084" /><path stroke-width="2" stroke="fuchsia" d="M 564.5454545454546 510 564.5454545454546 493.33189949737084" /><path stroke-width="2" stroke="fuchsia" d="M 555.4545454545455 493.33189949737084 564.5454545454546 493.33189949737084" /><path stroke-width="2" stroke="orange" d="M 137.27272727272728 510 137.27272727272728 492.5622056634425" /><path stroke-width="2" stroke="orange" d="M 146.36363636363637 510 146.36363636363637 492.5622056634425" /><path stroke-width="2" stroke="orange" d="M 137.27272727272728 492.5622056634425 146.36363636363637 492.5622056634425" /><path stroke-width="2" stroke="red" d="M 628.1818181818182 510 628.1818181818182 490.5473751104885" /><path stroke-width="2" stroke="red" d="M 637.2727272727274 510 637.2727272727274 490.5473751104885" /><path stroke-width="2" stroke="red" d="M 628.1818181818182 490.5473751104885 637.2727272727274 490.5473751104885" /><path stroke-width="2" stroke="blue" d="M 210.00000000000003 510 210.00000000000003 490.0998506770439" /><path stroke-width="2" stroke="blue" d="M 219.09090909090912 510 219.09090909090912 490.0998506770439" /><path stroke-width="2" stroke="blue" d="M 210.00000000000003 490.0998506770439 219.09090909090912 490.0998506770439" /><path stroke-width="2" stroke="blue" d="M 373.6363636363637 510 373.6363636363637 489.78692357357295" /><path stroke-width="2" stroke="blue" d="M 382.72727272727275 510 382.72727272727275 489.78692357357295" /><path stroke-width="2" stroke="blue" d="M 373.6363636363637 489.78692357357295 382.72727272727275 489.78692357357295" /><path stroke-width="2" stroke="blue" d="M 355.4545454545455 510 355.4545454545455 489.2737631053899" /><path stroke-width="2" stroke="blue" d="M 364.54545454545456 510 364.54545454545456 489.2737631053899" /><path stroke-width="2" stroke="blue" d="M 355.4545454545455 489.2737631053899 364.54545454545456 489.2737631053899" /><path stroke-width="2" stroke="purple" d="M 446.3636363636364 510 446.3636363636364 488.2057243466458" /><path stroke-width="2" stroke="purple" d="M 455.4545454545455 510 455.4545454545455 488.2057243466458" /><path stroke-width="2" stroke="purple" d="M 446.3636363636364 488.2057243466458 455.4545454545455 488.2057243466458" /><path stroke-width="2" stroke="red" d="M 755.4545454545455 510 755.4545454545455 486.76762077983074" /><path stroke-width="2" stroke="red" d="M 764.5454545454546 510 764.5454545454546 486.76762077983074" /><path stroke-width="2" stroke="red" d="M 755.4545454545455 486.76762077983074 764.5454545454546 486.76762077983074" /><path stroke-width="2" stroke="orange" d="M 91.81818181818183 510 91.81818181818183 486.5818944824582" /><path stroke-width="2" stroke="orange" d="M 105.45454545454547 504.9339043887741 105.45454545454547 486.5818944824582" /><path stroke-width="2" stroke="orange" d="M 91.81818181818183 486.5818944824582 105.45454545454547 486.5818944824582" /><path stroke-width="2" stroke="blue" d="M 400.90909090909093 510 400.90909090909093 485.8737715792222" /><path stroke-width="2" stroke="blue" d="M 410.00000000000006 510 410.00000000000006 485.8737715792222" /><path stroke-width="2" stroke="blue" d="M 400.90909090909093 485.8737715792222 410.00000000000006 485.8737715792222" /><path stroke-width="2" stroke="blue" d="M 328.1818181818182 510 328.1818181818182 485.8400424342858" /><path stroke-width="2" stroke="blue" d="M 341.81818181818187 505.223654343176 341.81818181818187 485.8400424342858" /><path stroke-width="2" stroke="blue" d="M 328.1818181818182 485.8400424342858 341.81818181818187 485.8400424342858" /><path stroke-width="2" stroke="purple" d="M 500.90909090909093 510 500.90909090909093 485.065649587585" /><path stroke-width="2" stroke="purple" d="M 510.00000000000006 510 510.00000000000006 485.065649587585" /><path stroke-width="2" stroke="purple" d="M 500.90909090909093 485.065649587585 510.00000000000006 485.065649587585" /><path stroke-width="2" stroke="blue" d="M 200.90909090909093 510 200.90909090909093 484.40488985970285" /><path stroke-width="2" stroke="blue" d="M 214.54545454545456 490.0998506770439 214.54545454545456 484.40488985970285" /><path stroke-width="2" stroke="blue" d="M 200.90909090909093 484.40488985970285 214.54545454545456 484.40488985970285" /><path stroke-width="2" stroke="blue" d="M 319.0909090909091 510 319.0909090909091 477.03343076020326" /><path stroke-width="2" stroke="blue" d="M 335.0 485.8400424342858 335.0 477.03343076020326" /><path stroke-width="2" stroke="blue" d="M 319.0909090909091 477.03343076020326 335.0 477.03343076020326" /><path stroke-width="2" stroke="red" d="M 773.6363636363637 510 773.6363636363637 475.0964934631975" /><path stroke-width="2" stroke="red" d="M 782.7272727272727 510 782.7272727272727 475.0964934631975" /><path stroke-width="2" stroke="red" d="M 773.6363636363637 475.0964934631975 782.7272727272727 475.0964934631975" /><path stroke-width="2" stroke="orange" d="M 119.0909090909091 510 119.0909090909091 473.8238920766332" /><path stroke-width="2" stroke="orange" d="M 128.1818181818182 510 128.1818181818182 473.8238920766332" /><path stroke-width="2" stroke="orange" d="M 119.0909090909091 473.8238920766332 128.1818181818182 473.8238920766332" /><path stroke-width="2" stroke="red" d="M 582.7272727272727 510 582.7272727272727 471.3732943071033" /><path stroke-width="2" stroke="red" d="M 591.8181818181819 510 591.8181818181819 471.3732943071033" /><path stroke-width="2" stroke="red" d="M 582.7272727272727 471.3732943071033 591.8181818181819 471.3732943071033" /><path stroke-width="2" stroke="green" d="M 946.3636363636365 510 946.3636363636365 471.07367734363663" /><path stroke-width="2" stroke="green" d="M 955.4545454545455 510 955.4545454545455 471.07367734363663" /><path stroke-width="2" stroke="green" d="M 946.3636363636365 471.07367734363663 955.4545454545455 471.07367734363663" /><path stroke-width="2" stroke="green" d="M 800.909090909091 510 800.909090909091 469.31861109769784" /><path stroke-width="2" stroke="green" d="M 810.0000000000001 510 810.0000000000001 469.31861109769784" /><path stroke-width="2" stroke="green" d="M 800.909090909091 469.31861109769784 810.0000000000001 469.31861109769784" /><path stroke-width="2" stroke="yellow" d="M 55.45454545454546 510 55.45454545454546 468.00624393339507" /><path stroke-width="2" stroke="yellow" d="M 64.54545454545455 510 64.54545454545455 468.00624393339507" /><path stroke-width="2" stroke="yellow" d="M 55.45454545454546 468.00624393339507 64.54545454545455 468.00624393339507" /><path stroke-width="2" stroke="yellow" d="M 28.181818181818183 510 28.181818181818183 464.9197506492955" /><path stroke-width="2" stroke="yellow" d="M 37.27272727272727 510 37.27272727272727 464.9197506492955" /><path stroke-width="2" stroke="yellow" d="M 28.181818181818183 464.9197506492955 37.27272727272727 464.9197506492955" /><path stroke-width="2" stroke="green" d="M 891.8181818181819 510 891.8181818181819 464.6571570188811" /><path stroke-width="2" stroke="green" d="M 900.909090909091 510 900.909090909091 464.6571570188811" /><path stroke-width="2" stroke="green" d="M 891.8181818181819 464.6571570188811 900.909090909091 464.6571570188811" /><path stroke-width="2" stroke="orange" d="M 155.45454545454547 510 155.45454545454547 460.91894800166676" /><path stroke-width="2" stroke="orange" d="M 164.54545454545456 510 164.54545454545456 460.91894800166676" /><path stroke-width="2" stroke="orange" d="M 155.45454545454547 460.91894800166676 164.54545454545456 460.91894800166676" /><path stroke-width="2" stroke="red" d="M 587.2727272727273 471.3732943071033 587.2727272727273 460.56838877341414" /><path stroke-width="2" stroke="red" d="M 600.909090909091 510 600.909090909091 460.56838877341414" /><path stroke-width="2" stroke="red" d="M 587.2727272727273 460.56838877341414 600.909090909091 460.56838877341414" /><path stroke-width="2" stroke="blue" d="M 391.81818181818187 510 391.81818181818187 458.21278980657803" /><path stroke-width="2" stroke="blue" d="M 405.4545454545455 485.8737715792222 405.4545454545455 458.21278980657803" /><path stroke-width="2" stroke="blue" d="M 391.81818181818187 458.21278980657803 405.4545454545455 458.21278980657803" /><path stroke-width="2" stroke="green" d="M 919.0909090909091 510 919.0909090909091 456.7101615041986" /><path stroke-width="2" stroke="green" d="M 928.1818181818182 510 928.1818181818182 456.7101615041986" /><path stroke-width="2" stroke="green" d="M 919.0909090909091 456.7101615041986 928.1818181818182 456.7101615041986" /><path stroke-width="2" stroke="fuchsia" d="M 528.1818181818182 510 528.1818181818182 455.7701469390545" /><path stroke-width="2" stroke="fuchsia" d="M 537.2727272727274 510 537.2727272727274 455.7701469390545" /><path stroke-width="2" stroke="fuchsia" d="M 528.1818181818182 455.7701469390545 537.2727272727274 455.7701469390545" /><path stroke-width="2" stroke="red" d="M 728.1818181818182 510 728.1818181818182 455.60373101981247" /><path stroke-width="2" stroke="red" d="M 737.2727272727274 510 737.2727272727274 455.60373101981247" /><path stroke-width="2" stroke="red" d="M 728.1818181818182 455.60373101981247 737.2727272727274 455.60373101981247" /><path stroke-width="2" stroke="green" d="M 805.4545454545455 469.31861109769784 805.4545454545455 449.85797416205844" /><path stroke-width="2" stroke="green" d="M 819.0909090909091 510 819.0909090909091 449.85797416205844" /><path stroke-width="2" stroke="green" d="M 805.4545454545455 449.85797416205844 819.0909090909091 449.85797416205844" /><path stroke-width="2" stroke="blue" d="M 282.72727272727275 510 282.72727272727275 449.69527581155353" /><path stroke-width="2" stroke="blue" d="M 291.81818181818187 510 291.81818181818187 449.69527581155353" /><path stroke-width="2" stroke="blue" d="M 282.72727272727275 449.69527581155353 291.81818181818187 449.69527581155353" /><path stroke-width="2" stroke="green" d="M 846.3636363636365 510 846.3636363636365 448.26668988625937" /><path stroke-width="2" stroke="green" d="M 855.4545454545455 510 855.4545454545455 448.26668988625937" /><path stroke-width="2" stroke="green" d="M 846.3636363636365 448.26668988625937 855.4545454545455 448.26668988625937" /><path stroke-width="2" stroke="red" d="M 673.6363636363637 510 673.6363636363637 447.211177018826" /><path stroke-width="2" stroke="red" d="M 682.7272727272727 510 682.7272727272727 447.211177018826" /><path stroke-width="2" stroke="red" d="M 673.6363636363637 447.211177018826 682.7272727272727 447.211177018826" /><path stroke-width="2" stroke="purple" d="M 419.0909090909091 510 419.0909090909091 442.5065215530892" /><path stroke-width="2" stroke="purple" d="M 428.18181818181824 510 428.18181818181824 442.5065215530892" /><path stroke-width="2" stroke="purple" d="M 419.0909090909091 442.5065215530892 428.18181818181824 442.5065215530892" /><path stroke-width="2" stroke="purple" d="M 450.90909090909093 488.2057243466458 450.90909090909093 438.5025812475487" /><path stroke-width="2" stroke="purple" d="M 464.54545454545456 510 464.54545454545456 438.5025812475487" /><path stroke-width="2" stroke="purple" d="M 450.90909090909093 438.5025812475487 464.54545454545456 438.5025812475487" /><path stroke-width="2" stroke="blue" d="M 228.1818181818182 510 228.1818181818182 436.7698168379703" /><path stroke-width="2" stroke="blue" d="M 237.27272727272728 510 237.27272727272728 436.7698168379703" /><path stroke-width="2" stroke="blue" d="M 228.1818181818182 436.7698168379703 237.27272727272728 436.7698168379703" /><path stroke-width="2" stroke="red" d="M 610.0 510 610.0 435.07412150004916" /><path stroke-width="2" stroke="red" d="M 619.0909090909091 510 619.0909090909091 435.07412150004916" /><path stroke-width="2" stroke="red" d="M 610.0 435.07412150004916 619.0909090909091 435.07412150004916" /><path stroke-width="2" stroke="red" d="M 778.1818181818182 475.0964934631975 778.1818181818182 434.593738221444" /><path stroke-width="2" stroke="red" d="M 791.8181818181819 510 791.8181818181819 434.593738221444" /><path stroke-width="2" stroke="red" d="M 778.1818181818182 434.593738221444 791.8181818181819 434.593738221444" /><path stroke-width="2" stroke="red" d="M 664.5454545454546 510 664.5454545454546 434.26457347122977" /><path stroke-width="2" stroke="red" d="M 678.1818181818182 447.211177018826 678.1818181818182 434.26457347122977" /><path stroke-width="2" stroke="red" d="M 664.5454545454546 434.26457347122977 678.1818181818182 434.26457347122977" /><path stroke-width="2" stroke="orange" d="M 173.63636363636365 510 173.63636363636365 432.860014310376" /><path stroke-width="2" stroke="orange" d="M 182.72727272727275 510 182.72727272727275 432.860014310376" /><path stroke-width="2" stroke="orange" d="M 173.63636363636365 432.860014310376 182.72727272727275 432.860014310376" /><path stroke-width="2" stroke="orange" d="M 141.8181818181818 492.5622056634425 141.8181818181818 432.0143789774456" /><path stroke-width="2" stroke="orange" d="M 160.0 460.91894800166676 160.0 432.0143789774456" /><path stroke-width="2" stroke="orange" d="M 141.8181818181818 432.0143789774456 160.0 432.0143789774456" /><path stroke-width="2" stroke="blue" d="M 327.04545454545456 477.03343076020326 327.04545454545456 428.5476824246672" /><path stroke-width="2" stroke="blue" d="M 360.0 489.2737631053899 360.0 428.5476824246672" /><path stroke-width="2" stroke="blue" d="M 327.04545454545456 428.5476824246672 360.0 428.5476824246672" /><path stroke-width="2" stroke="green" d="M 882.7272727272727 510 882.7272727272727 425.22242162583393" /><path stroke-width="2" stroke="green" d="M 896.3636363636365 464.6571570188811 896.3636363636365 425.22242162583393" /><path stroke-width="2" stroke="green" d="M 882.7272727272727 425.22242162583393 896.3636363636365 425.22242162583393" /><path stroke-width="2" stroke="green" d="M 937.2727272727274 510 937.2727272727274 424.25564355657855" /><path stroke-width="2" stroke="green" d="M 950.909090909091 471.07367734363663 950.909090909091 424.25564355657855" /><path stroke-width="2" stroke="green" d="M 937.2727272727274 424.25564355657855 950.909090909091 424.25564355657855" /><path stroke-width="2" stroke="blue" d="M 300.90909090909093 510 300.90909090909093 424.0658973829477" /><path stroke-width="2" stroke="blue" d="M 310.0 510 310.0 424.0658973829477" /><path stroke-width="2" stroke="blue" d="M 300.90909090909093 424.0658973829477 310.0 424.0658973829477" /><path stroke-width="2" stroke="red" d="M 691.8181818181819 510 691.8181818181819 422.79959863903844" /><path stroke-width="2" stroke="red" d="M 700.909090909091 510 700.909090909091 422.79959863903844" /><path stroke-width="2" stroke="red" d="M 691.8181818181819 422.79959863903844 700.909090909091 422.79959863903844" /><path stroke-width="2" stroke="yellow" d="M 46.36363636363637 510 46.36363636363637 422.0798643982034" /><path stroke-width="2" stroke="yellow" d="M 60.0 468.00624393339507 60.0 422.0798643982034" /><path stroke-width="2" stroke="yellow" d="M 46.36363636363637 422.0798643982034 60.0 422.0798643982034" /><path stroke-width="2" stroke="purple" d="M 491.81818181818187 510 491.81818181818187 421.8290721741964" /><path stroke-width="2" stroke="purple" d="M 505.4545454545455 485.065649587585 505.4545454545455 421.8290721741964" /><path stroke-width="2" stroke="purple" d="M 491.81818181818187 421.8290721741964 505.4545454545455 421.8290721741964" /><path stroke-width="2" stroke="yellow" d="M 10.0 510 10.0 418.4308110872178" /><path stroke-width="2" stroke="yellow" d="M 19.090909090909093 510 19.090909090909093 418.4308110872178" /><path stroke-width="2" stroke="yellow" d="M 10.0 418.4308110872178 19.090909090909093 418.4308110872178" /><path stroke-width="2" stroke="blue" d="M 264.54545454545456 510 264.54545454545456 418.2717170407511" /><path stroke-width="2" stroke="blue" d="M 273.6363636363637 510 273.6363636363637 418.2717170407511" /><path stroke-width="2" stroke="blue" d="M 264.54545454545456 418.2717170407511 273.6363636363637 418.2717170407511" /><path stroke-width="2" stroke="orange" d="M 98.63636363636365 486.5818944824582 98.63636363636365 417.686520241599" /><path stroke-width="2" stroke="orange" d="M 123.63636363636364 473.8238920766332 123.63636363636364 417.686520241599" /><path stroke-width="2" stroke="orange" d="M 98.63636363636365 417.686520241599 123.63636363636364 417.686520241599" /><path stroke-width="2" stroke="fuchsia" d="M 560.0 493.33189949737084 560.0 417.13043971077445" /><path stroke-width="2" stroke="fuchsia" d="M 573.6363636363637 510 573.6363636363637 417.13043971077445" /><path stroke-width="2" stroke="fuchsia" d="M 560.0 417.13043971077445 573.6363636363637 417.13043971077445" /><path stroke-width="2" stroke="fuchsia" d="M 532.7272727272727 455.7701469390545 532.7272727272727 416.35040122270624" /><path stroke-width="2" stroke="fuchsia" d="M 546.3636363636364 510 546.3636363636364 416.35040122270624" /><path stroke-width="2" stroke="fuchsia" d="M 532.7272727272727 416.35040122270624 546.3636363636364 416.35040122270624" /><path stroke-width="2" stroke="green" d="M 828.1818181818182 510 828.1818181818182 414.8088283734014" /><path stroke-width="2" stroke="green" d="M 837.2727272727274 510 837.2727272727274 414.8088283734014" /><path stroke-width="2" stroke="green" d="M 828.1818181818182 414.8088283734014 837.2727272727274 414.8088283734014" /><path stroke-width="2" stroke="olive" d="M 973.6363636363637 510 973.6363636363637 413.4976789877595" /><path stroke-width="2" stroke="olive" d="M 982.7272727272729 510 982.7272727272729 413.4976789877595" /><path stroke-width="2" stroke="olive" d="M 973.6363636363637 413.4976789877595 982.7272727272729 413.4976789877595" /><path stroke-width="2" stroke="blue" d="M 287.2727272727273 449.69527581155353 287.2727272727273 410.7417726603571" /><path stroke-width="2" stroke="blue" d="M 305.4545454545455 424.0658973829477 305.4545454545455 410.7417726603571" /><path stroke-width="2" stroke="blue" d="M 287.2727272727273 410.7417726603571 305.4545454545455 410.7417726603571" /><path stroke-width="2" stroke="red" d="M 632.7272727272727 490.5473751104885 632.7272727272727 409.54126118033753" /><path stroke-width="2" stroke="red" d="M 646.3636363636364 510 646.3636363636364 409.54126118033753" /><path stroke-width="2" stroke="red" d="M 632.7272727272727 409.54126118033753 646.3636363636364 409.54126118033753" /><path stroke-width="2" stroke="yellow" d="M 53.18181818181819 422.0798643982034 53.18181818181819 408.4632235998652" /><path stroke-width="2" stroke="yellow" d="M 73.63636363636364 510 73.63636363636364 408.4632235998652" /><path stroke-width="2" stroke="yellow" d="M 53.18181818181819 408.4632235998652 73.63636363636364 408.4632235998652" /><path stroke-width="2" stroke="blue" d="M 378.18181818181824 489.78692357357295 378.18181818181824 407.5015206227838" /><path stroke-width="2" stroke="blue" d="M 398.6363636363637 458.21278980657803 398.6363636363637 407.5015206227838" /><path stroke-width="2" stroke="blue" d="M 378.18181818181824 407.5015206227838 398.6363636363637 407.5015206227838" /><path stroke-width="2" stroke="orange" d="M 178.1818181818182 432.860014310376 178.1818181818182 407.1610510352296" /><path stroke-width="2" stroke="orange" d="M 191.81818181818184 510 191.81818181818184 407.1610510352296" /><path stroke-width="2" stroke="orange" d="M 178.1818181818182 407.1610510352296 191.81818181818184 407.1610510352296" /><path stroke-width="2" stroke="red" d="M 710.0000000000001 510 710.0000000000001 397.3211558101525" /><path stroke-width="2" stroke="red" d="M 719.0909090909091 510 719.0909090909091 397.3211558101525" /><path stroke-width="2" stroke="red" d="M 710.0000000000001 397.3211558101525 719.0909090909091 397.3211558101525" /><path stroke-width="2" stroke="red" d="M 732.7272727272727 455.60373101981247 732.7272727272727 393.1551937666313" /><path stroke-width="2" stroke="red" d="M 746.3636363636364 510 746.3636363636364 393.1551937666313" /><path stroke-width="2" stroke="red" d="M 732.7272727272727 393.1551937666313 746.3636363636364 393.1551937666313" /><path stroke-width="2" stroke="green" d="M 923.6363636363637 456.7101615041986 923.6363636363637 391.57877730434876" /><path stroke-width="2" stroke="green" d="M 944.0909090909092 424.25564355657855 944.0909090909092 391.57877730434876" /><path stroke-width="2" stroke="green" d="M 923.6363636363637 391.57877730434876 944.0909090909092 391.57877730434876" /><path stroke-width="2" stroke="purple" d="M 498.6363636363637 421.8290721741964 498.6363636363637 387.728294446804" /><path stroke-width="2" stroke="purple" d="M 519.0909090909091 510 519.0909090909091 387.728294446804" /><path stroke-width="2" stroke="purple" d="M 498.6363636363637 387.728294446804 519.0909090909091 387.728294446804" /><path stroke-width="2" stroke="yellow" d="M 14.545454545454547 418.4308110872178 14.545454545454547 385.5758432737979" /><path stroke-width="2" stroke="yellow" d="M 32.72727272727273 464.9197506492955 32.72727272727273 385.5758432737979" /><path stroke-width="2" stroke="yellow" d="M 14.545454545454547 385.5758432737979 32.72727272727273 385.5758432737979" /><path stroke-width="2" stroke="green" d="M 889.5454545454546 425.22242162583393 889.5454545454546 385.03969020451285" /><path stroke-width="2" stroke="green" d="M 910.0000000000001 510 910.0000000000001 385.03969020451285" /><path stroke-width="2" stroke="green" d="M 889.5454545454546 385.03969020451285 910.0000000000001 385.03969020451285" /><path stroke-width="2" stroke="purple" d="M 473.6363636363637 510 473.6363636363637 383.71653492535137" /><path stroke-width="2" stroke="purple" d="M 482.72727272727275 510 482.72727272727275 383.71653492535137" /><path stroke-width="2" stroke="purple" d="M 473.6363636363637 383.71653492535137 482.72727272727275 383.71653492535137" /><path stroke-width="2" stroke="red" d="M 639.5454545454545 409.54126118033753 639.5454545454545 375.93085435314913" /><path stroke-width="2" stroke="red" d="M 655.4545454545455 510 655.4545454545455 375.93085435314913" /><path stroke-width="2" stroke="red" d="M 639.5454545454545 375.93085435314913 655.4545454545455 375.93085435314913" /><path stroke-width="2" stroke="green" d="M 832.7272727272727 414.8088283734014 832.7272727272727 375.1790290951069" /><path stroke-width="2" stroke="green" d="M 850.909090909091 448.26668988625937 850.909090909091 375.1790290951069" /><path stroke-width="2" stroke="green" d="M 832.7272727272727 375.1790290951069 850.909090909091 375.1790290951069" /><path stroke-width="2" stroke="red" d="M 614.5454545454545 435.07412150004916 614.5454545454545 366.7320500646997" /><path stroke-width="2" stroke="red" d="M 647.5 375.93085435314913 647.5 366.7320500646997" /><path stroke-width="2" stroke="red" d="M 614.5454545454545 366.7320500646997 647.5 366.7320500646997" /><path stroke-width="2" stroke="purple" d="M 423.6363636363637 442.5065215530892 423.6363636363637 363.1136860765065" /><path stroke-width="2" stroke="purple" d="M 437.2727272727273 510 437.2727272727273 363.1136860765065" /><path stroke-width="2" stroke="purple" d="M 423.6363636363637 363.1136860765065 437.2727272727273 363.1136860765065" /><path stroke-width="2" stroke="yellow" d="M 63.409090909090914 408.4632235998652 63.409090909090914 362.2333460921544" /><path stroke-width="2" stroke="yellow" d="M 82.72727272727273 510 82.72727272727273 362.2333460921544" /><path stroke-width="2" stroke="yellow" d="M 63.409090909090914 362.2333460921544 82.72727272727273 362.2333460921544" /><path stroke-width="2" stroke="blue" d="M 246.36363636363637 510 246.36363636363637 361.08378392358793" /><path stroke-width="2" stroke="blue" d="M 255.45454545454547 510 255.45454545454547 361.08378392358793" /><path stroke-width="2" stroke="blue" d="M 246.36363636363637 361.08378392358793 255.45454545454547 361.08378392358793" /><path stroke-width="2" stroke="green" d="M 864.5454545454546 510 864.5454545454546 359.3977334372228" /><path stroke-width="2" stroke="green" d="M 873.6363636363637 510 873.6363636363637 359.3977334372228" /><path stroke-width="2" stroke="green" d="M 864.5454545454546 359.3977334372228 873.6363636363637 359.3977334372228" /><path stroke-width="2" stroke="orange" d="M 111.13636363636365 417.686520241599 111.13636363636365 352.82907151673584" /><path stroke-width="2" stroke="orange" d="M 150.9090909090909 432.0143789774456 150.9090909090909 352.82907151673584" /><path stroke-width="2" stroke="orange" d="M 111.13636363636365 352.82907151673584 150.9090909090909 352.82907151673584" /><path stroke-width="2" stroke="red" d="M 594.0909090909091 460.56838877341414 594.0909090909091 351.2418187173002" /><path stroke-width="2" stroke="red" d="M 631.0227272727273 366.7320500646997 631.0227272727273 351.2418187173002" /><path stroke-width="2" stroke="red" d="M 594.0909090909091 351.2418187173002 631.0227272727273 351.2418187173002" /><path stroke-width="2" stroke="green" d="M 899.7727272727274 385.03969020451285 899.7727272727274 348.9568979193908" /><path stroke-width="2" stroke="green" d="M 933.8636363636365 391.57877730434876 933.8636363636365 348.9568979193908" /><path stroke-width="2" stroke="green" d="M 899.7727272727274 348.9568979193908 933.8636363636365 348.9568979193908" /><path stroke-width="2" stroke="blue" d="M 343.52272727272725 428.5476824246672 343.52272727272725 335.2019753319629" /><path stroke-width="2" stroke="blue" d="M 388.409090909091 407.5015206227838 388.409090909091 335.2019753319629" /><path stroke-width="2" stroke="blue" d="M 343.52272727272725 335.2019753319629 388.409090909091 335.2019753319629" /><path stroke-width="2" stroke="red" d="M 760.0 486.76762077983074 760.0 334.8590083505132" /><path stroke-width="2" stroke="red" d="M 785.0 434.593738221444 785.0 334.8590083505132" /><path stroke-width="2" stroke="red" d="M 760.0 334.8590083505132 785.0 334.8590083505132" /><path stroke-width="2" stroke="green" d="M 841.8181818181819 375.1790290951069 841.8181818181819 333.86655285454526" /><path stroke-width="2" stroke="green" d="M 869.0909090909092 359.3977334372228 869.0909090909092 333.86655285454526" /><path stroke-width="2" stroke="green" d="M 841.8181818181819 333.86655285454526 869.0909090909092 333.86655285454526" /><path stroke-width="2" stroke="blue" d="M 250.90909090909093 361.08378392358793 250.90909090909093 332.7791846369187" /><path stroke-width="2" stroke="blue" d="M 269.0909090909091 418.2717170407511 269.0909090909091 332.7791846369187" /><path stroke-width="2" stroke="blue" d="M 250.90909090909093 332.7791846369187 269.0909090909091 332.7791846369187" /><path stroke-width="2" stroke="red" d="M 612.5568181818182 351.2418187173002 612.5568181818182 323.72463658455774" /><path stroke-width="2" stroke="red" d="M 671.3636363636365 434.26457347122977 671.3636363636365 323.72463658455774" /><path stroke-width="2" stroke="red" d="M 612.5568181818182 323.72463658455774 671.3636363636365 323.72463658455774" /><path stroke-width="2" stroke="fuchsia" d="M 539.5454545454545 416.35040122270624 539.5454545454545 318.1333595307482" /><path stroke-width="2" stroke="fuchsia" d="M 566.8181818181819 417.13043971077445 566.8181818181819 318.1333595307482" /><path stroke-width="2" stroke="fuchsia" d="M 539.5454545454545 318.1333595307482 566.8181818181819 318.1333595307482" /><path stroke-width="2" stroke="purple" d="M 430.4545454545455 363.1136860765065 430.4545454545455 318.1114043245128" /><path stroke-width="2" stroke="purple" d="M 457.72727272727275 438.5025812475487 457.72727272727275 318.1114043245128" /><path stroke-width="2" stroke="purple" d="M 430.4545454545455 318.1114043245128 457.72727272727275 318.1114043245128" /><path stroke-width="2" stroke="blue" d="M 207.72727272727275 484.40488985970285 207.72727272727275 315.98709970842685" /><path stroke-width="2" stroke="blue" d="M 232.72727272727275 436.7698168379703 232.72727272727275 315.98709970842685" /><path stroke-width="2" stroke="blue" d="M 207.72727272727275 315.98709970842685 232.72727272727275 315.98709970842685" /><path stroke-width="2" stroke="green" d="M 916.818181818182 348.9568979193908 916.818181818182 300.4622526360879" /><path stroke-width="2" stroke="green" d="M 964.5454545454546 510 964.5454545454546 300.4622526360879" /><path stroke-width="2" stroke="green" d="M 916.818181818182 300.4622526360879 964.5454545454546 300.4622526360879" /><path stroke-width="2" stroke="blue" d="M 296.3636363636364 410.7417726603571 296.3636363636364 299.80539785714876" /><path stroke-width="2" stroke="blue" d="M 365.9659090909091 335.2019753319629 365.9659090909091 299.80539785714876" /><path stroke-width="2" stroke="blue" d="M 296.3636363636364 299.80539785714876 365.9659090909091 299.80539785714876" /><path stroke-width="2" stroke="red" d="M 696.3636363636365 422.79959863903844 696.3636363636365 297.7962575436399" /><path stroke-width="2" stroke="red" d="M 714.5454545454546 397.3211558101525 714.5454545454546 297.7962575436399" /><path stroke-width="2" stroke="red" d="M 696.3636363636365 297.7962575436399 714.5454545454546 297.7962575436399" /><path stroke-width="2" stroke="red" d="M 739.5454545454545 393.1551937666313 739.5454545454545 291.42630408756156" /><path stroke-width="2" stroke="red" d="M 772.5 334.8590083505132 772.5 291.42630408756156" /><path stroke-width="2" stroke="red" d="M 739.5454545454545 291.42630408756156 772.5 291.42630408756156" /><path stroke-width="2" stroke="green" d="M 812.2727272727273 449.85797416205844 812.2727272727273 285.9549371760111" /><path stroke-width="2" stroke="green" d="M 855.4545454545455 333.86655285454526 855.4545454545455 285.9549371760111" /><path stroke-width="2" stroke="green" d="M 812.2727272727273 285.9549371760111 855.4545454545455 285.9549371760111" /><path stroke-width="2" stroke="green" d="M 833.8636363636364 285.9549371760111 833.8636363636364 281.1887217591203" /><path stroke-width="2" stroke="green" d="M 940.6818181818182 300.4622526360879 940.6818181818182 281.1887217591203" /><path stroke-width="2" stroke="green" d="M 833.8636363636364 281.1887217591203 940.6818181818182 281.1887217591203" /><path stroke-width="2" stroke="olive" d="M 978.1818181818182 413.4976789877595 978.1818181818182 279.34428601617117" /><path stroke-width="2" stroke="olive" d="M 991.8181818181819 510 991.8181818181819 279.34428601617117" /><path stroke-width="2" stroke="olive" d="M 978.1818181818182 279.34428601617117 991.8181818181819 279.34428601617117" /><path stroke-width="2" stroke="purple" d="M 478.18181818181824 383.71653492535137 478.18181818181824 273.52858811320516" /><path stroke-width="2" stroke="purple" d="M 508.8636363636364 387.728294446804 508.8636363636364 273.52858811320516" /><path stroke-width="2" stroke="purple" d="M 478.18181818181824 273.52858811320516 508.8636363636364 273.52858811320516" /><path stroke-width="2" stroke="blue" d="M 220.22727272727275 315.98709970842685 220.22727272727275 266.55153603142645" /><path stroke-width="2" stroke="blue" d="M 260.0 332.7791846369187 260.0 266.55153603142645" /><path stroke-width="2" stroke="blue" d="M 220.22727272727275 266.55153603142645 260.0 266.55153603142645" /><path stroke-width="2" stroke="red" d="M 641.9602272727274 323.72463658455774 641.9602272727274 255.5379988567269" /><path stroke-width="2" stroke="red" d="M 705.4545454545455 297.7962575436399 705.4545454545455 255.5379988567269" /><path stroke-width="2" stroke="red" d="M 641.9602272727274 255.5379988567269 705.4545454545455 255.5379988567269" /><path stroke-width="2" stroke="orange" d="M 131.02272727272728 352.82907151673584 131.02272727272728 236.48788558920154" /><path stroke-width="2" stroke="orange" d="M 185.0 407.1610510352296 185.0 236.48788558920154" /><path stroke-width="2" stroke="orange" d="M 131.02272727272728 236.48788558920154 185.0 236.48788558920154" /><path stroke-width="2" stroke="olive" d="M 985.0 279.34428601617117 985.0 233.77924449557008" /><path stroke-width="2" stroke="olive" d="M 1000.909090909091 510 1000.909090909091 233.77924449557008" /><path stroke-width="2" stroke="olive" d="M 985.0 233.77924449557008 1000.909090909091 233.77924449557008" /><path stroke-width="2" stroke="purple" d="M 444.0909090909091 318.1114043245128 444.0909090909091 229.21414325226505" /><path stroke-width="2" stroke="purple" d="M 493.5227272727273 273.52858811320516 493.5227272727273 229.21414325226505" /><path stroke-width="2" stroke="purple" d="M 444.0909090909091 229.21414325226505 493.5227272727273 229.21414325226505" /><path stroke-width="2" stroke="yellow" d="M 23.636363636363637 385.5758432737979 23.636363636363637 222.84320439045797" /><path stroke-width="2" stroke="yellow" d="M 73.06818181818183 362.2333460921544 73.06818181818183 222.84320439045797" /><path stroke-width="2" stroke="yellow" d="M 23.636363636363637 222.84320439045797 73.06818181818183 222.84320439045797" /><path stroke-width="2" stroke="blue" d="M 240.11363636363637 266.55153603142645 240.11363636363637 218.98458807961794" /><path stroke-width="2" stroke="blue" d="M 331.16477272727275 299.80539785714876 331.16477272727275 218.98458807961794" /><path stroke-width="2" stroke="blue" d="M 240.11363636363637 218.98458807961794 331.16477272727275 218.98458807961794" /><path stroke-width="2" stroke="red" d="M 673.7073863636365 255.5379988567269 673.7073863636365 196.95150647243895" /><path stroke-width="2" stroke="red" d="M 756.0227272727273 291.42630408756156 756.0227272727273 196.95150647243895" /><path stroke-width="2" stroke="red" d="M 673.7073863636365 196.95150647243895 756.0227272727273 196.95150647243895" /><path stroke-width="2" stroke="black" d="M 887.2727272727273 281.1887217591203 887.2727272727273 168.54904920967397" /><path stroke-width="2" stroke="black" d="M 992.9545454545455 233.77924449557008 992.9545454545455 168.54904920967397" /><path stroke-width="2" stroke="black" d="M 887.2727272727273 168.54904920967397 992.9545454545455 168.54904920967397" /><path stroke-width="2" stroke="black" d="M 468.80681818181824 229.21414325226505 468.80681818181824 167.06421185263645" /><path stroke-width="2" stroke="black" d="M 553.1818181818182 318.1333595307482 553.1818181818182 167.06421185263645" /><path stroke-width="2" stroke="black" d="M 468.80681818181824 167.06421185263645 553.1818181818182 167.06421185263645" /><path stroke-width="2" stroke="black" d="M 285.63920454545456 218.98458807961794 285.63920454545456 153.94794857417435" /><path stroke-width="2" stroke="black" d="M 510.99431818181824 167.06421185263645 510.99431818181824 153.94794857417435" /><path stroke-width="2" stroke="black" d="M 285.63920454545456 153.94794857417435 510.99431818181824 153.94794857417435" /><path stroke-width="2" stroke="black" d="M 48.352272727272734 222.84320439045797 48.352272727272734 134.21872854568397" /><path stroke-width="2" stroke="black" d="M 158.01136363636363 236.48788558920154 158.01136363636363 134.21872854568397" /><path stroke-width="2" stroke="black" d="M 48.352272727272734 134.21872854568397 158.01136363636363 134.21872854568397" /><path stroke-width="2" stroke="black" d="M 398.3167613636364 153.94794857417435 398.3167613636364 83.01786532115551" /><path stroke-width="2" stroke="black" d="M 714.8650568181819 196.95150647243895 714.8650568181819 83.01786532115551" /><path stroke-width="2" stroke="black" d="M 398.3167613636364 83.01786532115551 714.8650568181819 83.01786532115551" /><path stroke-width="2" stroke="black" d="M 103.18181818181819 134.21872854568397 103.18181818181819 32.75474763859876" /><path stroke-width="2" stroke="black" d="M 556.5909090909091 83.01786532115551 556.5909090909091 32.75474763859876" /><path stroke-width="2" stroke="black" d="M 103.18181818181819 32.75474763859876 556.5909090909091 32.75474763859876" /><path stroke-width="2" stroke="black" d="M 329.8863636363636 32.75474763859876 329.8863636363636 9.999999999999943" /><path stroke-width="2" stroke="black" d="M 940.1136363636364 168.54904920967397 940.1136363636364 9.999999999999943" /><path stroke-width="2" stroke="black" d="M 329.8863636363636 9.999999999999943 940.1136363636364 9.999999999999943" /></svg>