<svg width="1020" height="597.0"  xmlns="http://www.w3.org/2000/svg"><text x="445.8602150537634" y="515"  transform="rotate(60, 445.8602150537634, 515)" font-size="12">daily</text><text x="488.87096774193543" y="515"  transform="rotate(60, 488.87096774193543, 515)" font-size="12">case</text><text x="392.09677419354836" y="515"  transform="rotate(60, 392.09677419354836, 515)" font-size="12">infection</text><text x="521.1290322580645" y="515"  transform="rotate(60, 521.1290322580645, 515)" font-size="12">high</text><text x="940.4838709677418" y="515"  transform="rotate(60, 940.4838709677418, 515)" font-size="12">since</text><text x="531.8817204301075" y="515"  transform="rotate(60, 531.8817204301075, 515)" font-size="12">number</text><text x="564.1397849462365" y="515"  transform="rotate(60, 564.1397849462365, 515)" font-size="12">new</text><text x="456.6129032258064" y="515"  transform="rotate(60, 456.6129032258064, 515)" font-size="12">hit</text><text x="435.1075268817204" y="515"  transform="rotate(60, 435.1075268817204, 515)" font-size="12">record</text><text x="187.79569892473117" y="515"  transform="rotate(60, 187.79569892473117, 515)" font-size="12">week</text><text x="499.62365591397844" y="515"  transform="rotate(60, 499.62365591397844, 515)" font-size="12">report</text><text x="983.4946236559139" y="515"  transform="rotate(60, 983.4946236559139, 515)" font-size="12">test</text><text x="349.0860215053763" y="515"  transform="rotate(60, 349.0860215053763, 515)" font-size="12">health</text><text x="897.4731182795698" y="515"  transform="rotate(60, 897.4731182795698, 515)" font-size="12">first</text><text x="918.9784946236558" y="515"  transform="rotate(60, 918.9784946236558, 515)" font-size="12">time</text><text x="295.3225806451613" y="515"  transform="rotate(60, 295.3225806451613, 515)" font-size="12">death</text><text x="617.9032258064516" y="515"  transform="rotate(60, 617.9032258064516, 515)" font-size="12">say</text><text x="101.77419354838709" y="515"  transform="rotate(60, 101.77419354838709, 515)" font-size="12">month</text><text x="370.59139784946234" y="515"  transform="rotate(60, 370.59139784946234, 515)" font-size="12">country</text><text x="467.3655913978494" y="515"  transform="rotate(60, 467.3655913978494, 515)" font-size="12">rise</text><text x="166.29032258064515" y="515"  transform="rotate(60, 166.29032258064515, 515)" font-size="12">get</text><text x="951.2365591397848" y="515"  transform="rotate(60, 951.2365591397848, 515)" font-size="12">top</text><text x="134.03225806451613" y="515"  transform="rotate(60, 134.03225806451613, 515)" font-size="12">see</text><text x="402.84946236559136" y="515"  transform="rotate(60, 402.84946236559136, 515)" font-size="12">expert</text><text x="273.81720430107526" y="515"  transform="rotate(60, 273.81720430107526, 515)" font-size="12">million</text><text x="639.4086021505376" y="515"  transform="rotate(60, 639.4086021505376, 515)" font-size="12">pandemic</text><text x="682.4193548387096" y="515"  transform="rotate(60, 682.4193548387096, 515)" font-size="12">take</text><text x="478.1182795698924" y="515"  transform="rotate(60, 478.1182795698924, 515)" font-size="12">confirm</text><text x="80.26881720430107" y="515"  transform="rotate(60, 80.26881720430107, 515)" font-size="12">one</text><text x="198.54838709677418" y="515"  transform="rotate(60, 198.54838709677418, 515)" font-size="12">accord</text><text x="929.7311827956988" y="515"  transform="rotate(60, 929.7311827956988, 515)" font-size="12">announce</text><text x="69.51612903225806" y="515"  transform="rotate(60, 69.51612903225806, 515)" font-size="12">data</text><text x="284.5698924731183" y="515"  transform="rotate(60, 284.5698924731183, 515)" font-size="12">global</text><text x="112.5268817204301" y="515"  transform="rotate(60, 112.5268817204301, 515)" font-size="12">follow</text><text x="241.5591397849462" y="515"  transform="rotate(60, 241.5591397849462, 515)" font-size="12">people</text><text x="994.2473118279569" y="515"  transform="rotate(60, 994.2473118279569, 515)" font-size="12">positive</text><text x="123.27956989247309" y="515"  transform="rotate(60, 123.27956989247309, 515)" font-size="12">second</text><text x="413.6021505376344" y="515"  transform="rotate(60, 413.6021505376344, 515)" font-size="12">surge</text><text x="972.7419354838709" y="515"  transform="rotate(60, 972.7419354838709, 515)" font-size="12">official</text><text x="338.3333333333333" y="515"  transform="rotate(60, 338.3333333333333, 515)" font-size="12">government</text><text x="26.50537634408602" y="515"  transform="rotate(60, 26.50537634408602, 515)" font-size="12">show</text><text x="209.3010752688172" y="515"  transform="rotate(60, 209.3010752688172, 515)" font-size="12">center</text><text x="220.0537634408602" y="515"  transform="rotate(60, 220.0537634408602, 515)" font-size="12">disease</text><text x="306.0752688172043" y="515"  transform="rotate(60, 306.0752688172043, 515)" font-size="12">world</text><text x="650.1612903225806" y="515"  transform="rotate(60, 650.1612903225806, 515)" font-size="12">could</text><text x="714.6774193548387" y="515"  transform="rotate(60, 714.6774193548387, 515)" font-size="12">public</text><text x="381.34408602150535" y="515"  transform="rotate(60, 381.34408602150535, 515)" font-size="12">outbreak</text><text x="607.1505376344086" y="515"  transform="rotate(60, 607.1505376344086, 515)" font-size="12">spread</text><text x="693.1720430107526" y="515"  transform="rotate(60, 693.1720430107526, 515)" font-size="12">hour</text><text x="542.6344086021505" y="515"  transform="rotate(60, 542.6344086021505, 515)" font-size="12">city</text><text x="585.6451612903226" y="515"  transform="rotate(60, 585.6451612903226, 515)" font-size="12">china</text><text x="144.78494623655914" y="515"  transform="rotate(60, 144.78494623655914, 515)" font-size="12">back</text><text x="574.8924731182796" y="515"  transform="rotate(60, 574.8924731182796, 515)" font-size="12">day</text><text x="424.3548387096774" y="515"  transform="rotate(60, 424.3548387096774, 515)" font-size="12">state</text><text x="875.9677419354838" y="515"  transform="rotate(60, 875.9677419354838, 515)" font-size="12">president</text><text x="865.2150537634408" y="515"  transform="rotate(60, 865.2150537634408, 515)" font-size="12">trump</text><text x="553.3870967741935" y="515"  transform="rotate(60, 553.3870967741935, 515)" font-size="12">york</text><text x="177.04301075268816" y="515"  transform="rotate(60, 177.04301075268816, 515)" font-size="12">last</text><text x="91.02150537634408" y="515"  transform="rotate(60, 91.02150537634408, 515)" font-size="12">two</text><text x="596.3978494623656" y="515"  transform="rotate(60, 596.3978494623656, 515)" font-size="12">virus</text><text x="316.8279569892473" y="515"  transform="rotate(60, 316.8279569892473, 515)" font-size="12">minister</text><text x="327.5806451612903" y="515"  transform="rotate(60, 327.5806451612903, 515)" font-size="12">restriction</text><text x="263.06451612903226" y="515"  transform="rotate(60, 263.06451612903226, 515)" font-size="12">may</text><text x="746.9354838709677" y="515"  transform="rotate(60, 746.9354838709677, 515)" font-size="12">hospital</text><text x="252.3118279569892" y="515"  transform="rotate(60, 252.3118279569892, 515)" font-size="12">die</text><text x="725.4301075268817" y="515"  transform="rotate(60, 725.4301075268817, 515)" font-size="12">doctor</text><text x="908.2258064516128" y="515"  transform="rotate(60, 908.2258064516128, 515)" font-size="12">year</text><text x="15.752688172043008" y="515"  transform="rotate(60, 15.752688172043008, 515)" font-size="12">study</text><text x="961.9892473118279" y="515"  transform="rotate(60, 961.9892473118279, 515)" font-size="12">quarantine</text><text x="757.6881720430107" y="515"  transform="rotate(60, 757.6881720430107, 515)" font-size="12">white</text><text x="768.4408602150537" y="515"  transform="rotate(60, 768.4408602150537, 515)" font-size="12">house</text><text x="155.53763440860214" y="515"  transform="rotate(60, 155.53763440860214, 515)" font-size="12">make</text><text x="230.8064516129032" y="515"  transform="rotate(60, 230.8064516129032, 515)" font-size="12">medical</text><text x="736.1827956989247" y="515"  transform="rotate(60, 736.1827956989247, 515)" font-size="12">return</text><text x="510.3763440860214" y="515"  transform="rotate(60, 510.3763440860214, 515)" font-size="12">risk</text><text x="5.0" y="515"  transform="rotate(60, 5.0, 515)" font-size="12">work</text><text x="822.2043010752687" y="515"  transform="rotate(60, 822.2043010752687, 515)" font-size="12">democratic</text><text x="789.9462365591397" y="515"  transform="rotate(60, 789.9462365591397, 515)" font-size="12">presidential</text><text x="832.9569892473118" y="515"  transform="rotate(60, 832.9569892473118, 515)" font-size="12">joe</text><text x="854.4623655913978" y="515"  transform="rotate(60, 854.4623655913978, 515)" font-size="12">negative</text><text x="886.7204301075268" y="515"  transform="rotate(60, 886.7204301075268, 515)" font-size="12">lady</text><text x="37.25806451612903" y="515"  transform="rotate(60, 37.25806451612903, 515)" font-size="12">clinical</text><text x="48.01075268817204" y="515"  transform="rotate(60, 48.01075268817204, 515)" font-size="12">trial</text><text x="843.7096774193548" y="515"  transform="rotate(60, 843.7096774193548, 515)" font-size="12">campaign</text><text x="58.76344086021505" y="515"  transform="rotate(60, 58.76344086021505, 515)" font-size="12">johnson</text><text x="671.6666666666666" y="515"  transform="rotate(60, 671.6666666666666, 515)" font-size="12">relief</text><text x="800.6989247311827" y="515"  transform="rotate(60, 800.6989247311827, 515)" font-size="12">vice</text><text x="811.4516129032257" y="515"  transform="rotate(60, 811.4516129032257, 515)" font-size="12">nominee</text><text x="779.1935483870967" y="515"  transform="rotate(60, 779.1935483870967, 515)" font-size="12">debate</text><text x="703.9247311827957" y="515"  transform="rotate(60, 703.9247311827957, 515)" font-size="12">mask</text><text x="660.9139784946236" y="515"  transform="rotate(60, 660.9139784946236, 515)" font-size="12">election</text><text x="359.83870967741933" y="515"  transform="rotate(60, 359.83870967741933, 515)" font-size="12">help</text><text x="628.6559139784946" y="515"  transform="rotate(60, 628.6559139784946, 515)" font-size="12">plan</text><path stroke-width="2" stroke="red" d="M 214.3010752688172 510 214.3010752688172 502.67024858479533" /><path stroke-width="2" stroke="red" d="M 225.0537634408602 510 225.0537634408602 502.67024858479533" /><path stroke-width="2" stroke="red" d="M 214.3010752688172 502.67024858479533 225.0537634408602 502.67024858479533" /><path stroke-width="2" stroke="green" d="M 42.25806451612903 510 42.25806451612903 501.97964690629567" /><path stroke-width="2" stroke="green" d="M 53.01075268817204 510 53.01075268817204 501.97964690629567" /><path stroke-width="2" stroke="green" d="M 42.25806451612903 501.97964690629567 53.01075268817204 501.97964690629567" /><path stroke-width="2" stroke="blue" d="M 816.4516129032257 510 816.4516129032257 498.3343878903324" /><path stroke-width="2" stroke="blue" d="M 827.2043010752687 510 827.2043010752687 498.3343878903324" /><path stroke-width="2" stroke="blue" d="M 816.4516129032257 498.3343878903324 827.2043010752687 498.3343878903324" /><path stroke-width="2" stroke="green" d="M 47.634408602150536 501.97964690629567 47.634408602150536 497.6680901445474" /><path stroke-width="2" stroke="green" d="M 63.76344086021505 510 63.76344086021505 497.6680901445474" /><path stroke-width="2" stroke="green" d="M 47.634408602150536 497.6680901445474 63.76344086021505 497.6680901445474" /><path stroke-width="2" stroke="red" d="M 547.6344086021505 510 547.6344086021505 496.7831140686176" /><path stroke-width="2" stroke="red" d="M 558.3870967741935 510 558.3870967741935 496.7831140686176" /><path stroke-width="2" stroke="red" d="M 547.6344086021505 496.7831140686176 558.3870967741935 496.7831140686176" /><path stroke-width="2" stroke="blue" d="M 665.9139784946236 510 665.9139784946236 496.4791007560173" /><path stroke-width="2" stroke="blue" d="M 676.6666666666666 510 676.6666666666666 496.4791007560173" /><path stroke-width="2" stroke="blue" d="M 665.9139784946236 496.4791007560173 676.6666666666666 496.4791007560173" /><path stroke-width="2" stroke="blue" d="M 794.9462365591397 510 794.9462365591397 496.0496816405969" /><path stroke-width="2" stroke="blue" d="M 805.6989247311827 510 805.6989247311827 496.0496816405969" /><path stroke-width="2" stroke="blue" d="M 794.9462365591397 496.0496816405969 805.6989247311827 496.0496816405969" /><path stroke-width="2" stroke="blue" d="M 784.1935483870967 510 784.1935483870967 495.1280598591336" /><path stroke-width="2" stroke="blue" d="M 800.3225806451612 496.0496816405969 800.3225806451612 495.1280598591336" /><path stroke-width="2" stroke="blue" d="M 784.1935483870967 495.1280598591336 800.3225806451612 495.1280598591336" /><path stroke-width="2" stroke="green" d="M 20.75268817204301 510 20.75268817204301 494.45756164937484" /><path stroke-width="2" stroke="green" d="M 31.50537634408602 510 31.50537634408602 494.45756164937484" /><path stroke-width="2" stroke="green" d="M 20.75268817204301 494.45756164937484 31.50537634408602 494.45756164937484" /><path stroke-width="2" stroke="red" d="M 219.6774193548387 502.67024858479533 219.6774193548387 493.9478128388084" /><path stroke-width="2" stroke="red" d="M 235.8064516129032 510 235.8064516129032 493.9478128388084" /><path stroke-width="2" stroke="red" d="M 219.6774193548387 493.9478128388084 235.8064516129032 493.9478128388084" /><path stroke-width="2" stroke="blue" d="M 821.8279569892472 498.3343878903324 821.8279569892472 491.1023159804196" /><path stroke-width="2" stroke="blue" d="M 837.9569892473118 510 837.9569892473118 491.1023159804196" /><path stroke-width="2" stroke="blue" d="M 821.8279569892472 491.1023159804196 837.9569892473118 491.1023159804196" /><path stroke-width="2" stroke="red" d="M 246.5591397849462 510 246.5591397849462 487.33072299908036" /><path stroke-width="2" stroke="red" d="M 257.3118279569892 510 257.3118279569892 487.33072299908036" /><path stroke-width="2" stroke="red" d="M 246.5591397849462 487.33072299908036 257.3118279569892 487.33072299908036" /><path stroke-width="2" stroke="green" d="M 10.0 510 10.0 486.616378942339" /><path stroke-width="2" stroke="green" d="M 26.129032258064512 494.45756164937484 26.129032258064512 486.616378942339" /><path stroke-width="2" stroke="green" d="M 10.0 486.616378942339 26.129032258064512 486.616378942339" /><path stroke-width="2" stroke="red" d="M 321.8279569892473 510 321.8279569892473 485.85924591971263" /><path stroke-width="2" stroke="red" d="M 332.5806451612903 510 332.5806451612903 485.85924591971263" /><path stroke-width="2" stroke="red" d="M 321.8279569892473 485.85924591971263 332.5806451612903 485.85924591971263" /><path stroke-width="2" stroke="red" d="M 327.2043010752688 485.85924591971263 327.2043010752688 483.13412514410345" /><path stroke-width="2" stroke="red" d="M 343.3333333333333 510 343.3333333333333 483.13412514410345" /><path stroke-width="2" stroke="red" d="M 327.2043010752688 483.13412514410345 343.3333333333333 483.13412514410345" /><path stroke-width="2" stroke="green" d="M 55.69892473118279 497.6680901445474 55.69892473118279 482.79831439814063" /><path stroke-width="2" stroke="green" d="M 74.51612903225806 510 74.51612903225806 482.79831439814063" /><path stroke-width="2" stroke="green" d="M 55.69892473118279 482.79831439814063 74.51612903225806 482.79831439814063" /><path stroke-width="2" stroke="red" d="M 515.3763440860214 510 515.3763440860214 482.3543534482394" /><path stroke-width="2" stroke="red" d="M 526.1290322580645 510 526.1290322580645 482.3543534482394" /><path stroke-width="2" stroke="red" d="M 515.3763440860214 482.3543534482394 526.1290322580645 482.3543534482394" /><path stroke-width="2" stroke="blue" d="M 792.258064516129 495.1280598591336 792.258064516129 482.34951397729094" /><path stroke-width="2" stroke="blue" d="M 829.8924731182794 491.1023159804196 829.8924731182794 482.34951397729094" /><path stroke-width="2" stroke="blue" d="M 792.258064516129 482.34951397729094 829.8924731182794 482.34951397729094" /><path stroke-width="2" stroke="blue" d="M 730.4301075268817 510 730.4301075268817 482.30176074692605" /><path stroke-width="2" stroke="blue" d="M 741.1827956989247 510 741.1827956989247 482.30176074692605" /><path stroke-width="2" stroke="blue" d="M 730.4301075268817 482.30176074692605 741.1827956989247 482.30176074692605" /><path stroke-width="2" stroke="red" d="M 440.1075268817204 510 440.1075268817204 481.39052571804035" /><path stroke-width="2" stroke="red" d="M 450.8602150537634 510 450.8602150537634 481.39052571804035" /><path stroke-width="2" stroke="red" d="M 440.1075268817204 481.39052571804035 450.8602150537634 481.39052571804035" /><path stroke-width="2" stroke="blue" d="M 708.9247311827957 510 708.9247311827957 479.475031273826" /><path stroke-width="2" stroke="blue" d="M 719.6774193548387 510 719.6774193548387 479.475031273826" /><path stroke-width="2" stroke="blue" d="M 708.9247311827957 479.475031273826 719.6774193548387 479.475031273826" /><path stroke-width="2" stroke="blue" d="M 956.2365591397848 510 956.2365591397848 479.33042511183373" /><path stroke-width="2" stroke="blue" d="M 966.9892473118279 510 966.9892473118279 479.33042511183373" /><path stroke-width="2" stroke="blue" d="M 956.2365591397848 479.33042511183373 966.9892473118279 479.33042511183373" /><path stroke-width="2" stroke="orange" d="M 182.04301075268816 510 182.04301075268816 478.96968028099263" /><path stroke-width="2" stroke="orange" d="M 192.79569892473117 510 192.79569892473117 478.96968028099263" /><path stroke-width="2" stroke="orange" d="M 182.04301075268816 478.96968028099263 192.79569892473117 478.96968028099263" /><path stroke-width="2" stroke="red" d="M 472.3655913978494 510 472.3655913978494 476.5973825249274" /><path stroke-width="2" stroke="red" d="M 483.1182795698924 510 483.1182795698924 476.5973825249274" /><path stroke-width="2" stroke="red" d="M 472.3655913978494 476.5973825249274 483.1182795698924 476.5973825249274" /><path stroke-width="2" stroke="blue" d="M 762.6881720430107 510 762.6881720430107 476.36082986775324" /><path stroke-width="2" stroke="blue" d="M 773.4408602150537 510 773.4408602150537 476.36082986775324" /><path stroke-width="2" stroke="blue" d="M 762.6881720430107 476.36082986775324 773.4408602150537 476.36082986775324" /><path stroke-width="2" stroke="blue" d="M 891.7204301075268 510 891.7204301075268 474.91739511421713" /><path stroke-width="2" stroke="blue" d="M 902.4731182795698 510 902.4731182795698 474.91739511421713" /><path stroke-width="2" stroke="blue" d="M 891.7204301075268 474.91739511421713 902.4731182795698 474.91739511421713" /><path stroke-width="2" stroke="red" d="M 407.84946236559136 510 407.84946236559136 474.28999504847974" /><path stroke-width="2" stroke="red" d="M 418.6021505376344 510 418.6021505376344 474.28999504847974" /><path stroke-width="2" stroke="red" d="M 407.84946236559136 474.28999504847974 418.6021505376344 474.28999504847974" /><path stroke-width="2" stroke="blue" d="M 848.7096774193548 510 848.7096774193548 474.1389819216227" /><path stroke-width="2" stroke="blue" d="M 859.4623655913978 510 859.4623655913978 474.1389819216227" /><path stroke-width="2" stroke="blue" d="M 848.7096774193548 474.1389819216227 859.4623655913978 474.1389819216227" /><path stroke-width="2" stroke="red" d="M 375.59139784946234 510 375.59139784946234 473.7406097818244" /><path stroke-width="2" stroke="red" d="M 386.34408602150535 510 386.34408602150535 473.7406097818244" /><path stroke-width="2" stroke="red" d="M 375.59139784946234 473.7406097818244 386.34408602150535 473.7406097818244" /><path stroke-width="2" stroke="blue" d="M 601.3978494623656 510 601.3978494623656 473.14875844331266" /><path stroke-width="2" stroke="blue" d="M 612.1505376344086 510 612.1505376344086 473.14875844331266" /><path stroke-width="2" stroke="blue" d="M 601.3978494623656 473.14875844331266 612.1505376344086 473.14875844331266" /><path stroke-width="2" stroke="red" d="M 278.81720430107526 510 278.81720430107526 472.7333383329884" /><path stroke-width="2" stroke="red" d="M 289.5698924731183 510 289.5698924731183 472.7333383329884" /><path stroke-width="2" stroke="red" d="M 278.81720430107526 472.7333383329884 289.5698924731183 472.7333383329884" /><path stroke-width="2" stroke="blue" d="M 735.8064516129032 482.30176074692605 735.8064516129032 472.239907714262" /><path stroke-width="2" stroke="blue" d="M 751.9354838709677 510 751.9354838709677 472.239907714262" /><path stroke-width="2" stroke="blue" d="M 735.8064516129032 472.239907714262 751.9354838709677 472.239907714262" /><path stroke-width="2" stroke="blue" d="M 961.6129032258063 479.33042511183373 961.6129032258063 470.375824937462" /><path stroke-width="2" stroke="blue" d="M 977.7419354838709 510 977.7419354838709 470.375824937462" /><path stroke-width="2" stroke="blue" d="M 961.6129032258063 470.375824937462 977.7419354838709 470.375824937462" /><path stroke-width="2" stroke="blue" d="M 913.2258064516128 510 913.2258064516128 468.8410513863139" /><path stroke-width="2" stroke="blue" d="M 923.9784946236558 510 923.9784946236558 468.8410513863139" /><path stroke-width="2" stroke="blue" d="M 913.2258064516128 468.8410513863139 923.9784946236558 468.8410513863139" /><path stroke-width="2" stroke="red" d="M 364.83870967741933 510 364.83870967741933 463.026458968162" /><path stroke-width="2" stroke="red" d="M 380.96774193548384 473.7406097818244 380.96774193548384 463.026458968162" /><path stroke-width="2" stroke="red" d="M 364.83870967741933 463.026458968162 380.96774193548384 463.026458968162" /><path stroke-width="2" stroke="green" d="M 117.5268817204301 510 117.5268817204301 461.44709342866685" /><path stroke-width="2" stroke="green" d="M 128.2795698924731 510 128.2795698924731 461.44709342866685" /><path stroke-width="2" stroke="green" d="M 117.5268817204301 461.44709342866685 128.2795698924731 461.44709342866685" /><path stroke-width="2" stroke="red" d="M 553.010752688172 496.7831140686176 553.010752688172 461.3834490154976" /><path stroke-width="2" stroke="red" d="M 569.1397849462365 510 569.1397849462365 461.3834490154976" /><path stroke-width="2" stroke="red" d="M 553.010752688172 461.3834490154976 569.1397849462365 461.3834490154976" /><path stroke-width="2" stroke="green" d="M 18.064516129032256 486.616378942339 18.064516129032256 461.3494279454119" /><path stroke-width="2" stroke="green" d="M 65.10752688172043 482.79831439814063 65.10752688172043 461.3494279454119" /><path stroke-width="2" stroke="green" d="M 18.064516129032256 461.3494279454119 65.10752688172043 461.3494279454119" /><path stroke-width="2" stroke="blue" d="M 811.0752688172042 482.34951397729094 811.0752688172042 459.1301274481262" /><path stroke-width="2" stroke="blue" d="M 854.0860215053763 474.1389819216227 854.0860215053763 459.1301274481262" /><path stroke-width="2" stroke="blue" d="M 811.0752688172042 459.1301274481262 854.0860215053763 459.1301274481262" /><path stroke-width="2" stroke="green" d="M 96.02150537634408 510 96.02150537634408 458.94763328299365" /><path stroke-width="2" stroke="green" d="M 106.77419354838709 510 106.77419354838709 458.94763328299365" /><path stroke-width="2" stroke="green" d="M 96.02150537634408 458.94763328299365 106.77419354838709 458.94763328299365" /><path stroke-width="2" stroke="red" d="M 284.19354838709677 472.7333383329884 284.19354838709677 458.7434569671141" /><path stroke-width="2" stroke="red" d="M 300.3225806451613 510 300.3225806451613 458.7434569671141" /><path stroke-width="2" stroke="red" d="M 284.19354838709677 458.7434569671141 300.3225806451613 458.7434569671141" /><path stroke-width="2" stroke="red" d="M 445.4838709677419 481.39052571804035 445.4838709677419 454.64579558513526" /><path stroke-width="2" stroke="red" d="M 461.6129032258064 510 461.6129032258064 454.64579558513526" /><path stroke-width="2" stroke="red" d="M 445.4838709677419 454.64579558513526 461.6129032258064 454.64579558513526" /><path stroke-width="2" stroke="red" d="M 477.7419354838709 476.5973825249274 477.7419354838709 452.74909715089063" /><path stroke-width="2" stroke="red" d="M 493.87096774193543 510 493.87096774193543 452.74909715089063" /><path stroke-width="2" stroke="red" d="M 477.7419354838709 452.74909715089063 493.87096774193543 452.74909715089063" /><path stroke-width="2" stroke="blue" d="M 988.4946236559139 510 988.4946236559139 451.59907156176655" /><path stroke-width="2" stroke="blue" d="M 999.2473118279569 510 999.2473118279569 451.59907156176655" /><path stroke-width="2" stroke="blue" d="M 988.4946236559139 451.59907156176655 999.2473118279569 451.59907156176655" /><path stroke-width="2" stroke="blue" d="M 655.1612903225806 510 655.1612903225806 450.8753705995942" /><path stroke-width="2" stroke="blue" d="M 671.2903225806451 496.4791007560173 671.2903225806451 450.8753705995942" /><path stroke-width="2" stroke="blue" d="M 655.1612903225806 450.8753705995942 671.2903225806451 450.8753705995942" /><path stroke-width="2" stroke="green" d="M 149.78494623655914 510 149.78494623655914 447.9488627598259" /><path stroke-width="2" stroke="green" d="M 160.53763440860214 510 160.53763440860214 447.9488627598259" /><path stroke-width="2" stroke="green" d="M 149.78494623655914 447.9488627598259 160.53763440860214 447.9488627598259" /><path stroke-width="2" stroke="green" d="M 122.90322580645159 461.44709342866685 122.90322580645159 446.75078340006047" /><path stroke-width="2" stroke="green" d="M 139.03225806451613 510 139.03225806451613 446.75078340006047" /><path stroke-width="2" stroke="green" d="M 122.90322580645159 446.75078340006047 139.03225806451613 446.75078340006047" /><path stroke-width="2" stroke="red" d="M 520.752688172043 482.3543534482394 520.752688172043 445.0249063116844" /><path stroke-width="2" stroke="red" d="M 536.8817204301075 510 536.8817204301075 445.0249063116844" /><path stroke-width="2" stroke="red" d="M 520.752688172043 445.0249063116844 536.8817204301075 445.0249063116844" /><path stroke-width="2" stroke="green" d="M 155.16129032258064 447.9488627598259 155.16129032258064 442.8816165342317" /><path stroke-width="2" stroke="green" d="M 171.29032258064515 510 171.29032258064515 442.8816165342317" /><path stroke-width="2" stroke="green" d="M 155.16129032258064 442.8816165342317 171.29032258064515 442.8816165342317" /><path stroke-width="2" stroke="red" d="M 372.9032258064516 463.026458968162 372.9032258064516 440.8913003651934" /><path stroke-width="2" stroke="red" d="M 397.09677419354836 510 397.09677419354836 440.8913003651934" /><path stroke-width="2" stroke="red" d="M 372.9032258064516 440.8913003651934 397.09677419354836 440.8913003651934" /><path stroke-width="2" stroke="red" d="M 579.8924731182796 510 579.8924731182796 438.12719699743684" /><path stroke-width="2" stroke="red" d="M 590.6451612903226 510 590.6451612903226 438.12719699743684" /><path stroke-width="2" stroke="red" d="M 579.8924731182796 438.12719699743684 590.6451612903226 438.12719699743684" /><path stroke-width="2" stroke="red" d="M 413.22580645161287 474.28999504847974 413.22580645161287 437.0376372914086" /><path stroke-width="2" stroke="red" d="M 429.3548387096774 510 429.3548387096774 437.0376372914086" /><path stroke-width="2" stroke="red" d="M 413.22580645161287 437.0376372914086 429.3548387096774 437.0376372914086" /><path stroke-width="2" stroke="red" d="M 292.258064516129 458.7434569671141 292.258064516129 435.157427649055" /><path stroke-width="2" stroke="red" d="M 311.0752688172043 510 311.0752688172043 435.157427649055" /><path stroke-width="2" stroke="red" d="M 292.258064516129 435.157427649055 311.0752688172043 435.157427649055" /><path stroke-width="2" stroke="blue" d="M 687.4193548387096 510 687.4193548387096 432.50276390951734" /><path stroke-width="2" stroke="blue" d="M 698.1720430107526 510 698.1720430107526 432.50276390951734" /><path stroke-width="2" stroke="blue" d="M 687.4193548387096 432.50276390951734 698.1720430107526 432.50276390951734" /><path stroke-width="2" stroke="blue" d="M 714.3010752688172 479.475031273826 714.3010752688172 431.5470190528176" /><path stroke-width="2" stroke="blue" d="M 743.8709677419354 472.239907714262 743.8709677419354 431.5470190528176" /><path stroke-width="2" stroke="blue" d="M 714.3010752688172 431.5470190528176 743.8709677419354 431.5470190528176" /><path stroke-width="2" stroke="red" d="M 335.26881720430106 483.13412514410345 335.26881720430106 428.9004866558539" /><path stroke-width="2" stroke="red" d="M 354.0860215053763 510 354.0860215053763 428.9004866558539" /><path stroke-width="2" stroke="red" d="M 335.26881720430106 428.9004866558539 354.0860215053763 428.9004866558539" /><path stroke-width="2" stroke="red" d="M 453.54838709677415 454.64579558513526 453.54838709677415 426.7610758212059" /><path stroke-width="2" stroke="red" d="M 485.8064516129032 452.74909715089063 485.8064516129032 426.7610758212059" /><path stroke-width="2" stroke="red" d="M 453.54838709677415 426.7610758212059 485.8064516129032 426.7610758212059" /><path stroke-width="2" stroke="blue" d="M 934.7311827956988 510 934.7311827956988 422.08230973638155" /><path stroke-width="2" stroke="blue" d="M 945.4838709677418 510 945.4838709677418 422.08230973638155" /><path stroke-width="2" stroke="blue" d="M 934.7311827956988 422.08230973638155 945.4838709677418 422.08230973638155" /><path stroke-width="2" stroke="red" d="M 251.9354838709677 487.33072299908036 251.9354838709677 420.0139276159762" /><path stroke-width="2" stroke="red" d="M 268.06451612903226 510 268.06451612903226 420.0139276159762" /><path stroke-width="2" stroke="red" d="M 251.9354838709677 420.0139276159762 268.06451612903226 420.0139276159762" /><path stroke-width="2" stroke="blue" d="M 633.6559139784946 510 633.6559139784946 415.76476665671004" /><path stroke-width="2" stroke="blue" d="M 644.4086021505376 510 644.4086021505376 415.76476665671004" /><path stroke-width="2" stroke="blue" d="M 633.6559139784946 415.76476665671004 644.4086021505376 415.76476665671004" /><path stroke-width="2" stroke="blue" d="M 870.2150537634408 510 870.2150537634408 414.7678625794017" /><path stroke-width="2" stroke="blue" d="M 880.9677419354838 510 880.9677419354838 414.7678625794017" /><path stroke-width="2" stroke="blue" d="M 870.2150537634408 414.7678625794017 880.9677419354838 414.7678625794017" /><path stroke-width="2" stroke="green" d="M 130.96774193548384 446.75078340006047 130.96774193548384 414.1684965017297" /><path stroke-width="2" stroke="green" d="M 163.2258064516129 442.8816165342317 163.2258064516129 414.1684965017297" /><path stroke-width="2" stroke="green" d="M 130.96774193548384 414.1684965017297 163.2258064516129 414.1684965017297" /><path stroke-width="2" stroke="red" d="M 469.67741935483866 426.7610758212059 469.67741935483866 413.9292373375987" /><path stroke-width="2" stroke="red" d="M 504.62365591397844 510 504.62365591397844 413.9292373375987" /><path stroke-width="2" stroke="red" d="M 469.67741935483866 413.9292373375987 504.62365591397844 413.9292373375987" /><path stroke-width="2" stroke="blue" d="M 729.0860215053763 431.5470190528176 729.0860215053763 412.51782057205617" /><path stroke-width="2" stroke="blue" d="M 768.0645161290322 476.36082986775324 768.0645161290322 412.51782057205617" /><path stroke-width="2" stroke="blue" d="M 729.0860215053763 412.51782057205617 768.0645161290322 412.51782057205617" /><path stroke-width="2" stroke="blue" d="M 897.0967741935483 474.91739511421713 897.0967741935483 412.4526127568978" /><path stroke-width="2" stroke="blue" d="M 918.6021505376343 468.8410513863139 918.6021505376343 412.4526127568978" /><path stroke-width="2" stroke="blue" d="M 897.0967741935483 412.4526127568978 918.6021505376343 412.4526127568978" /><path stroke-width="2" stroke="blue" d="M 969.6774193548385 470.375824937462 969.6774193548385 409.16447999926027" /><path stroke-width="2" stroke="blue" d="M 993.8709677419354 451.59907156176655 993.8709677419354 409.16447999926027" /><path stroke-width="2" stroke="blue" d="M 969.6774193548385 409.16447999926027 993.8709677419354 409.16447999926027" /><path stroke-width="2" stroke="green" d="M 101.39784946236558 458.94763328299365 101.39784946236558 406.0765562272253" /><path stroke-width="2" stroke="green" d="M 147.09677419354836 414.1684965017297 147.09677419354836 406.0765562272253" /><path stroke-width="2" stroke="green" d="M 101.39784946236558 406.0765562272253 147.09677419354836 406.0765562272253" /><path stroke-width="2" stroke="red" d="M 260.0 420.0139276159762 260.0 396.08396147792536" /><path stroke-width="2" stroke="red" d="M 301.66666666666663 435.157427649055 301.66666666666663 396.08396147792536" /><path stroke-width="2" stroke="red" d="M 260.0 396.08396147792536 301.66666666666663 396.08396147792536" /><path stroke-width="2" stroke="blue" d="M 832.5806451612902 459.1301274481262 832.5806451612902 395.53254957777466" /><path stroke-width="2" stroke="blue" d="M 875.5913978494623 414.7678625794017 875.5913978494623 395.53254957777466" /><path stroke-width="2" stroke="blue" d="M 832.5806451612902 395.53254957777466 875.5913978494623 395.53254957777466" /><path stroke-width="2" stroke="red" d="M 203.54838709677418 510 203.54838709677418 394.96504384476196" /><path stroke-width="2" stroke="red" d="M 227.74193548387095 493.9478128388084 227.74193548387095 394.96504384476196" /><path stroke-width="2" stroke="red" d="M 203.54838709677418 394.96504384476196 227.74193548387095 394.96504384476196" /><path stroke-width="2" stroke="green" d="M 41.586021505376344 461.3494279454119 41.586021505376344 392.3973380053214" /><path stroke-width="2" stroke="green" d="M 85.26881720430107 510 85.26881720430107 392.3973380053214" /><path stroke-width="2" stroke="green" d="M 41.586021505376344 392.3973380053214 85.26881720430107 392.3973380053214" /><path stroke-width="2" stroke="red" d="M 487.1505376344086 413.9292373375987 487.1505376344086 386.2254540042962" /><path stroke-width="2" stroke="red" d="M 528.8172043010752 445.0249063116844 528.8172043010752 386.2254540042962" /><path stroke-width="2" stroke="red" d="M 487.1505376344086 386.2254540042962 528.8172043010752 386.2254540042962" /><path stroke-width="2" stroke="blue" d="M 639.0322580645161 415.76476665671004 639.0322580645161 384.4522580055747" /><path stroke-width="2" stroke="blue" d="M 663.2258064516129 450.8753705995942 663.2258064516129 384.4522580055747" /><path stroke-width="2" stroke="blue" d="M 639.0322580645161 384.4522580055747 663.2258064516129 384.4522580055747" /><path stroke-width="2" stroke="red" d="M 507.9838709677419 386.2254540042962 507.9838709677419 376.50021339194575" /><path stroke-width="2" stroke="red" d="M 561.0752688172042 461.3834490154976 561.0752688172042 376.50021339194575" /><path stroke-width="2" stroke="red" d="M 507.9838709677419 376.50021339194575 561.0752688172042 376.50021339194575" /><path stroke-width="2" stroke="blue" d="M 907.8494623655913 412.4526127568978 907.8494623655913 371.7420515996822" /><path stroke-width="2" stroke="blue" d="M 940.1075268817203 422.08230973638155 940.1075268817203 371.7420515996822" /><path stroke-width="2" stroke="blue" d="M 907.8494623655913 371.7420515996822 940.1075268817203 371.7420515996822" /><path stroke-width="2" stroke="red" d="M 344.67741935483866 428.9004866558539 344.67741935483866 367.5605582858856" /><path stroke-width="2" stroke="red" d="M 385.0 440.8913003651934 385.0 367.5605582858856" /><path stroke-width="2" stroke="red" d="M 344.67741935483866 367.5605582858856 385.0 367.5605582858856" /><path stroke-width="2" stroke="red" d="M 421.2903225806451 437.0376372914086 421.2903225806451 365.0752285300446" /><path stroke-width="2" stroke="red" d="M 534.5295698924731 376.50021339194575 534.5295698924731 365.0752285300446" /><path stroke-width="2" stroke="red" d="M 421.2903225806451 365.0752285300446 534.5295698924731 365.0752285300446" /><path stroke-width="2" stroke="green" d="M 63.427419354838705 392.3973380053214 63.427419354838705 358.3113755286913" /><path stroke-width="2" stroke="green" d="M 124.24731182795696 406.0765562272253 124.24731182795696 358.3113755286913" /><path stroke-width="2" stroke="green" d="M 63.427419354838705 358.3113755286913 124.24731182795696 358.3113755286913" /><path stroke-width="2" stroke="red" d="M 215.64516129032256 394.96504384476196 215.64516129032256 358.13092789367863" /><path stroke-width="2" stroke="red" d="M 280.8333333333333 396.08396147792536 280.8333333333333 358.13092789367863" /><path stroke-width="2" stroke="red" d="M 215.64516129032256 358.13092789367863 280.8333333333333 358.13092789367863" /><path stroke-width="2" stroke="blue" d="M 748.5752688172042 412.51782057205617 748.5752688172042 341.059845404351" /><path stroke-width="2" stroke="blue" d="M 854.0860215053763 395.53254957777466 854.0860215053763 341.059845404351" /><path stroke-width="2" stroke="blue" d="M 748.5752688172042 341.059845404351 854.0860215053763 341.059845404351" /><path stroke-width="2" stroke="blue" d="M 606.7741935483871 473.14875844331266 606.7741935483871 336.025759156503" /><path stroke-width="2" stroke="blue" d="M 622.9032258064516 510 622.9032258064516 336.025759156503" /><path stroke-width="2" stroke="blue" d="M 606.7741935483871 336.025759156503 622.9032258064516 336.025759156503" /><path stroke-width="2" stroke="red" d="M 477.9099462365591 365.0752285300446 477.9099462365591 332.0728728938334" /><path stroke-width="2" stroke="red" d="M 585.2688172043011 438.12719699743684 585.2688172043011 332.0728728938334" /><path stroke-width="2" stroke="red" d="M 477.9099462365591 332.0728728938334 585.2688172043011 332.0728728938334" /><path stroke-width="2" stroke="blue" d="M 923.9784946236558 371.7420515996822 923.9784946236558 320.7946052156694" /><path stroke-width="2" stroke="blue" d="M 981.774193548387 409.16447999926027 981.774193548387 320.7946052156694" /><path stroke-width="2" stroke="blue" d="M 923.9784946236558 320.7946052156694 981.774193548387 320.7946052156694" /><path stroke-width="2" stroke="blue" d="M 614.8387096774193 336.025759156503 614.8387096774193 318.811969912069" /><path stroke-width="2" stroke="blue" d="M 651.1290322580645 384.4522580055747 651.1290322580645 318.811969912069" /><path stroke-width="2" stroke="blue" d="M 614.8387096774193 318.811969912069 651.1290322580645 318.811969912069" /><path stroke-width="2" stroke="red" d="M 364.83870967741933 367.5605582858856 364.83870967741933 309.0911394691875" /><path stroke-width="2" stroke="red" d="M 531.5893817204301 332.0728728938334 531.5893817204301 309.0911394691875" /><path stroke-width="2" stroke="red" d="M 364.83870967741933 309.0911394691875 531.5893817204301 309.0911394691875" /><path stroke-width="2" stroke="blue" d="M 632.983870967742 318.811969912069 632.983870967742 305.99349061207266" /><path stroke-width="2" stroke="blue" d="M 692.7956989247311 432.50276390951734 692.7956989247311 305.99349061207266" /><path stroke-width="2" stroke="blue" d="M 632.983870967742 305.99349061207266 692.7956989247311 305.99349061207266" /><path stroke-width="2" stroke="blue" d="M 801.3306451612902 341.059845404351 801.3306451612902 289.91277673889397" /><path stroke-width="2" stroke="blue" d="M 952.8763440860214 320.7946052156694 952.8763440860214 289.91277673889397" /><path stroke-width="2" stroke="blue" d="M 801.3306451612902 289.91277673889397 952.8763440860214 289.91277673889397" /><path stroke-width="2" stroke="red" d="M 248.23924731182794 358.13092789367863 248.23924731182794 259.85607314001413" /><path stroke-width="2" stroke="red" d="M 448.2140456989247 309.0911394691875 448.2140456989247 259.85607314001413" /><path stroke-width="2" stroke="red" d="M 248.23924731182794 259.85607314001413 448.2140456989247 259.85607314001413" /><path stroke-width="2" stroke="blue" d="M 662.8897849462365 305.99349061207266 662.8897849462365 257.99717164688343" /><path stroke-width="2" stroke="blue" d="M 877.1034946236558 289.91277673889397 877.1034946236558 257.99717164688343" /><path stroke-width="2" stroke="blue" d="M 662.8897849462365 257.99717164688343 877.1034946236558 257.99717164688343" /><path stroke-width="2" stroke="black" d="M 93.83736559139783 358.3113755286913 93.83736559139783 247.72040961401927" /><path stroke-width="2" stroke="black" d="M 187.41935483870967 478.96968028099263 187.41935483870967 247.72040961401927" /><path stroke-width="2" stroke="black" d="M 93.83736559139783 247.72040961401927 187.41935483870967 247.72040961401927" /><path stroke-width="2" stroke="black" d="M 140.62836021505376 247.72040961401927 140.62836021505376 189.60450718977359" /><path stroke-width="2" stroke="black" d="M 348.2266465053763 259.85607314001413 348.2266465053763 189.60450718977359" /><path stroke-width="2" stroke="black" d="M 140.62836021505376 189.60450718977359 348.2266465053763 189.60450718977359" /><path stroke-width="2" stroke="black" d="M 244.42750336021504 189.60450718977359 244.42750336021504 10.0" /><path stroke-width="2" stroke="black" d="M 769.9966397849462 257.99717164688343 769.9966397849462 10.0" /><path stroke-width="2" stroke="black" d="M 244.42750336021504 10.0 769.9966397849462 10.0" /></svg>